<svg xmlns="http://www.w3.org/2000/svg" xmlns:xlink="http://www.w3.org/1999/xlink" width="1920" zoomAndPan="magnify" viewBox="0 0 1440 809.999993" height="1080" preserveAspectRatio="xMidYMid meet" version="1.0"><defs><g/></defs><rect x="-144" width="1728" fill="#ffffff" y="-80.999999" height="971.999992" fill-opacity="1"/><rect x="-144" width="1728" fill="#ebebeb" y="-80.999999" height="971.999992" fill-opacity="1"/><rect x="-144" width="1728" fill="#ffffff" y="-80.999999" height="971.999992" fill-opacity="1"/><rect x="-144" width="1728" fill="#ebebeb" y="-80.999999" height="971.999992" fill-opacity="1"/><g fill="#ff8d55" fill-opacity="0.4"><g transform="translate(205.124723, 316.966365)"><g/></g></g><g fill="#ff8d55" fill-opacity="0.4"><g transform="translate(241.470402, 316.966365)"><g/></g></g><g fill="#ff8d55" fill-opacity="0.4"><g transform="translate(277.816081, 316.966365)"><g/></g></g><g fill="#cb6ce6" fill-opacity="1"><g transform="translate(212.193804, 314.2528)"><g/></g></g><g fill="#cb6ce6" fill-opacity="1"><g transform="translate(248.539484, 314.2528)"><g/></g></g><g fill="#cb6ce6" fill-opacity="1"><g transform="translate(284.885163, 314.2528)"><g/></g></g><g fill="#ff8d55" fill-opacity="0.4"><g transform="translate(314.16169, 316.966365)"><g><path d="M 65.664062 0 L 84.5625 0 L 56.09375 -96.679688 L 56.09375 -96.921875 L 37.074219 -96.921875 L 8.480469 0 L 27.5 0 L 34.648438 -24.109375 L 58.515625 -24.109375 Z M 39.980469 -42.160156 L 46.644531 -64.695312 L 53.1875 -42.160156 Z M 39.980469 -42.160156 "/></g></g></g><g fill="#ff8d55" fill-opacity="0.4"><g transform="translate(407.206619, 316.966365)"><g><path d="M 26.53125 -18.050781 L 26.53125 -96.921875 L 8.480469 -96.921875 L 8.480469 0 L 64.574219 0 L 64.574219 -18.050781 Z M 26.53125 -18.050781 "/></g></g></g><g fill="#ff8d55" fill-opacity="0.4"><g transform="translate(480.26143, 316.966365)"><g><path d="M 106.976562 -56.578125 L 61.789062 -56.578125 L 61.789062 -38.042969 L 85.777344 -38.042969 C 82.019531 -26.046875 71.601562 -17.324219 58.03125 -17.324219 C 40.949219 -17.324219 28.835938 -31.257812 28.835938 -48.339844 C 28.835938 -65.421875 40.949219 -79.355469 58.03125 -79.355469 C 64.089844 -79.355469 69.542969 -77.660156 73.902344 -74.628906 L 87.472656 -88.199219 C 79.234375 -94.257812 69.058594 -97.890625 58.03125 -97.890625 C 30.652344 -97.890625 8.480469 -75.71875 8.480469 -48.339844 C 8.480469 -20.960938 30.652344 1.210938 58.03125 1.210938 C 85.414062 1.210938 107.582031 -20.960938 107.582031 -48.339844 C 107.582031 -51.125 107.339844 -53.914062 106.976562 -56.578125 Z M 106.976562 -56.578125 "/></g></g></g><g fill="#ff8d55" fill-opacity="0.4"><g transform="translate(596.325281, 316.966365)"><g><path d="M 53.792969 -98.132812 C 26.410156 -98.132812 4.242188 -75.960938 4.242188 -48.582031 C 4.242188 -21.203125 26.410156 0.96875 53.792969 0.96875 C 81.171875 0.96875 103.34375 -21.203125 103.34375 -48.582031 C 103.34375 -75.960938 81.171875 -98.132812 53.792969 -98.132812 Z M 53.792969 -79.597656 C 70.996094 -79.597656 83.109375 -65.664062 83.109375 -48.582031 C 83.109375 -31.5 70.996094 -17.566406 53.792969 -17.566406 C 36.710938 -17.566406 24.59375 -31.5 24.59375 -48.582031 C 24.59375 -65.664062 36.710938 -79.597656 53.792969 -79.597656 Z M 53.792969 -79.597656 "/></g></g></g><g fill="#ff8d55" fill-opacity="0.4"><g transform="translate(703.908481, 316.966365)"><g><path d="M 84.199219 -60.574219 C 84.199219 -80.6875 74.992188 -96.921875 50.277344 -96.921875 L 8.480469 -96.921875 L 8.480469 0 L 26.652344 0 L 26.652344 -24.109375 L 50.277344 -24.109375 C 52.457031 -24.109375 54.519531 -24.230469 56.457031 -24.472656 L 65.179688 0 L 84.199219 0 L 73.175781 -31.015625 C 81.171875 -37.679688 84.199219 -48.460938 84.199219 -60.574219 Z M 26.652344 -42.28125 L 26.652344 -78.871094 L 50.277344 -78.871094 C 59.242188 -78.871094 61.667969 -75.839844 62.515625 -74.871094 C 64.816406 -71.964844 66.027344 -66.875 66.027344 -60.574219 C 66.027344 -53.914062 64.816406 -48.824219 62.636719 -46.160156 C 60.574219 -43.492188 56.457031 -42.28125 50.277344 -42.28125 Z M 26.652344 -42.28125 "/></g></g></g><g fill="#ff8d55" fill-opacity="0.4"><g transform="translate(796.589968, 316.966365)"><g><path d="M 8.480469 -96.921875 L 26.652344 -96.921875 L 26.652344 -0.363281 L 8.480469 -0.363281 Z M 8.480469 -96.921875 "/></g></g></g><g fill="#ff8d55" fill-opacity="0.4"><g transform="translate(831.72412, 316.966365)"><g><path d="M 81.292969 -96.921875 L 8.480469 -96.921875 L 8.480469 -78.871094 L 35.859375 -78.871094 L 35.859375 0 L 53.914062 0 L 53.914062 -78.871094 L 81.292969 -78.871094 Z M 81.292969 -96.921875 "/></g></g></g><g fill="#ff8d55" fill-opacity="0.4"><g transform="translate(921.497934, 316.966365)"><g><path d="M 66.027344 -96.195312 L 66.027344 -51.972656 L 26.652344 -51.972656 L 26.652344 -96.195312 L 8.480469 -96.195312 L 8.480469 0.847656 L 26.652344 0.847656 L 26.652344 -33.921875 L 66.027344 -33.921875 L 66.027344 0.847656 L 84.078125 0.847656 L 84.078125 -96.195312 Z M 66.027344 -96.195312 "/></g></g></g><g fill="#ff8d55" fill-opacity="0.4"><g transform="translate(1014.058243, 316.966365)"><g><path d="M 89.167969 -96.921875 L 69.300781 -96.921875 L 48.824219 -48.097656 L 28.472656 -96.921875 L 8.480469 -96.921875 L 8.480469 0 L 26.652344 0 L 26.652344 -53.550781 L 38.890625 -24.351562 L 58.757812 -24.351562 L 71.117188 -53.792969 L 71.117188 0 L 89.167969 0 Z M 89.167969 -96.921875 "/></g></g></g><g fill="#cb6ce6" fill-opacity="1"><g transform="translate(321.230772, 314.2528)"><g><path d="M 65.664062 0 L 84.5625 0 L 56.09375 -96.679688 L 56.09375 -96.921875 L 37.074219 -96.921875 L 8.480469 0 L 27.5 0 L 34.648438 -24.109375 L 58.515625 -24.109375 Z M 39.980469 -42.160156 L 46.644531 -64.695312 L 53.1875 -42.160156 Z M 39.980469 -42.160156 "/></g></g></g><g fill="#cb6ce6" fill-opacity="1"><g transform="translate(414.2757, 314.2528)"><g><path d="M 26.53125 -18.050781 L 26.53125 -96.921875 L 8.480469 -96.921875 L 8.480469 0 L 64.574219 0 L 64.574219 -18.050781 Z M 26.53125 -18.050781 "/></g></g></g><g fill="#cb6ce6" fill-opacity="1"><g transform="translate(487.330512, 314.2528)"><g><path d="M 106.976562 -56.578125 L 61.789062 -56.578125 L 61.789062 -38.042969 L 85.777344 -38.042969 C 82.019531 -26.046875 71.601562 -17.324219 58.03125 -17.324219 C 40.949219 -17.324219 28.835938 -31.257812 28.835938 -48.339844 C 28.835938 -65.421875 40.949219 -79.355469 58.03125 -79.355469 C 64.089844 -79.355469 69.542969 -77.660156 73.902344 -74.628906 L 87.472656 -88.199219 C 79.234375 -94.257812 69.058594 -97.890625 58.03125 -97.890625 C 30.652344 -97.890625 8.480469 -75.71875 8.480469 -48.339844 C 8.480469 -20.960938 30.652344 1.210938 58.03125 1.210938 C 85.414062 1.210938 107.582031 -20.960938 107.582031 -48.339844 C 107.582031 -51.125 107.339844 -53.914062 106.976562 -56.578125 Z M 106.976562 -56.578125 "/></g></g></g><g fill="#cb6ce6" fill-opacity="1"><g transform="translate(603.394363, 314.2528)"><g><path d="M 53.792969 -98.132812 C 26.410156 -98.132812 4.242188 -75.960938 4.242188 -48.582031 C 4.242188 -21.203125 26.410156 0.96875 53.792969 0.96875 C 81.171875 0.96875 103.34375 -21.203125 103.34375 -48.582031 C 103.34375 -75.960938 81.171875 -98.132812 53.792969 -98.132812 Z M 53.792969 -79.597656 C 70.996094 -79.597656 83.109375 -65.664062 83.109375 -48.582031 C 83.109375 -31.5 70.996094 -17.566406 53.792969 -17.566406 C 36.710938 -17.566406 24.59375 -31.5 24.59375 -48.582031 C 24.59375 -65.664062 36.710938 -79.597656 53.792969 -79.597656 Z M 53.792969 -79.597656 "/></g></g></g><g fill="#cb6ce6" fill-opacity="1"><g transform="translate(710.977563, 314.2528)"><g><path d="M 84.199219 -60.574219 C 84.199219 -80.6875 74.992188 -96.921875 50.277344 -96.921875 L 8.480469 -96.921875 L 8.480469 0 L 26.652344 0 L 26.652344 -24.109375 L 50.277344 -24.109375 C 52.457031 -24.109375 54.519531 -24.230469 56.457031 -24.472656 L 65.179688 0 L 84.199219 0 L 73.175781 -31.015625 C 81.171875 -37.679688 84.199219 -48.460938 84.199219 -60.574219 Z M 26.652344 -42.28125 L 26.652344 -78.871094 L 50.277344 -78.871094 C 59.242188 -78.871094 61.667969 -75.839844 62.515625 -74.871094 C 64.816406 -71.964844 66.027344 -66.875 66.027344 -60.574219 C 66.027344 -53.914062 64.816406 -48.824219 62.636719 -46.160156 C 60.574219 -43.492188 56.457031 -42.28125 50.277344 -42.28125 Z M 26.652344 -42.28125 "/></g></g></g><g fill="#cb6ce6" fill-opacity="1"><g transform="translate(803.659049, 314.2528)"><g><path d="M 8.480469 -96.921875 L 26.652344 -96.921875 L 26.652344 -0.363281 L 8.480469 -0.363281 Z M 8.480469 -96.921875 "/></g></g></g><g fill="#cb6ce6" fill-opacity="1"><g transform="translate(838.793201, 314.2528)"><g><path d="M 81.292969 -96.921875 L 8.480469 -96.921875 L 8.480469 -78.871094 L 35.859375 -78.871094 L 35.859375 0 L 53.914062 0 L 53.914062 -78.871094 L 81.292969 -78.871094 Z M 81.292969 -96.921875 "/></g></g></g><g fill="#cb6ce6" fill-opacity="1"><g transform="translate(928.567016, 314.2528)"><g><path d="M 66.027344 -96.195312 L 66.027344 -51.972656 L 26.652344 -51.972656 L 26.652344 -96.195312 L 8.480469 -96.195312 L 8.480469 0.847656 L 26.652344 0.847656 L 26.652344 -33.921875 L 66.027344 -33.921875 L 66.027344 0.847656 L 84.078125 0.847656 L 84.078125 -96.195312 Z M 66.027344 -96.195312 "/></g></g></g><g fill="#cb6ce6" fill-opacity="1"><g transform="translate(1021.127324, 314.2528)"><g><path d="M 89.167969 -96.921875 L 69.300781 -96.921875 L 48.824219 -48.097656 L 28.472656 -96.921875 L 8.480469 -96.921875 L 8.480469 0 L 26.652344 0 L 26.652344 -53.550781 L 38.890625 -24.351562 L 58.757812 -24.351562 L 71.117188 -53.792969 L 71.117188 0 L 89.167969 0 Z M 89.167969 -96.921875 "/></g></g></g><g fill="#ff8d55" fill-opacity="0.4"><g transform="translate(1111.695641, 316.966365)"><g/></g></g><g fill="#ff8d55" fill-opacity="0.4"><g transform="translate(1148.041321, 316.966365)"><g/></g></g><g fill="#ff8d55" fill-opacity="0.4"><g transform="translate(1184.387, 316.966365)"><g/></g></g><g fill="#cb6ce6" fill-opacity="1"><g transform="translate(1118.764723, 314.2528)"><g/></g></g><g fill="#cb6ce6" fill-opacity="1"><g transform="translate(1155.110402, 314.2528)"><g/></g></g><g fill="#cb6ce6" fill-opacity="1"><g transform="translate(1191.456081, 314.2528)"><g/></g></g></svg>