<svg xmlns="http://www.w3.org/2000/svg" xmlns:xlink="http://www.w3.org/1999/xlink" width="1920" zoomAndPan="magnify" viewBox="0 0 1440 809.999993" height="1080" preserveAspectRatio="xMidYMid meet" version="1.0"><defs><g/></defs><rect x="-144" width="1728" fill="#ffffff" y="-80.999999" height="971.999992" fill-opacity="1"/><rect x="-144" width="1728" fill="#ebebeb" y="-80.999999" height="971.999992" fill-opacity="1"/><rect x="-144" width="1728" fill="#ffffff" y="-80.999999" height="971.999992" fill-opacity="1"/><rect x="-144" width="1728" fill="#ebebeb" y="-80.999999" height="971.999992" fill-opacity="1"/><g fill="#ff8d55" fill-opacity="0.4"><g transform="translate(555.495898, 316.966365)"><g><path d="M 65.664062 0 L 84.5625 0 L 56.09375 -96.679688 L 56.09375 -96.921875 L 37.074219 -96.921875 L 8.480469 0 L 27.5 0 L 34.648438 -24.109375 L 58.515625 -24.109375 Z M 39.980469 -42.160156 L 46.644531 -64.695312 L 53.1875 -42.160156 Z M 39.980469 -42.160156 "/></g></g></g><g fill="#ff8d55" fill-opacity="0.4"><g transform="translate(648.540827, 316.966365)"><g><path d="M 40.222656 -96.921875 L 8.480469 -96.921875 L 8.480469 0 L 40.222656 0 C 65.785156 0 83.957031 -21.6875 83.957031 -48.460938 C 83.957031 -75.234375 65.058594 -96.921875 40.222656 -96.921875 Z M 40.222656 -78.871094 C 54.640625 -78.871094 65.90625 -65.542969 65.90625 -48.460938 C 65.90625 -39.738281 63.242188 -31.863281 58.152344 -26.167969 C 54.882812 -22.414062 49.1875 -18.050781 40.222656 -18.050781 L 26.53125 -18.050781 L 26.53125 -78.871094 Z M 40.222656 -78.871094 "/></g></g></g><g fill="#ff8d55" fill-opacity="0.4"><g transform="translate(740.979992, 316.966365)"><g><path d="M 65.664062 0 L 84.5625 0 L 56.09375 -96.679688 L 56.09375 -96.921875 L 37.074219 -96.921875 L 8.480469 0 L 27.5 0 L 34.648438 -24.109375 L 58.515625 -24.109375 Z M 39.980469 -42.160156 L 46.644531 -64.695312 L 53.1875 -42.160156 Z M 39.980469 -42.160156 "/></g></g></g><g fill="#cb6ce6" fill-opacity="1"><g transform="translate(562.56498, 314.2528)"><g><path d="M 65.664062 0 L 84.5625 0 L 56.09375 -96.679688 L 56.09375 -96.921875 L 37.074219 -96.921875 L 8.480469 0 L 27.5 0 L 34.648438 -24.109375 L 58.515625 -24.109375 Z M 39.980469 -42.160156 L 46.644531 -64.695312 L 53.1875 -42.160156 Z M 39.980469 -42.160156 "/></g></g></g><g fill="#cb6ce6" fill-opacity="1"><g transform="translate(655.609908, 314.2528)"><g><path d="M 40.222656 -96.921875 L 8.480469 -96.921875 L 8.480469 0 L 40.222656 0 C 65.785156 0 83.957031 -21.6875 83.957031 -48.460938 C 83.957031 -75.234375 65.058594 -96.921875 40.222656 -96.921875 Z M 40.222656 -78.871094 C 54.640625 -78.871094 65.90625 -65.542969 65.90625 -48.460938 C 65.90625 -39.738281 63.242188 -31.863281 58.152344 -26.167969 C 54.882812 -22.414062 49.1875 -18.050781 40.222656 -18.050781 L 26.53125 -18.050781 L 26.53125 -78.871094 Z M 40.222656 -78.871094 "/></g></g></g><g fill="#cb6ce6" fill-opacity="1"><g transform="translate(748.049074, 314.2528)"><g><path d="M 65.664062 0 L 84.5625 0 L 56.09375 -96.679688 L 56.09375 -96.921875 L 37.074219 -96.921875 L 8.480469 0 L 27.5 0 L 34.648438 -24.109375 L 58.515625 -24.109375 Z M 39.980469 -42.160156 L 46.644531 -64.695312 L 53.1875 -42.160156 Z M 39.980469 -42.160156 "/></g></g></g><g fill="#ff8d55" fill-opacity="0.4"><g transform="translate(834.015778, 316.966365)"><g/></g></g><g fill="#cb6ce6" fill-opacity="1"><g transform="translate(841.084859, 314.2528)"><g/></g></g><g fill="#ff8d55" fill-opacity="0.4"><g transform="translate(192.938517, 426.003332)"><g/></g></g><g fill="#ff8d55" fill-opacity="0.4"><g transform="translate(229.284196, 426.003332)"><g/></g></g><g fill="#cb6ce6" fill-opacity="1"><g transform="translate(200.007598, 423.289768)"><g/></g></g><g fill="#cb6ce6" fill-opacity="1"><g transform="translate(236.353277, 423.289768)"><g/></g></g><g fill="#ff8d55" fill-opacity="0.4"><g transform="translate(265.629828, 426.003332)"><g><path d="M 26.53125 -18.050781 L 26.53125 -96.921875 L 8.480469 -96.921875 L 8.480469 0 L 64.574219 0 L 64.574219 -18.050781 Z M 26.53125 -18.050781 "/></g></g></g><g fill="#ff8d55" fill-opacity="0.4"><g transform="translate(338.684639, 426.003332)"><g><path d="M 65.664062 0 L 84.5625 0 L 56.09375 -96.679688 L 56.09375 -96.921875 L 37.074219 -96.921875 L 8.480469 0 L 27.5 0 L 34.648438 -24.109375 L 58.515625 -24.109375 Z M 39.980469 -42.160156 L 46.644531 -64.695312 L 53.1875 -42.160156 Z M 39.980469 -42.160156 "/></g></g></g><g fill="#ff8d55" fill-opacity="0.4"><g transform="translate(431.729568, 426.003332)"><g><path d="M 84.078125 -69.179688 C 84.078125 -84.5625 74.992188 -96.921875 50.15625 -96.921875 L 8.480469 -96.921875 L 8.480469 0 L 50.15625 0 C 75.71875 0 84.078125 -16.476562 84.078125 -31.742188 C 84.078125 -38.890625 82.140625 -45.433594 77.539062 -50.398438 C 82.261719 -55.246094 84.078125 -61.910156 84.078125 -69.179688 Z M 26.652344 -78.871094 L 56.457031 -78.871094 C 62.152344 -78.871094 66.027344 -73.902344 66.027344 -69.179688 C 66.027344 -65.058594 62.757812 -59.484375 56.457031 -59.484375 L 26.652344 -59.484375 Z M 54.640625 -18.171875 L 26.652344 -18.171875 L 26.652344 -41.433594 L 54.640625 -41.433594 C 60.210938 -41.433594 66.027344 -37.800781 66.027344 -29.804688 C 66.027344 -21.808594 59.96875 -18.171875 54.640625 -18.171875 Z M 54.640625 -18.171875 "/></g></g></g><g fill="#ff8d55" fill-opacity="0.4"><g transform="translate(524.289889, 426.003332)"><g><path d="M 53.792969 -98.132812 C 26.410156 -98.132812 4.242188 -75.960938 4.242188 -48.582031 C 4.242188 -21.203125 26.410156 0.96875 53.792969 0.96875 C 81.171875 0.96875 103.34375 -21.203125 103.34375 -48.582031 C 103.34375 -75.960938 81.171875 -98.132812 53.792969 -98.132812 Z M 53.792969 -79.597656 C 70.996094 -79.597656 83.109375 -65.664062 83.109375 -48.582031 C 83.109375 -31.5 70.996094 -17.566406 53.792969 -17.566406 C 36.710938 -17.566406 24.59375 -31.5 24.59375 -48.582031 C 24.59375 -65.664062 36.710938 -79.597656 53.792969 -79.597656 Z M 53.792969 -79.597656 "/></g></g></g><g fill="#ff8d55" fill-opacity="0.4"><g transform="translate(631.873089, 426.003332)"><g><path d="M 84.199219 -60.574219 C 84.199219 -80.6875 74.992188 -96.921875 50.277344 -96.921875 L 8.480469 -96.921875 L 8.480469 0 L 26.652344 0 L 26.652344 -24.109375 L 50.277344 -24.109375 C 52.457031 -24.109375 54.519531 -24.230469 56.457031 -24.472656 L 65.179688 0 L 84.199219 0 L 73.175781 -31.015625 C 81.171875 -37.679688 84.199219 -48.460938 84.199219 -60.574219 Z M 26.652344 -42.28125 L 26.652344 -78.871094 L 50.277344 -78.871094 C 59.242188 -78.871094 61.667969 -75.839844 62.515625 -74.871094 C 64.816406 -71.964844 66.027344 -66.875 66.027344 -60.574219 C 66.027344 -53.914062 64.816406 -48.824219 62.636719 -46.160156 C 60.574219 -43.492188 56.457031 -42.28125 50.277344 -42.28125 Z M 26.652344 -42.28125 "/></g></g></g><g fill="#ff8d55" fill-opacity="0.4"><g transform="translate(724.554553, 426.003332)"><g><path d="M 65.664062 0 L 84.5625 0 L 56.09375 -96.679688 L 56.09375 -96.921875 L 37.074219 -96.921875 L 8.480469 0 L 27.5 0 L 34.648438 -24.109375 L 58.515625 -24.109375 Z M 39.980469 -42.160156 L 46.644531 -64.695312 L 53.1875 -42.160156 Z M 39.980469 -42.160156 "/></g></g></g><g fill="#ff8d55" fill-opacity="0.4"><g transform="translate(817.599482, 426.003332)"><g><path d="M 81.292969 -96.921875 L 8.480469 -96.921875 L 8.480469 -78.871094 L 35.859375 -78.871094 L 35.859375 0 L 53.914062 0 L 53.914062 -78.871094 L 81.292969 -78.871094 Z M 81.292969 -96.921875 "/></g></g></g><g fill="#ff8d55" fill-opacity="0.4"><g transform="translate(907.373296, 426.003332)"><g><path d="M 53.792969 -98.132812 C 26.410156 -98.132812 4.242188 -75.960938 4.242188 -48.582031 C 4.242188 -21.203125 26.410156 0.96875 53.792969 0.96875 C 81.171875 0.96875 103.34375 -21.203125 103.34375 -48.582031 C 103.34375 -75.960938 81.171875 -98.132812 53.792969 -98.132812 Z M 53.792969 -79.597656 C 70.996094 -79.597656 83.109375 -65.664062 83.109375 -48.582031 C 83.109375 -31.5 70.996094 -17.566406 53.792969 -17.566406 C 36.710938 -17.566406 24.59375 -31.5 24.59375 -48.582031 C 24.59375 -65.664062 36.710938 -79.597656 53.792969 -79.597656 Z M 53.792969 -79.597656 "/></g></g></g><g fill="#ff8d55" fill-opacity="0.4"><g transform="translate(1014.956496, 426.003332)"><g><path d="M 84.199219 -60.574219 C 84.199219 -80.6875 74.992188 -96.921875 50.277344 -96.921875 L 8.480469 -96.921875 L 8.480469 0 L 26.652344 0 L 26.652344 -24.109375 L 50.277344 -24.109375 C 52.457031 -24.109375 54.519531 -24.230469 56.457031 -24.472656 L 65.179688 0 L 84.199219 0 L 73.175781 -31.015625 C 81.171875 -37.679688 84.199219 -48.460938 84.199219 -60.574219 Z M 26.652344 -42.28125 L 26.652344 -78.871094 L 50.277344 -78.871094 C 59.242188 -78.871094 61.667969 -75.839844 62.515625 -74.871094 C 64.816406 -71.964844 66.027344 -66.875 66.027344 -60.574219 C 66.027344 -53.914062 64.816406 -48.824219 62.636719 -46.160156 C 60.574219 -43.492188 56.457031 -42.28125 50.277344 -42.28125 Z M 26.652344 -42.28125 "/></g></g></g><g fill="#ff8d55" fill-opacity="0.4"><g transform="translate(1107.637983, 426.003332)"><g><path d="M 62.394531 -97.042969 L 44.585938 -54.882812 L 26.652344 -97.042969 L 8.480469 -97.042969 L 35.496094 -33.558594 L 35.496094 0 L 53.550781 0 L 53.550781 -33.558594 L 80.445312 -97.042969 Z M 62.394531 -97.042969 "/></g></g></g><g fill="#cb6ce6" fill-opacity="1"><g transform="translate(272.69891, 423.289768)"><g><path d="M 26.53125 -18.050781 L 26.53125 -96.921875 L 8.480469 -96.921875 L 8.480469 0 L 64.574219 0 L 64.574219 -18.050781 Z M 26.53125 -18.050781 "/></g></g></g><g fill="#cb6ce6" fill-opacity="1"><g transform="translate(345.753721, 423.289768)"><g><path d="M 65.664062 0 L 84.5625 0 L 56.09375 -96.679688 L 56.09375 -96.921875 L 37.074219 -96.921875 L 8.480469 0 L 27.5 0 L 34.648438 -24.109375 L 58.515625 -24.109375 Z M 39.980469 -42.160156 L 46.644531 -64.695312 L 53.1875 -42.160156 Z M 39.980469 -42.160156 "/></g></g></g><g fill="#cb6ce6" fill-opacity="1"><g transform="translate(438.79865, 423.289768)"><g><path d="M 84.078125 -69.179688 C 84.078125 -84.5625 74.992188 -96.921875 50.15625 -96.921875 L 8.480469 -96.921875 L 8.480469 0 L 50.15625 0 C 75.71875 0 84.078125 -16.476562 84.078125 -31.742188 C 84.078125 -38.890625 82.140625 -45.433594 77.539062 -50.398438 C 82.261719 -55.246094 84.078125 -61.910156 84.078125 -69.179688 Z M 26.652344 -78.871094 L 56.457031 -78.871094 C 62.152344 -78.871094 66.027344 -73.902344 66.027344 -69.179688 C 66.027344 -65.058594 62.757812 -59.484375 56.457031 -59.484375 L 26.652344 -59.484375 Z M 54.640625 -18.171875 L 26.652344 -18.171875 L 26.652344 -41.433594 L 54.640625 -41.433594 C 60.210938 -41.433594 66.027344 -37.800781 66.027344 -29.804688 C 66.027344 -21.808594 59.96875 -18.171875 54.640625 -18.171875 Z M 54.640625 -18.171875 "/></g></g></g><g fill="#cb6ce6" fill-opacity="1"><g transform="translate(531.35897, 423.289768)"><g><path d="M 53.792969 -98.132812 C 26.410156 -98.132812 4.242188 -75.960938 4.242188 -48.582031 C 4.242188 -21.203125 26.410156 0.96875 53.792969 0.96875 C 81.171875 0.96875 103.34375 -21.203125 103.34375 -48.582031 C 103.34375 -75.960938 81.171875 -98.132812 53.792969 -98.132812 Z M 53.792969 -79.597656 C 70.996094 -79.597656 83.109375 -65.664062 83.109375 -48.582031 C 83.109375 -31.5 70.996094 -17.566406 53.792969 -17.566406 C 36.710938 -17.566406 24.59375 -31.5 24.59375 -48.582031 C 24.59375 -65.664062 36.710938 -79.597656 53.792969 -79.597656 Z M 53.792969 -79.597656 "/></g></g></g><g fill="#cb6ce6" fill-opacity="1"><g transform="translate(638.942171, 423.289768)"><g><path d="M 84.199219 -60.574219 C 84.199219 -80.6875 74.992188 -96.921875 50.277344 -96.921875 L 8.480469 -96.921875 L 8.480469 0 L 26.652344 0 L 26.652344 -24.109375 L 50.277344 -24.109375 C 52.457031 -24.109375 54.519531 -24.230469 56.457031 -24.472656 L 65.179688 0 L 84.199219 0 L 73.175781 -31.015625 C 81.171875 -37.679688 84.199219 -48.460938 84.199219 -60.574219 Z M 26.652344 -42.28125 L 26.652344 -78.871094 L 50.277344 -78.871094 C 59.242188 -78.871094 61.667969 -75.839844 62.515625 -74.871094 C 64.816406 -71.964844 66.027344 -66.875 66.027344 -60.574219 C 66.027344 -53.914062 64.816406 -48.824219 62.636719 -46.160156 C 60.574219 -43.492188 56.457031 -42.28125 50.277344 -42.28125 Z M 26.652344 -42.28125 "/></g></g></g><g fill="#cb6ce6" fill-opacity="1"><g transform="translate(731.623634, 423.289768)"><g><path d="M 65.664062 0 L 84.5625 0 L 56.09375 -96.679688 L 56.09375 -96.921875 L 37.074219 -96.921875 L 8.480469 0 L 27.5 0 L 34.648438 -24.109375 L 58.515625 -24.109375 Z M 39.980469 -42.160156 L 46.644531 -64.695312 L 53.1875 -42.160156 Z M 39.980469 -42.160156 "/></g></g></g><g fill="#cb6ce6" fill-opacity="1"><g transform="translate(824.668563, 423.289768)"><g><path d="M 81.292969 -96.921875 L 8.480469 -96.921875 L 8.480469 -78.871094 L 35.859375 -78.871094 L 35.859375 0 L 53.914062 0 L 53.914062 -78.871094 L 81.292969 -78.871094 Z M 81.292969 -96.921875 "/></g></g></g><g fill="#cb6ce6" fill-opacity="1"><g transform="translate(914.442378, 423.289768)"><g><path d="M 53.792969 -98.132812 C 26.410156 -98.132812 4.242188 -75.960938 4.242188 -48.582031 C 4.242188 -21.203125 26.410156 0.96875 53.792969 0.96875 C 81.171875 0.96875 103.34375 -21.203125 103.34375 -48.582031 C 103.34375 -75.960938 81.171875 -98.132812 53.792969 -98.132812 Z M 53.792969 -79.597656 C 70.996094 -79.597656 83.109375 -65.664062 83.109375 -48.582031 C 83.109375 -31.5 70.996094 -17.566406 53.792969 -17.566406 C 36.710938 -17.566406 24.59375 -31.5 24.59375 -48.582031 C 24.59375 -65.664062 36.710938 -79.597656 53.792969 -79.597656 Z M 53.792969 -79.597656 "/></g></g></g><g fill="#cb6ce6" fill-opacity="1"><g transform="translate(1022.025578, 423.289768)"><g><path d="M 84.199219 -60.574219 C 84.199219 -80.6875 74.992188 -96.921875 50.277344 -96.921875 L 8.480469 -96.921875 L 8.480469 0 L 26.652344 0 L 26.652344 -24.109375 L 50.277344 -24.109375 C 52.457031 -24.109375 54.519531 -24.230469 56.457031 -24.472656 L 65.179688 0 L 84.199219 0 L 73.175781 -31.015625 C 81.171875 -37.679688 84.199219 -48.460938 84.199219 -60.574219 Z M 26.652344 -42.28125 L 26.652344 -78.871094 L 50.277344 -78.871094 C 59.242188 -78.871094 61.667969 -75.839844 62.515625 -74.871094 C 64.816406 -71.964844 66.027344 -66.875 66.027344 -60.574219 C 66.027344 -53.914062 64.816406 -48.824219 62.636719 -46.160156 C 60.574219 -43.492188 56.457031 -42.28125 50.277344 -42.28125 Z M 26.652344 -42.28125 "/></g></g></g><g fill="#cb6ce6" fill-opacity="1"><g transform="translate(1114.707064, 423.289768)"><g><path d="M 62.394531 -97.042969 L 44.585938 -54.882812 L 26.652344 -97.042969 L 8.480469 -97.042969 L 35.496094 -33.558594 L 35.496094 0 L 53.550781 0 L 53.550781 -33.558594 L 80.445312 -97.042969 Z M 62.394531 -97.042969 "/></g></g></g><g fill="#ff8d55" fill-opacity="0.4"><g transform="translate(1196.561332, 426.003332)"><g/></g></g><g fill="#cb6ce6" fill-opacity="1"><g transform="translate(1203.630413, 423.289768)"><g/></g></g></svg>