<svg xmlns="http://www.w3.org/2000/svg" xmlns:xlink="http://www.w3.org/1999/xlink" width="1280" zoomAndPan="magnify" viewBox="0 0 960 540.000001" height="720" preserveAspectRatio="xMidYMid meet" version="1.0"><defs><g/><clipPath id="id1"><path d="M 0.886719 0 L 959.113281 0 L 959.113281 539 L 0.886719 539 Z M 0.886719 0 " clip-rule="nonzero"/></clipPath><clipPath id="id2"><path d="M 425 340 L 959.113281 340 L 959.113281 539 L 425 539 Z M 425 340 " clip-rule="nonzero"/></clipPath><clipPath id="id3"><path d="M 394.867188 562.441406 L 1197.28125 280.746094 L 1229.765625 373.277344 L 427.347656 654.972656 Z M 394.867188 562.441406 " clip-rule="nonzero"/></clipPath><clipPath id="id4"><path d="M 394.867188 562.441406 L 1197.28125 280.746094 L 1229.765625 373.277344 L 427.347656 654.972656 Z M 394.867188 562.441406 " clip-rule="nonzero"/></clipPath><clipPath id="id5"><path d="M 539.898438 585.933594 C 537.890625 586.503906 535.25 587.976562 534.230469 587.109375 C 536.925781 587.046875 539.433594 583.648438 539.898438 585.933594 Z M 512.703125 593.984375 C 511.222656 595.183594 506.859375 596.683594 508.445312 597.625 C 511.011719 595.15625 512.300781 595.929688 513.171875 594.738281 C 512.15625 595.230469 512.410156 594.597656 512.703125 593.984375 Z M 497.484375 599.089844 C 498.207031 596.792969 504.039062 596.480469 503.335938 594.480469 C 500.898438 596.050781 497.390625 597.757812 496.460938 599.175781 C 496.679688 599.609375 497.4375 599.921875 497.484375 599.089844 Z M 1219.894531 358.523438 C 1213.230469 359.261719 1214.003906 366.3125 1209.695312 369.324219 C 1210.414062 370.875 1214.210938 367.671875 1213.445312 369.84375 C 1207.214844 370.089844 1203.609375 373.164062 1199.183594 375.261719 C 1193.300781 376.203125 1191.609375 374.582031 1187.996094 374.148438 C 1183.789062 375.523438 1180.652344 376.929688 1177.246094 378.058594 C 1173.816406 379.226562 1170.078125 379.996094 1164.71875 380.582031 C 1162.226562 380.84375 1160.351562 380.71875 1158.296875 380.964844 C 1157.328125 381.101562 1156.683594 381.394531 1156.273438 381.675781 C 1155.859375 381.957031 1155.703125 382.183594 1155.671875 382.191406 C 1154.609375 382.359375 1152.824219 381.625 1151.023438 381.917969 C 1148.09375 382.367188 1145.738281 384.65625 1144.054688 385.078125 C 1142.488281 385.457031 1138.011719 384.988281 1136.675781 385.148438 C 1131.160156 385.792969 1125.632812 387.359375 1119.546875 388.300781 C 1111.039062 389.792969 1102.070312 391.339844 1092.785156 392.929688 C 1083.484375 394.492188 1073.890625 396.089844 1064.167969 397.699219 C 1054.488281 399.632812 1044.71875 401.597656 1034.980469 403.550781 C 1030.113281 404.578125 1025.273438 405.597656 1020.464844 406.601562 C 1018.0625 407.105469 1015.65625 407.609375 1013.304688 408.164062 C 1010.933594 408.757812 1008.601562 409.371094 1006.261719 409.957031 C 996.027344 412.628906 985.15625 415.421875 975.15625 417.605469 C 972.570312 418.171875 969.988281 418.738281 967.402344 419.304688 C 964.816406 419.875 962.230469 420.441406 959.6875 421.128906 C 954.582031 422.445312 949.484375 423.792969 944.378906 425.105469 C 934.171875 427.769531 924.023438 430.480469 913.832031 433.277344 C 903.691406 436.222656 893.632812 439.480469 883.476562 442.671875 C 878.40625 444.28125 873.3125 445.933594 868.210938 447.554688 C 865.652344 448.386719 863.109375 449.175781 860.570312 450.066406 C 858.042969 450.988281 855.511719 451.910156 852.972656 452.800781 C 851.886719 453.183594 843.398438 455.414062 837.210938 457.621094 C 832.433594 459.296875 827.546875 461.046875 822.589844 462.789062 C 820.109375 463.65625 817.601562 464.539062 815.074219 465.460938 C 813.804688 465.90625 812.535156 466.351562 811.273438 466.828125 C 810.015625 467.304688 808.738281 467.820312 807.476562 468.296875 C 797.316406 472.238281 786.863281 476.316406 776.167969 480.480469 C 773.507812 481.515625 770.820312 482.5625 768.101562 483.621094 C 765.410156 484.664062 762.671875 485.660156 759.996094 486.839844 C 754.609375 489.105469 749.203125 491.410156 743.738281 493.738281 C 738.261719 496.035156 732.796875 498.363281 727.261719 500.679688 C 724.515625 501.847656 721.726562 503 718.976562 504.167969 C 716.191406 505.316406 713.441406 506.484375 710.695312 507.753906 C 688.808594 517.859375 666.40625 527.460938 645.054688 538.121094 C 639.671875 540.691406 634.324219 543.25 629.003906 545.800781 C 623.683594 548.347656 618.363281 550.796875 613.230469 553.484375 C 602.898438 558.777344 592.734375 563.878906 582.792969 568.832031 C 581.792969 568.402344 580.226562 569.835938 581.371094 568.074219 C 579.910156 568.652344 579.992188 569.171875 580.171875 569.6875 C 575.796875 571.152344 575.46875 570.996094 571.226562 572.347656 C 561.472656 575.808594 547.726562 583.765625 541.136719 584.242188 C 548.429688 581.03125 556.3125 577.753906 564.191406 574.273438 C 566.152344 573.378906 568.117188 572.488281 570.046875 571.605469 C 572.019531 570.742188 573.992188 569.878906 575.933594 569.027344 C 579.828125 567.253906 583.609375 565.449219 587.234375 563.496094 C 582.121094 564.503906 575.652344 567.355469 569.328125 569.847656 C 563.109375 572.542969 557.046875 574.910156 552.625 574.691406 C 548.421875 578.585938 544.421875 577.636719 542.429688 580.960938 C 539.859375 578.285156 529.832031 587.628906 524.742188 588.90625 C 523.511719 587.429688 528.007812 586.601562 529.324219 585.800781 C 527.882812 585.761719 526.425781 585.386719 523.867188 587.375 C 524.945312 586.382812 524.351562 585.46875 526.390625 584.410156 C 522.019531 585.402344 519.308594 586.488281 516.851562 587.898438 C 514.410156 589.265625 512.152344 590.769531 508.5625 592.339844 C 508.511719 591.8125 509.96875 591.128906 509.6875 590.613281 C 503.367188 593.210938 493.609375 598.304688 487.375 603.660156 C 486.992188 602.769531 488.871094 601.636719 490.847656 600.5 C 489.496094 599.746094 482.84375 604.976562 485.726562 601.003906 C 479.96875 604.523438 481.347656 604.683594 475.691406 607.625 C 480.914062 603.441406 481.410156 601.769531 488.21875 597.949219 C 487.214844 597.789062 485.347656 598.957031 483.808594 599.597656 C 484.304688 597.722656 487.488281 597.796875 489.347656 596.222656 C 478.964844 600.414062 467.972656 606.722656 457.503906 613.464844 C 458.738281 612.246094 460.980469 610.40625 463.683594 608.433594 C 465.035156 607.449219 466.46875 606.402344 468.003906 605.453125 C 469.539062 604.507812 471.113281 603.578125 472.679688 602.722656 C 470.441406 603.507812 467.738281 604.796875 465.058594 606.453125 C 462.359375 608.046875 459.601562 609.765625 457.078125 611.09375 C 461.25 607.210938 455.640625 610.679688 452.992188 611.644531 C 456.070312 609.574219 458.875 607.703125 461.523438 605.957031 C 462.847656 605.085938 464.109375 604.230469 465.3125 603.402344 C 466.554688 602.589844 467.757812 601.859375 468.953125 601.101562 C 473.636719 598.09375 477.859375 595.421875 482.121094 592.664062 C 486.371094 589.878906 490.714844 587.058594 495.6875 583.816406 C 498.175781 582.191406 500.820312 580.445312 503.699219 578.585938 C 505.132812 577.640625 506.628906 576.671875 508.203125 575.640625 C 509.746094 574.625 511.378906 573.574219 513.117188 572.519531 C 510.601562 573.777344 508.542969 574.875 506.613281 575.960938 C 504.6875 577.046875 502.941406 578.167969 501.144531 579.71875 C 500.234375 580.414062 497.746094 580.300781 499.652344 579.050781 C 498.785156 578.710938 496.609375 582.671875 494.667969 581.585938 C 495.492188 579.289062 498.996094 576.695312 502.964844 574.074219 C 504.949219 572.765625 507.027344 571.421875 508.921875 570.144531 C 510.867188 568.917969 512.609375 567.691406 513.886719 566.496094 C 513.199219 566.089844 511.148438 567.59375 511.363281 565.882812 C 507.859375 567.894531 513.539062 566.957031 507.953125 569.328125 C 509.855469 564.199219 517.832031 561.773438 522.519531 559.070312 C 526.554688 556.734375 530.917969 553.398438 536.972656 550.421875 C 532.863281 550.707031 524.621094 556.835938 518.621094 559.757812 C 516.976562 560.300781 518.851562 559.066406 520.027344 558.449219 C 525.234375 555.191406 532.4375 550.753906 539.550781 546.449219 C 546.667969 542.148438 553.628906 537.898438 558.625 535.394531 C 556.0625 535.546875 553.71875 536.605469 551.132812 538.230469 C 548.554688 539.886719 545.660156 541.992188 541.933594 544.046875 C 541.8125 543.511719 543.253906 542.871094 544.164062 542.277344 C 538.8125 544.734375 530.796875 549.183594 522.53125 554.164062 C 518.375 556.644531 514.171875 559.277344 510.179688 561.835938 C 508.195312 563.144531 506.207031 564.355469 504.425781 565.660156 C 502.613281 566.980469 500.878906 568.234375 499.300781 569.4375 C 495.464844 572.347656 493.050781 575.136719 489.789062 577.269531 C 486.414062 579.546875 479.042969 583.699219 476.578125 587.902344 C 471.089844 590.167969 469.875 592.027344 466.902344 595.351562 C 466.332031 594.800781 467.660156 593.550781 466.203125 594.234375 C 463.40625 595.453125 465.847656 596.128906 464.761719 597.191406 C 463.21875 597.734375 459.210938 598.597656 458.234375 600.847656 C 457.609375 598.679688 452.777344 604.363281 448.308594 607.871094 C 450.316406 607.40625 453.546875 604.910156 454.738281 605.785156 C 447.980469 611.871094 440.234375 614.964844 432.117188 620.570312 C 437.371094 615.796875 446.882812 610.6875 453.195312 606.804688 C 451.449219 606.089844 447.089844 609.628906 443.875 611.300781 C 458.128906 596.285156 480.570312 578.667969 505.078125 561.039062 C 517.535156 552.613281 530.5625 544.257812 543.410156 536.445312 C 549.777344 532.441406 556.351562 529.007812 562.6875 525.59375 C 569.039062 522.203125 575.277344 518.992188 581.28125 516.066406 C 582.253906 518.449219 592.515625 513.929688 599.546875 510.542969 C 597.953125 512.292969 599.429688 512.046875 598.25 514.199219 C 596.609375 514.363281 593.582031 517.0625 589.960938 518.539062 C 591.882812 518.304688 595.519531 516.382812 599.546875 514.117188 C 603.632812 511.933594 608.214844 509.507812 611.902344 508.007812 C 611.613281 507.089844 608.808594 509.265625 607.488281 509.660156 C 606.078125 509.507812 614.277344 505.878906 615.347656 504.382812 C 608.921875 506.195312 606.417969 507.960938 601.644531 510.519531 C 601.617188 507.738281 618.417969 503.066406 622.371094 499.53125 C 624.652344 498.867188 623.234375 500.148438 621.625 500.984375 C 629.710938 497.703125 638.015625 494.175781 644.074219 490.550781 C 641.484375 491.492188 633.648438 494.992188 626.160156 498.710938 C 630.347656 494.484375 641.601562 491.625 649.640625 486.960938 C 650.601562 488.054688 648.398438 489.03125 645.933594 490.136719 C 648.5 490.289062 652.355469 487.335938 651.339844 486.195312 C 654.320312 485.589844 657.96875 483.695312 659.746094 481.984375 C 647.21875 488.1875 632.507812 492.125 619.925781 498.753906 C 620.449219 499.183594 622.195312 498.0625 623.503906 497.535156 C 622.820312 499.648438 614.128906 501.878906 607.625 505.695312 C 608.070312 505.027344 608.847656 504.347656 609.769531 503.683594 C 606.863281 504.398438 602.941406 506.386719 599.023438 508.375 C 595.125 510.425781 591.269531 512.597656 588.394531 513.402344 C 590.34375 512.375 592.28125 511.320312 594.199219 510.308594 C 596.140625 509.25 598.058594 508.238281 600.027344 507.273438 C 603.960938 505.3125 607.859375 503.367188 611.789062 501.40625 C 619.621094 497.5 627.433594 493.632812 635.304688 489.847656 C 639.257812 487.949219 643.179688 486.0625 647.164062 484.253906 C 651.179688 482.539062 655.234375 480.84375 659.304688 479.175781 C 667.449219 475.875 675.664062 472.683594 684.058594 469.703125 C 680.089844 473.480469 669.140625 477.117188 663.324219 480.863281 C 666.546875 480.074219 677.523438 475.164062 681.515625 473.285156 C 676.59375 477.839844 664.308594 480.28125 657.019531 485.152344 C 667.027344 481.0625 676.511719 477.121094 685.75 473.160156 C 690.398438 471.222656 694.9375 469.152344 699.539062 467.265625 C 704.148438 465.40625 708.71875 463.53125 713.359375 461.664062 C 722.59375 457.878906 731.851562 453.980469 741.496094 449.8125 C 743.921875 448.789062 746.3125 447.675781 748.820312 446.695312 C 751.320312 445.683594 753.824219 444.699219 756.382812 443.664062 C 761.46875 441.609375 766.691406 439.46875 772.097656 437.261719 C 763.035156 440.273438 755.683594 443.128906 748.808594 445.882812 C 741.972656 448.757812 735.667969 451.6875 728.546875 454.527344 C 728.71875 453.855469 729.316406 453.234375 730.808594 452.644531 C 726.132812 454.320312 719.277344 457.238281 712.3125 460.125 C 708.847656 461.578125 705.34375 463.011719 702.09375 464.289062 C 700.453125 464.933594 698.890625 465.515625 697.410156 466.039062 C 695.9375 466.589844 694.570312 467.136719 693.320312 467.542969 C 693.449219 466.949219 694.636719 466.363281 696.035156 465.804688 C 697.4375 465.246094 699.070312 464.773438 700.054688 464.191406 C 698.953125 464.441406 697.800781 464.742188 696.601562 465.09375 C 695.414062 465.476562 694.214844 465.933594 692.953125 466.410156 C 690.449219 467.390625 687.78125 468.5 685.054688 469.726562 C 695.511719 463.433594 706.648438 458.402344 717.972656 453.132812 C 723.636719 450.496094 729.359375 447.839844 735.160156 445.121094 C 738.039062 443.738281 740.972656 442.332031 743.910156 440.925781 C 746.855469 439.550781 749.835938 438.164062 752.8125 436.78125 C 753.429688 437.277344 755.730469 436.097656 755.199219 437.78125 C 768.894531 432.871094 782.664062 427.695312 796.421875 422.492188 C 810.289062 417.691406 824.15625 412.890625 837.753906 408.1875 C 841.148438 407.027344 844.523438 405.808594 847.914062 404.722656 C 851.3125 403.664062 854.71875 402.640625 858.085938 401.59375 C 864.84375 399.5625 871.511719 397.5625 878.046875 395.574219 C 884.601562 393.648438 891.078125 391.78125 897.386719 390.011719 C 903.753906 388.320312 910.023438 386.9375 916.125 385.542969 C 917.949219 384.9375 917.585938 383.90625 919.410156 383.300781 C 926.667969 382.011719 934.207031 380.183594 941.886719 378.066406 C 945.742188 377.054688 949.625 375.828125 953.582031 374.8125 C 957.558594 373.757812 961.542969 372.730469 965.582031 371.65625 C 973.652344 369.503906 981.839844 367.378906 990.027344 365.457031 C 994.136719 364.492188 998.238281 363.597656 1002.339844 362.804688 C 1006.453125 362.039062 1010.578125 361.511719 1014.6875 361.023438 C 1024.773438 359.867188 1034.902344 355.355469 1043.464844 356.234375 C 1056.371094 352.859375 1073.417969 349.667969 1089.703125 347.015625 C 1093.789062 346.363281 1097.824219 345.765625 1101.726562 345.28125 C 1103.679688 345.039062 1105.601562 344.804688 1107.492188 344.585938 C 1109.386719 344.363281 1111.226562 344.191406 1113.058594 344.09375 C 1120.3125 343.660156 1126.816406 343.625 1131.964844 344.167969 C 1134.464844 343.835938 1136.933594 343.511719 1139.429688 343.179688 C 1141.476562 343.789062 1142.492188 345.035156 1145.363281 345.082031 C 1150.015625 342.667969 1157.136719 343.605469 1165.007812 343.394531 C 1166.21875 342.972656 1166.621094 342.285156 1166.667969 341.449219 C 1163.398438 343.449219 1164.402344 341.667969 1158.273438 342.492188 C 1157.375 342.058594 1165.308594 340.769531 1168.433594 340.386719 C 1166.277344 341.691406 1170.753906 342.742188 1166.878906 343.214844 C 1171.957031 344.226562 1178.765625 344.183594 1187.605469 342.957031 C 1186.929688 344.519531 1185.519531 343.210938 1183.964844 344.199219 C 1189.035156 344.90625 1192.679688 347.066406 1199.042969 344.492188 C 1197.9375 348.011719 1211.660156 346.089844 1209.976562 351.449219 C 1209.910156 352.425781 1213.300781 351.335938 1214.628906 351.449219 C 1213.574219 353.761719 1222.050781 354.019531 1219.894531 358.523438 Z M 504.941406 575.355469 C 503.023438 577.527344 500.707031 577.21875 500.625 579.015625 C 503.09375 577.4375 505.945312 577.148438 504.941406 575.355469 Z M 467.535156 602.960938 C 465.429688 604.414062 463.496094 606.253906 463.789062 606.21875 C 466.375 604.492188 469.015625 602.917969 471.671875 601.304688 C 471.757812 600.289062 469.640625 601.507812 467.535156 602.960938 Z M 607.660156 553.292969 C 605.90625 553.328125 602.417969 555.472656 602.183594 556.644531 C 603.726562 555.527344 607.757812 554.347656 607.660156 553.292969 Z M 617.585938 548.582031 C 617.019531 546.875 610.949219 551.148438 611.105469 551.980469 C 614.722656 550.097656 614.386719 549.433594 617.585938 548.582031 Z M 1166.984375 344.097656 C 1162.621094 344.335938 1153.011719 343.757812 1153.144531 346.742188 C 1158.371094 346.066406 1164.210938 345.480469 1166.984375 344.097656 Z M 515.050781 592.546875 C 516.015625 593.742188 519.714844 590.738281 520.894531 591.585938 C 520.558594 590.816406 523.398438 589.820312 522.625 589.070312 C 520.929688 589.359375 518.019531 591.710938 515.050781 592.546875 Z M 454.597656 622.792969 C 448.925781 626.761719 442.210938 628.332031 437.867188 632.6875 C 441.859375 629.648438 449.941406 627.324219 454.597656 622.792969 Z M 600.265625 505.726562 C 603.90625 504.480469 607.53125 502.628906 610.222656 500.425781 C 608.066406 500.46875 599.683594 503.582031 600.265625 505.726562 Z M 425.507812 639.171875 C 427.382812 637.933594 429.125 636.808594 430.921875 635.636719 C 440.945312 628.882812 429.425781 635.34375 425.507812 639.171875 Z M 1205.570312 344.3125 C 1201.519531 344.097656 1199.429688 342.6875 1195.972656 342.128906 C 1194.917969 343.28125 1203.632812 344.992188 1205.570312 344.3125 Z M 479.445312 590.84375 C 480.710938 590.675781 486.183594 587.796875 486.609375 586.492188 C 483.152344 588.351562 480.796875 589.179688 479.445312 590.84375 Z M 472.050781 594.835938 C 471.6875 596.121094 466.917969 597.046875 466.949219 598.976562 C 469.179688 597.785156 474.878906 594.183594 472.050781 594.835938 Z M 1069.125 408.148438 C 1073.140625 407.691406 1075.335938 406.683594 1076.96875 405.53125 C 1074.695312 406.5 1070.105469 406.78125 1069.125 408.148438 Z M 461.550781 599.171875 C 459.253906 600.554688 457.25 601.90625 458.359375 602.84375 C 460.113281 601.550781 461.5 600.277344 461.550781 599.171875 Z M 1175.421875 389.121094 C 1173.332031 389.070312 1171.171875 388.808594 1168.925781 388.609375 C 1166.683594 388.40625 1164.367188 388.199219 1161.914062 388.074219 C 1153.59375 387.691406 1144.078125 388.339844 1133.886719 389.398438 C 1128.777344 389.929688 1123.527344 390.546875 1118.167969 391.238281 C 1112.828125 392.089844 1107.359375 392.957031 1101.847656 393.800781 C 1104.441406 393.640625 1107.679688 393.285156 1111.339844 392.785156 C 1113.152344 392.523438 1115.09375 392.25 1117.09375 391.957031 C 1119.078125 391.703125 1121.160156 391.449219 1123.253906 391.222656 C 1131.601562 390.234375 1140.382812 389.128906 1147.304688 388.636719 C 1147.863281 388.578125 1148.398438 388.558594 1148.265625 388.949219 C 1145.890625 389.542969 1142.613281 389.875 1141.128906 390.773438 C 1146.296875 390.796875 1147.785156 388.84375 1152.773438 388.351562 C 1157.429688 387.875 1162.148438 388.839844 1166.84375 389.644531 C 1168.003906 389.851562 1169.195312 390.046875 1170.332031 390.191406 C 1171.492188 390.398438 1172.660156 390.53125 1173.785156 390.648438 C 1176.070312 390.867188 1178.339844 390.855469 1180.550781 390.382812 C 1183.402344 389.792969 1186.53125 387.875 1187.414062 386.136719 C 1183.503906 388.632812 1179.601562 389.21875 1175.421875 389.121094 Z M 500.949219 574.136719 C 501.96875 574.425781 508.304688 569.648438 505.296875 570.464844 C 506.054688 571.457031 500.191406 573.140625 500.949219 574.136719 Z M 1213.617188 371.589844 C 1213.566406 372.699219 1215.136719 372.828125 1216.519531 373.089844 C 1215.929688 371.015625 1222.007812 371.402344 1220.792969 369.105469 C 1217.273438 369.523438 1215.578125 370.597656 1213.617188 371.589844 Z M 1213.617188 371.589844 " clip-rule="nonzero"/></clipPath><clipPath id="id6"><path d="M 354 0 L 959.113281 0 L 959.113281 166 L 354 166 Z M 354 0 " clip-rule="nonzero"/></clipPath><clipPath id="id7"><path d="M 368.355469 -104.226562 L 1199.351562 76.515625 L 1178.511719 172.34375 L 347.515625 -8.398438 Z M 368.355469 -104.226562 " clip-rule="nonzero"/></clipPath><clipPath id="id8"><path d="M 368.355469 -104.226562 L 1199.351562 76.515625 L 1178.511719 172.34375 L 347.515625 -8.398438 Z M 368.355469 -104.226562 " clip-rule="nonzero"/></clipPath><clipPath id="id9"><path d="M 479.550781 -8.191406 C 477.542969 -8.761719 474.519531 -8.890625 474.109375 -10.164062 C 476.4375 -8.804688 480.355469 -10.382812 479.550781 -8.191406 Z M 452.171875 -15.59375 C 450.28125 -15.347656 445.78125 -16.359375 446.640625 -14.726562 C 450.117188 -15.480469 450.808594 -14.148438 452.175781 -14.703125 C 451.054688 -14.816406 451.601562 -15.222656 452.171875 -15.59375 Z M 436.535156 -19.226562 C 438.355469 -20.800781 443.484375 -18.007812 443.933594 -20.082031 C 441.035156 -20.019531 437.152344 -20.40625 435.617188 -19.6875 C 435.578125 -19.203125 436.058594 -18.539062 436.535156 -19.226562 Z M 1177.839844 154.605469 C 1171.773438 151.742188 1168.742188 158.152344 1163.492188 158.457031 C 1163.289062 160.15625 1168.203125 159.417969 1166.414062 160.867188 C 1160.976562 157.8125 1156.296875 158.535156 1151.425781 158.003906 C 1145.921875 155.722656 1145.335938 153.457031 1142.480469 151.191406 C 1138.183594 150.15625 1134.769531 149.710938 1131.277344 148.886719 C 1127.746094 148.085938 1124.160156 146.777344 1119.285156 144.46875 C 1117.03125 143.386719 1115.496094 142.296875 1113.621094 141.425781 C 1112.722656 141.035156 1112.019531 140.949219 1111.523438 140.972656 C 1111.023438 140.996094 1110.773438 141.105469 1110.742188 141.097656 C 1109.75 140.683594 1108.613281 139.121094 1106.925781 138.425781 C 1104.195312 137.273438 1100.988281 137.988281 1099.332031 137.464844 C 1097.800781 136.96875 1094.234375 134.21875 1093.011719 133.65625 C 1087.980469 131.3125 1082.453125 129.75 1076.773438 127.363281 C 1068.746094 124.171875 1060.300781 120.789062 1051.554688 117.273438 C 1042.816406 113.730469 1033.8125 110.0625 1024.6875 106.332031 C 1015.433594 102.90625 1006.082031 99.457031 996.765625 96.019531 C 992.078125 94.339844 987.425781 92.671875 982.804688 91.007812 C 980.492188 90.175781 978.179688 89.34375 975.886719 88.582031 C 973.554688 87.847656 971.25 87.148438 968.949219 86.417969 C 958.832031 83.328125 948.109375 80.007812 938.453125 76.625 C 935.953125 75.753906 933.453125 74.882812 930.957031 74.007812 C 928.457031 73.136719 925.957031 72.265625 923.429688 71.519531 C 918.390625 69.960938 913.347656 68.4375 908.308594 66.878906 C 898.222656 63.796875 888.15625 60.785156 878.011719 57.824219 C 867.835938 55.019531 857.558594 52.519531 847.238281 49.914062 C 842.074219 48.625 836.875 47.363281 831.679688 46.070312 C 829.0625 45.433594 826.484375 44.777344 823.855469 44.203125 C 821.21875 43.664062 818.582031 43.121094 815.953125 42.550781 C 814.824219 42.304688 806.425781 39.753906 800.003906 38.390625 C 795.054688 37.316406 789.976562 36.242188 784.84375 35.125 C 782.273438 34.566406 779.675781 34.003906 777.039062 33.460938 C 775.722656 33.175781 774.410156 32.890625 773.085938 32.636719 C 771.765625 32.378906 770.40625 32.152344 769.085938 31.894531 C 758.363281 29.925781 747.324219 27.917969 736.035156 25.859375 C 733.226562 25.347656 730.390625 24.828125 727.519531 24.300781 C 724.679688 23.785156 721.824219 23.195312 718.929688 22.796875 C 713.15625 21.902344 707.34375 21.03125 701.46875 20.148438 C 695.601562 19.234375 689.726562 18.351562 683.796875 17.421875 C 680.847656 16.980469 677.867188 16.496094 674.914062 16.050781 C 671.9375 15.566406 668.984375 15.121094 665.980469 14.765625 C 642.046875 11.894531 617.933594 8.328125 594.164062 6.214844 C 588.234375 5.582031 582.335938 4.957031 576.472656 4.339844 C 570.605469 3.722656 564.789062 3.015625 559.007812 2.613281 C 547.433594 1.707031 536.105469 0.722656 525.042969 -0.269531 C 524.417969 -1.160156 522.328125 -0.761719 524.230469 -1.664062 C 522.683594 -1.933594 522.480469 -1.453125 522.363281 -0.917969 C 517.871094 -1.960938 517.671875 -2.265625 513.347656 -3.339844 C 503.230469 -5.507812 487.355469 -5.933594 481.492188 -8.984375 C 489.386719 -7.894531 497.816406 -6.554688 506.351562 -5.386719 C 508.488281 -5.121094 510.628906 -4.851562 512.734375 -4.589844 C 514.867188 -4.292969 517 -3.992188 519.101562 -3.699219 C 523.347656 -3.171875 527.511719 -2.726562 531.625 -2.488281 C 526.742188 -4.308594 519.738281 -5.269531 513.042969 -6.464844 C 506.335938 -7.429688 499.933594 -8.59375 496.28125 -11.097656 C 490.660156 -9.984375 487.75 -12.886719 484.3125 -11.101562 C 483.527344 -14.726562 470.085938 -12.027344 465.085938 -13.605469 C 464.8125 -15.507812 469.074219 -13.855469 470.613281 -13.851562 C 469.410156 -14.640625 468.367188 -15.722656 465.140625 -15.371094 C 466.578125 -15.648438 466.554688 -16.738281 468.847656 -16.570312 C 464.601562 -18.019531 461.726562 -18.511719 458.894531 -18.601562 C 456.097656 -18.71875 453.386719 -18.617188 449.507812 -19.164062 C 449.742188 -19.640625 451.339844 -19.457031 451.371094 -20.042969 C 444.625 -21.148438 433.648438 -21.925781 425.527344 -20.632812 C 425.671875 -21.585938 427.863281 -21.570312 430.144531 -21.503906 C 429.386719 -22.851562 420.980469 -21.882812 425.519531 -23.757812 C 418.769531 -23.777344 419.859375 -22.917969 413.503906 -23.378906 C 420.140625 -24.203125 421.445312 -25.367188 429.246094 -25.050781 C 428.46875 -25.714844 426.269531 -25.699219 424.621094 -25.960938 C 426.027344 -27.296875 428.699219 -25.566406 431.109375 -25.929688 C 420.070312 -27.804688 407.402344 -28.191406 394.953125 -27.941406 C 396.644531 -28.328125 399.515625 -28.722656 402.851562 -28.984375 C 404.519531 -29.113281 406.289062 -29.257812 408.09375 -29.257812 C 409.894531 -29.261719 411.722656 -29.226562 413.507812 -29.132812 C 411.191406 -29.636719 408.210938 -29.957031 405.0625 -29.949219 C 401.925781 -30.007812 398.675781 -29.992188 395.832031 -30.183594 C 401.421875 -31.300781 394.828125 -31.289062 392.066406 -31.855469 C 395.769531 -32.003906 399.140625 -32.125 402.3125 -32.226562 C 403.894531 -32.277344 405.417969 -32.339844 406.878906 -32.417969 C 408.359375 -32.457031 409.769531 -32.445312 411.183594 -32.464844 C 416.746094 -32.570312 421.746094 -32.636719 426.820312 -32.75 C 431.902344 -32.894531 437.074219 -33.015625 443.011719 -33.171875 C 445.980469 -33.25 449.148438 -33.351562 452.574219 -33.425781 C 454.292969 -33.480469 456.074219 -33.523438 457.953125 -33.574219 C 459.800781 -33.632812 461.746094 -33.667969 463.773438 -33.65625 C 460.976562 -33.902344 458.644531 -34.046875 456.433594 -34.132812 C 454.222656 -34.21875 452.148438 -34.175781 449.804688 -33.800781 C 448.664062 -33.6875 446.609375 -35.085938 448.886719 -35.152344 C 448.324219 -35.898438 444.398438 -33.660156 443.3125 -35.605469 C 445.21875 -37.132812 449.5625 -37.503906 454.316406 -37.652344 C 456.691406 -37.726562 459.164062 -37.78125 461.445312 -37.878906 C 463.746094 -37.902344 465.875 -38.03125 467.589844 -38.382812 C 467.21875 -39.089844 464.683594 -38.882812 465.761719 -40.226562 C 461.722656 -40.347656 467.050781 -38.171875 461.050781 -39.082031 C 465.359375 -42.453125 473.425781 -40.335938 478.832031 -40.179688 C 483.496094 -40.054688 488.960938 -40.605469 495.675781 -39.96875 C 492.023438 -41.878906 481.796875 -40.980469 475.152344 -41.636719 C 473.464844 -42.035156 475.710938 -42.109375 477.035156 -42.015625 C 483.179688 -42.0625 491.636719 -42.0625 499.953125 -41.996094 C 508.265625 -41.933594 516.425781 -41.902344 521.992188 -41.414062 C 519.730469 -42.628906 517.179688 -42.953125 514.121094 -42.925781 C 511.0625 -42.871094 507.492188 -42.59375 503.242188 -42.796875 C 503.417969 -43.316406 504.980469 -43.105469 506.070312 -43.132812 C 500.222656 -43.847656 491.066406 -44.257812 481.414062 -44.351562 C 476.574219 -44.417969 471.617188 -44.378906 466.875 -44.292969 C 464.496094 -44.21875 462.171875 -44.230469 459.96875 -44.050781 C 457.734375 -43.878906 455.601562 -43.71875 453.625 -43.523438 C 448.832031 -43.054688 445.3125 -41.945312 441.421875 -41.839844 C 437.351562 -41.671875 428.898438 -41.996094 424.597656 -39.710938 C 418.734375 -40.65625 416.726562 -39.710938 412.449219 -38.4375 C 412.253906 -39.203125 414.039062 -39.574219 412.441406 -39.757812 C 409.417969 -40.183594 411.148438 -38.328125 409.664062 -37.992188 C 408.066406 -38.339844 404.199219 -39.707031 402.191406 -38.304688 C 402.792969 -40.472656 395.699219 -38.167969 390.050781 -37.523438 C 392.007812 -36.867188 396.070312 -37.300781 396.625 -35.929688 C 387.675781 -34.289062 379.460938 -35.714844 369.609375 -35.195312 C 376.582031 -36.507812 387.363281 -35.871094 394.773438 -35.871094 C 393.664062 -37.394531 388.09375 -36.667969 384.480469 -36.925781 C 404.488281 -42.242188 432.835938 -45.480469 462.949219 -47.644531 C 477.976562 -48.289062 493.449219 -48.574219 508.480469 -48.496094 C 516.003906 -48.570312 523.402344 -48.046875 530.589844 -47.632812 C 537.773438 -47.1875 544.773438 -46.652344 551.417969 -45.996094 C 550.996094 -43.457031 562.105469 -41.929688 569.867188 -41.128906 C 567.59375 -40.472656 568.980469 -39.90625 566.847656 -38.695312 C 565.363281 -39.410156 561.371094 -38.703125 557.511719 -39.34375 C 559.269531 -38.535156 563.375 -38.265625 567.992188 -38.082031 C 572.621094 -37.800781 577.792969 -37.464844 581.714844 -36.808594 C 581.953125 -37.742188 578.425781 -37.359375 577.09375 -37.714844 C 575.96875 -38.585938 584.855469 -37.375 586.550781 -38.089844 C 580.128906 -39.914062 577.070312 -39.726562 571.664062 -40.046875 C 573.101562 -42.429688 589.855469 -37.601562 595.078125 -38.539062 C 597.367188 -37.910156 595.488281 -37.5625 593.679688 -37.691406 C 602.285156 -36.246094 611.203125 -34.898438 618.269531 -34.808594 C 615.570312 -35.363281 607.058594 -36.492188 598.730469 -37.25 C 604.511719 -38.65625 615.597656 -35.195312 624.886719 -34.949219 C 625.132812 -33.515625 622.746094 -33.835938 620.066406 -34.1875 C 622.171875 -32.710938 627 -33.207031 626.738281 -34.710938 C 629.59375 -33.664062 633.691406 -33.363281 636.101562 -33.890625 C 622.183594 -35.175781 607.589844 -39.535156 593.402344 -40.480469 C 593.621094 -39.84375 595.695312 -39.882812 597.089844 -39.648438 C 595.398438 -38.207031 586.828125 -40.859375 579.289062 -41.019531 C 580.015625 -41.355469 581.035156 -41.527344 582.167969 -41.609375 C 579.320312 -42.523438 574.9375 -42.886719 570.558594 -43.246094 C 566.164062 -43.546875 561.742188 -43.71875 558.871094 -44.539062 C 561.066406 -44.390625 563.273438 -44.273438 565.4375 -44.128906 C 567.640625 -44.011719 569.808594 -43.871094 571.992188 -43.660156 C 576.367188 -43.265625 580.707031 -42.878906 585.082031 -42.488281 C 593.800781 -41.710938 602.476562 -40.90625 611.167969 -40.003906 C 615.527344 -39.550781 619.855469 -39.101562 624.195312 -38.550781 C 628.515625 -37.910156 632.859375 -37.226562 637.195312 -36.511719 C 645.863281 -35.054688 654.535156 -33.464844 663.246094 -31.605469 C 657.882812 -30.46875 646.652344 -33.109375 639.738281 -32.96875 C 642.894531 -31.953125 654.816406 -30.378906 659.199219 -29.886719 C 652.621094 -28.585938 640.882812 -32.949219 632.121094 -32.621094 C 642.789062 -30.859375 652.929688 -29.246094 662.871094 -27.773438 C 667.847656 -26.984375 672.796875 -26.371094 677.703125 -25.566406 C 682.605469 -24.730469 687.480469 -23.933594 692.414062 -23.089844 C 702.257812 -21.472656 712.1875 -19.9375 722.585938 -18.433594 C 725.183594 -18.035156 727.808594 -17.726562 730.457031 -17.25 C 733.113281 -16.800781 735.765625 -16.324219 738.484375 -15.863281 C 743.894531 -14.949219 749.464844 -14.035156 755.226562 -13.078125 C 745.929688 -15.265625 738.171875 -16.6875 730.871094 -17.949219 C 723.542969 -19.082031 716.636719 -19.890625 709.085938 -21.207031 C 709.585938 -21.6875 710.417969 -21.902344 712 -21.625 C 707.136719 -22.648438 699.773438 -23.757812 692.328125 -24.949219 C 688.617188 -25.527344 684.878906 -26.140625 681.441406 -26.757812 C 679.703125 -27.070312 678.070312 -27.394531 676.535156 -27.726562 C 674.996094 -28.027344 673.539062 -28.28125 672.265625 -28.589844 C 672.6875 -29.023438 674.003906 -28.902344 675.488281 -28.644531 C 676.972656 -28.386719 678.613281 -27.933594 679.757812 -27.914062 C 678.6875 -28.277344 677.550781 -28.625 676.34375 -28.953125 C 675.128906 -29.25 673.871094 -29.492188 672.546875 -29.746094 C 669.898438 -30.222656 667.046875 -30.679688 664.078125 -31.0625 C 676.28125 -30.9375 688.40625 -29.386719 700.8125 -27.9375 C 707.015625 -27.214844 713.28125 -26.476562 719.648438 -25.75 C 722.824219 -25.417969 726.0625 -25.078125 729.300781 -24.734375 C 732.53125 -24.359375 735.792969 -23.980469 739.054688 -23.601562 C 739.316406 -22.851562 741.894531 -22.652344 740.5625 -21.496094 C 754.796875 -18.5 769.234375 -15.6875 783.683594 -12.90625 C 798.007812 -9.722656 812.332031 -6.542969 826.378906 -3.421875 C 829.875 -2.628906 833.390625 -1.898438 836.84375 -1.046875 C 840.292969 -0.164062 843.734375 0.746094 847.152344 1.621094 C 853.96875 3.433594 860.695312 5.226562 867.304688 6.957031 C 873.898438 8.753906 880.390625 10.5625 886.6875 12.359375 C 892.996094 14.257812 899.0625 16.367188 904.988281 18.378906 C 906.859375 18.816406 907.089844 17.75 908.960938 18.191406 C 915.816406 20.898438 923.199219 23.292969 930.847656 25.515625 C 934.660156 26.671875 938.609375 27.664062 942.511719 28.875 C 946.449219 30.058594 950.382812 31.277344 954.382812 32.476562 C 962.386719 34.875 970.472656 37.355469 978.453125 40.011719 C 982.457031 41.34375 986.417969 42.730469 990.328125 44.207031 C 994.230469 45.714844 998.019531 47.425781 1001.773438 49.164062 C 1010.972656 53.464844 1021.964844 54.933594 1028.792969 60.167969 C 1041.554688 64.0625 1057.742188 70.28125 1073.003906 76.558594 C 1076.820312 78.144531 1080.570312 79.75 1084.152344 81.382812 C 1085.941406 82.203125 1087.699219 83.011719 1089.425781 83.816406 C 1091.152344 84.617188 1092.8125 85.4375 1094.425781 86.316406 C 1100.824219 89.746094 1106.386719 93.125 1110.484375 96.289062 C 1112.789062 97.3125 1115.058594 98.332031 1117.359375 99.359375 C 1118.785156 100.953125 1118.996094 102.542969 1121.414062 104.089844 C 1126.640625 104.472656 1132.214844 109.003906 1139.027344 112.953125 C 1140.28125 113.226562 1140.984375 112.851562 1141.460938 112.167969 C 1137.628906 112.15625 1139.417969 111.164062 1133.765625 108.652344 C 1133.226562 107.808594 1140.660156 110.875 1143.523438 112.1875 C 1141.003906 112.164062 1144.265625 115.40625 1140.71875 113.78125 C 1144.507812 117.300781 1150.332031 120.835938 1158.503906 124.421875 C 1157.109375 125.402344 1156.59375 123.546875 1154.753906 123.574219 C 1158.699219 126.832031 1160.671875 130.582031 1167.4375 131.726562 C 1164.652344 134.144531 1177.34375 139.703125 1173.101562 143.382812 C 1172.535156 144.179688 1175.988281 145.03125 1177.0625 145.820312 C 1174.953125 147.238281 1182.035156 151.902344 1177.839844 154.605469 Z M 455.328125 -35.523438 C 452.554688 -34.679688 450.742188 -36.160156 449.730469 -34.671875 C 452.660156 -34.722656 455.242188 -33.472656 455.328125 -35.523438 Z M 409 -31.625 C 406.445312 -31.492188 403.835938 -30.941406 404.101562 -30.816406 C 407.210938 -30.929688 410.28125 -30.886719 413.394531 -30.867188 C 414 -31.691406 411.554688 -31.761719 409 -31.625 Z M 554.367188 -0.46875 C 552.855469 -1.355469 548.757812 -1.359375 547.945312 -0.484375 C 549.84375 -0.628906 553.898438 0.480469 554.367188 -0.46875 Z M 565.289062 0.722656 C 565.703125 -1.027344 558.292969 -0.570312 557.988281 0.21875 C 562.054688 0.511719 562.121094 -0.230469 565.289062 0.722656 Z M 1140.34375 114.585938 C 1136.503906 112.5 1128.621094 106.972656 1127.167969 109.582031 C 1131.976562 111.746094 1137.257812 114.308594 1140.34375 114.585938 Z M 454.925781 -15.585938 C 455.117188 -14.0625 459.84375 -14.679688 460.40625 -13.34375 C 460.519531 -14.171875 463.464844 -13.53125 463.199219 -14.574219 C 461.601562 -15.21875 457.890625 -14.746094 454.925781 -15.585938 Z M 387.585938 -21.519531 C 380.679688 -21.113281 374.136719 -23.292969 368.152344 -21.867188 C 373.144531 -22.359375 381.246094 -20.101562 387.585938 -21.519531 Z M 573.003906 -44.851562 C 576.753906 -44.003906 580.816406 -43.679688 584.261719 -44.148438 C 582.402344 -45.242188 573.632812 -46.984375 573.003906 -44.851562 Z M 354.226562 -22.820312 C 356.472656 -22.894531 358.546875 -22.933594 360.691406 -22.996094 C 372.769531 -23.492188 359.574219 -24.027344 354.226562 -22.820312 Z M 1173.089844 134.992188 C 1169.753906 132.691406 1168.710938 130.390625 1166.0625 128.105469 C 1164.558594 128.535156 1171.085938 134.558594 1173.089844 134.992188 Z M 425.496094 -35.699219 C 426.660156 -35.183594 432.832031 -34.761719 433.878906 -35.652344 C 429.960938 -35.878906 427.519531 -36.410156 425.496094 -35.699219 Z M 417.105469 -36.175781 C 416.121094 -35.273438 411.574219 -36.984375 410.589844 -35.324219 C 413.117188 -35.171875 419.855469 -35.25 417.105469 -36.175781 Z M 1023.433594 117.832031 C 1027.09375 119.550781 1029.488281 119.839844 1031.480469 119.714844 C 1029.039062 119.347656 1024.984375 117.183594 1023.433594 117.832031 Z M 405.890625 -37.992188 C 403.210938 -38.015625 400.792969 -37.914062 401.246094 -36.535156 C 403.417969 -36.71875 405.265625 -37.074219 405.890625 -37.992188 Z M 1123.929688 157.347656 C 1122.175781 156.210938 1120.46875 154.855469 1118.664062 153.507812 C 1116.859375 152.160156 1114.996094 150.769531 1112.972656 149.375 C 1106.089844 144.691406 1097.644531 140.253906 1088.414062 135.8125 C 1083.78125 133.589844 1078.984375 131.363281 1074.058594 129.140625 C 1069.066406 127.066406 1063.957031 124.9375 1058.820312 122.765625 C 1061.113281 123.988281 1064.054688 125.386719 1067.4375 126.878906 C 1069.113281 127.605469 1070.910156 128.390625 1072.769531 129.1875 C 1074.589844 130.011719 1076.5 130.886719 1078.398438 131.792969 C 1086.027344 135.328125 1094.082031 138.988281 1100.238281 142.199219 C 1100.742188 142.441406 1101.210938 142.707031 1100.890625 142.964844 C 1098.558594 142.230469 1095.589844 140.792969 1093.855469 140.78125 C 1098.246094 143.511719 1100.539062 142.628906 1105.042969 144.824219 C 1109.257812 146.859375 1112.769531 150.15625 1116.347656 153.300781 C 1117.226562 154.082031 1118.136719 154.875 1119.03125 155.59375 C 1119.910156 156.375 1120.832031 157.105469 1121.734375 157.792969 C 1123.5625 159.175781 1125.503906 160.355469 1127.632812 161.113281 C 1130.371094 162.105469 1134.039062 162.113281 1135.703125 161.09375 C 1131.066406 161.171875 1127.433594 159.625 1123.929688 157.347656 Z M 452.566406 -38.65625 C 453.28125 -37.878906 461.183594 -38.625 458.195312 -39.503906 C 458.316406 -38.261719 452.441406 -39.902344 452.566406 -38.65625 Z M 1165.644531 162.445312 C 1165.019531 163.359375 1166.289062 164.292969 1167.328125 165.242188 C 1167.914062 163.167969 1172.886719 166.683594 1173.058594 164.089844 C 1169.839844 162.601562 1167.832031 162.625 1165.644531 162.445312 Z M 1165.644531 162.445312 " clip-rule="nonzero"/></clipPath><clipPath id="id10"><path d="M 426 431 L 959.113281 431 L 959.113281 539 L 426 539 Z M 426 431 " clip-rule="nonzero"/></clipPath><clipPath id="id11"><path d="M 406.992188 543.574219 L 1241.851562 381.601562 L 1260.527344 477.875 L 425.671875 639.847656 Z M 406.992188 543.574219 " clip-rule="nonzero"/></clipPath><clipPath id="id12"><path d="M 406.992188 543.574219 L 1241.851562 381.601562 L 1260.527344 477.875 L 425.671875 639.847656 Z M 406.992188 543.574219 " clip-rule="nonzero"/></clipPath><clipPath id="id13"><path d="M 547.0625 587.917969 C 544.996094 588.1875 542.167969 589.257812 541.285156 588.25 C 543.960938 588.582031 546.9375 585.585938 547.0625 587.917969 Z M 518.988281 591.921875 C 517.351562 592.894531 512.816406 593.742188 514.246094 594.90625 C 517.144531 592.835938 518.308594 593.789062 519.34375 592.738281 C 518.265625 593.078125 518.609375 592.488281 518.988281 591.921875 Z M 503.1875 594.757812 C 504.234375 592.59375 510.050781 593.132812 509.648438 591.050781 C 507.007812 592.25 503.289062 593.429688 502.164062 594.695312 C 502.320312 595.15625 503.019531 595.578125 503.1875 594.757812 Z M 1252.910156 461.839844 C 1246.207031 461.601562 1245.949219 468.691406 1241.25 471.042969 C 1241.730469 472.683594 1245.953125 470.0625 1244.882812 472.105469 C 1238.683594 471.441406 1234.667969 473.957031 1229.984375 475.386719 C 1224.023438 475.464844 1222.589844 473.613281 1219.074219 472.660156 C 1214.714844 473.40625 1211.40625 474.34375 1207.871094 474.964844 C 1204.308594 475.621094 1200.5 475.839844 1195.109375 475.640625 C 1192.609375 475.535156 1190.769531 475.140625 1188.703125 475.082031 C 1187.722656 475.078125 1187.042969 475.273438 1186.59375 475.492188 C 1186.148438 475.710938 1185.957031 475.910156 1185.925781 475.917969 C 1184.851562 475.929688 1183.191406 474.941406 1181.371094 474.96875 C 1178.402344 474.988281 1175.742188 476.910156 1174.011719 477.082031 C 1172.410156 477.230469 1168.046875 476.113281 1166.703125 476.078125 C 1161.152344 475.910156 1155.457031 476.65625 1149.296875 476.707031 C 1140.660156 476.941406 1131.566406 477.167969 1122.144531 477.390625 C 1112.71875 477.582031 1102.992188 477.769531 1093.140625 477.945312 C 1083.28125 478.449219 1073.332031 478.972656 1063.410156 479.488281 C 1058.445312 479.800781 1053.511719 480.101562 1048.605469 480.398438 C 1046.15625 480.546875 1043.703125 480.695312 1041.296875 480.902344 C 1038.863281 481.144531 1036.46875 481.410156 1034.066406 481.648438 C 1023.550781 482.804688 1012.390625 483.988281 1002.179688 484.691406 C 999.539062 484.878906 996.898438 485.0625 994.257812 485.246094 C 991.617188 485.433594 988.976562 485.617188 986.363281 485.929688 C 981.117188 486.488281 975.878906 487.078125 970.636719 487.636719 C 960.152344 488.789062 949.714844 489.996094 939.226562 491.277344 C 928.769531 492.714844 918.339844 494.476562 907.828125 496.15625 C 902.578125 497.011719 897.300781 497.90625 892.015625 498.765625 C 889.363281 499.214844 886.734375 499.628906 884.089844 500.140625 C 881.453125 500.683594 878.820312 501.230469 876.175781 501.742188 C 875.042969 501.960938 866.324219 502.933594 859.878906 504.214844 C 854.910156 505.179688 849.820312 506.199219 844.664062 507.199219 C 842.085938 507.703125 839.472656 508.207031 836.835938 508.75 C 835.515625 509.007812 834.195312 509.265625 832.878906 509.550781 C 831.566406 509.839844 830.226562 510.164062 828.910156 510.453125 C 818.28125 512.875 807.347656 515.390625 796.160156 517.953125 C 793.378906 518.589844 790.566406 519.234375 787.722656 519.882812 C 784.910156 520.527344 782.054688 521.117188 779.234375 521.890625 C 773.578125 523.347656 767.894531 524.84375 762.148438 526.351562 C 756.398438 527.828125 750.652344 529.335938 744.835938 530.824219 C 741.949219 531.582031 739.023438 532.3125 736.132812 533.066406 C 733.207031 533.800781 730.320312 534.554688 727.417969 535.414062 C 704.292969 542.222656 680.730469 548.464844 658.058594 555.910156 C 652.359375 557.667969 646.695312 559.421875 641.0625 561.167969 C 635.429688 562.917969 629.808594 564.5625 624.335938 566.476562 C 613.34375 570.214844 602.546875 573.78125 591.992188 577.234375 C 591.0625 576.664062 589.304688 577.855469 590.695312 576.277344 C 589.164062 576.636719 589.167969 577.160156 589.273438 577.699219 C 584.730469 578.511719 584.429688 578.308594 580.035156 579.03125 C 569.882812 581.035156 555.125 586.910156 548.535156 586.417969 C 556.21875 584.308594 564.496094 582.210938 572.796875 579.914062 C 574.867188 579.316406 576.9375 578.714844 578.976562 578.125 C 581.054688 577.558594 583.128906 576.992188 585.175781 576.429688 C 589.285156 575.242188 593.289062 574.003906 597.160156 572.601562 C 591.957031 572.855469 585.140625 574.734375 578.523438 576.28125 C 571.976562 578.042969 565.632812 579.503906 561.289062 578.644531 C 556.566406 581.882812 552.746094 580.367188 550.292969 583.363281 C 548.140625 580.34375 536.855469 588.128906 531.636719 588.652344 C 530.636719 587.011719 535.203125 586.847656 536.621094 586.242188 C 535.203125 585.996094 533.816406 585.414062 530.992188 587.007812 C 532.203125 586.183594 531.75 585.191406 533.921875 584.445312 C 529.453125 584.785156 526.613281 585.46875 523.976562 586.503906 C 521.363281 587.503906 518.910156 588.664062 515.128906 589.691406 C 515.15625 589.164062 516.699219 588.703125 516.496094 588.152344 C 509.863281 589.796875 499.46875 593.417969 492.519531 597.8125 C 492.273438 596.878906 494.296875 596.027344 496.417969 595.1875 C 495.191406 594.25 487.847656 598.457031 491.277344 594.941406 C 485.066406 597.585938 486.410156 597.949219 480.386719 600.035156 C 486.160156 596.65625 486.898438 595.074219 494.1875 592.28125 C 493.214844 591.980469 491.199219 592.863281 489.582031 593.273438 C 490.347656 591.488281 493.488281 592.027344 495.554688 590.742188 C 484.675781 593.375 472.878906 598.019531 461.542969 603.167969 C 462.941406 602.140625 465.425781 600.644531 468.386719 599.089844 C 469.867188 598.3125 471.4375 597.484375 473.09375 596.769531 C 474.75 596.054688 476.445312 595.367188 478.121094 594.746094 C 475.792969 595.199219 472.929688 596.082031 470.035156 597.328125 C 467.132812 598.515625 464.152344 599.8125 461.464844 600.757812 C 466.160156 597.523438 460.105469 600.140625 457.34375 600.707031 C 460.6875 599.109375 463.738281 597.667969 466.609375 596.324219 C 468.046875 595.652344 469.421875 594.992188 470.730469 594.347656 C 472.078125 593.726562 473.375 593.179688 474.667969 592.601562 C 479.738281 590.308594 484.304688 588.277344 488.921875 586.167969 C 493.535156 584.03125 498.238281 581.875 503.632812 579.386719 C 506.328125 578.144531 509.203125 576.800781 512.320312 575.378906 C 513.875 574.652344 515.496094 573.910156 517.203125 573.121094 C 518.878906 572.339844 520.648438 571.535156 522.519531 570.75 C 519.847656 571.625 517.652344 572.414062 515.585938 573.207031 C 513.519531 574 511.632812 574.855469 509.625 576.128906 C 508.625 576.683594 506.183594 576.210938 508.25 575.25 C 507.441406 574.785156 504.710938 578.390625 502.949219 577.03125 C 504.097656 574.878906 507.941406 572.824219 512.25 570.808594 C 514.402344 569.800781 516.652344 568.777344 518.714844 567.789062 C 520.816406 566.855469 522.71875 565.898438 524.15625 564.898438 C 523.539062 564.398438 521.289062 565.585938 521.75 563.925781 C 517.988281 565.40625 523.746094 565.304688 517.875 566.835938 C 520.503906 562.039062 528.746094 560.800781 533.78125 558.808594 C 538.113281 557.085938 542.914062 554.417969 549.335938 552.355469 C 545.226562 552.039062 536.183594 556.902344 529.820312 558.921875 C 528.113281 559.222656 530.148438 558.269531 531.402344 557.832031 C 537.027344 555.363281 544.800781 552.023438 552.464844 548.800781 C 560.128906 545.578125 567.636719 542.386719 572.945312 540.640625 C 570.386719 540.414062 567.914062 541.125 565.117188 542.355469 C 562.328125 543.613281 559.15625 545.277344 555.171875 546.769531 C 555.128906 546.222656 556.648438 545.796875 557.636719 545.34375 C 551.984375 546.996094 543.40625 550.230469 534.503906 553.957031 C 530.03125 555.804688 525.488281 557.800781 521.167969 559.75 C 519.011719 560.757812 516.871094 561.664062 514.917969 562.699219 C 512.933594 563.738281 511.035156 564.726562 509.296875 565.6875 C 505.082031 568.011719 502.285156 570.417969 498.75 572.054688 C 495.078125 573.8125 487.179688 576.851562 484.132812 580.652344 C 478.375 582.09375 476.902344 583.753906 473.472656 586.613281 C 472.992188 585.988281 474.488281 584.945312 472.945312 585.40625 C 470 586.207031 472.320312 587.230469 471.089844 588.125 C 469.484375 588.433594 465.394531 588.703125 464.101562 590.789062 C 463.796875 588.554688 458.191406 593.472656 453.257812 596.296875 C 455.3125 596.128906 458.875 594.125 459.921875 595.167969 C 452.351562 600.203125 444.238281 602.136719 435.394531 606.503906 C 441.285156 602.546875 451.4375 598.875 458.25 595.949219 C 456.625 594.988281 451.796875 597.855469 448.371094 599.042969 C 464.660156 586.261719 489.425781 572.09375 516.238281 558.21875 C 529.789062 551.695312 543.890625 545.324219 557.734375 539.464844 C 564.621094 536.425781 571.621094 533.988281 578.390625 531.53125 C 585.164062 529.101562 591.808594 526.832031 598.171875 524.8125 C 598.785156 527.3125 609.597656 524.328125 617.046875 522 C 615.214844 523.5 616.710938 523.472656 615.230469 525.429688 C 613.585938 525.355469 610.199219 527.585938 606.398438 528.519531 C 608.332031 528.570312 612.210938 527.195312 616.523438 525.539062 C 620.886719 523.972656 625.773438 522.238281 629.636719 521.292969 C 629.484375 520.339844 626.394531 522.085938 625.03125 522.285156 C 623.65625 521.929688 632.296875 519.53125 633.574219 518.207031 C 626.953125 519.066406 624.21875 520.445312 619.125 522.285156 C 619.503906 519.527344 636.804688 517.351562 641.230469 514.429688 C 643.582031 514.101562 641.992188 515.164062 640.28125 515.757812 C 648.757812 513.6875 657.484375 511.40625 664.007812 508.699219 C 661.308594 509.257812 653.046875 511.578125 645.097656 514.167969 C 649.851562 510.59375 661.402344 509.402344 670.039062 505.960938 C 670.828125 507.179688 668.507812 507.828125 665.90625 508.5625 C 668.425781 509.085938 672.667969 506.726562 671.832031 505.449219 C 674.867188 505.285156 678.753906 503.941406 680.757812 502.503906 C 667.464844 506.820312 652.332031 508.574219 638.921875 513.304688 C 639.378906 513.804688 641.269531 512.949219 642.640625 512.617188 C 641.65625 514.609375 632.734375 515.554688 625.742188 518.382812 C 626.28125 517.789062 627.152344 517.226562 628.160156 516.703125 C 625.179688 516.988281 621.011719 518.382812 616.84375 519.78125 C 612.6875 521.242188 608.558594 522.828125 605.59375 523.207031 C 607.671875 522.476562 609.746094 521.714844 611.789062 520.992188 C 613.863281 520.230469 615.910156 519.503906 618 518.835938 C 622.171875 517.472656 626.3125 516.113281 630.488281 514.746094 C 638.804688 512.019531 647.09375 509.332031 655.433594 506.730469 C 659.621094 505.425781 663.773438 504.128906 667.980469 502.921875 C 672.203125 501.808594 676.460938 500.71875 680.730469 499.664062 C 689.269531 497.582031 697.863281 495.617188 706.601562 493.890625 C 702.121094 497.050781 690.761719 499.058594 684.460938 501.917969 C 687.761719 501.605469 699.335938 498.34375 703.5625 497.066406 C 698.03125 500.855469 685.519531 501.484375 677.601562 505.246094 C 688.097656 502.652344 698.050781 500.132812 707.769531 497.558594 C 712.652344 496.316406 717.441406 494.929688 722.269531 493.730469 C 727.101562 492.5625 731.894531 491.371094 736.761719 490.199219 C 746.445312 487.796875 756.171875 485.289062 766.316406 482.566406 C 768.867188 481.910156 771.398438 481.15625 774.019531 480.546875 C 776.636719 479.910156 779.261719 479.300781 781.941406 478.652344 C 787.273438 477.355469 792.753906 475.996094 798.421875 474.601562 C 789.019531 476.265625 781.328125 478.015625 774.125 479.742188 C 766.945312 481.59375 760.28125 483.574219 752.824219 485.347656 C 753.089844 484.707031 753.773438 484.183594 755.332031 483.8125 C 750.464844 484.792969 743.257812 486.679688 735.945312 488.523438 C 732.308594 489.460938 728.632812 490.367188 725.230469 491.160156 C 723.511719 491.558594 721.882812 491.90625 720.339844 492.207031 C 718.804688 492.539062 717.371094 492.882812 716.074219 493.101562 C 716.292969 492.535156 717.550781 492.125 719.015625 491.777344 C 720.484375 491.425781 722.167969 491.199219 723.226562 490.761719 C 722.101562 490.851562 720.917969 490.980469 719.679688 491.15625 C 718.449219 491.363281 717.195312 491.636719 715.878906 491.925781 C 713.257812 492.535156 710.457031 493.242188 707.582031 494.058594 C 718.839844 489.355469 730.59375 485.996094 742.5625 482.429688 C 748.550781 480.644531 754.597656 478.851562 760.734375 477.003906 C 763.78125 476.054688 766.890625 475.089844 770 474.128906 C 773.117188 473.195312 776.261719 472.257812 779.410156 471.320312 C 779.949219 471.902344 782.398438 471.066406 781.628906 472.65625 C 795.890625 469.792969 810.265625 466.675781 824.636719 463.527344 C 839.054688 460.796875 853.472656 458.0625 867.609375 455.386719 C 871.136719 454.734375 874.652344 454.019531 878.164062 453.4375 C 881.679688 452.886719 885.199219 452.367188 888.683594 451.820312 C 895.667969 450.792969 902.554688 449.785156 909.308594 448.769531 C 916.074219 447.816406 922.753906 446.914062 929.25 446.078125 C 935.796875 445.332031 942.203125 444.875 948.4375 444.386719 C 950.332031 444.050781 950.125 442.976562 952.015625 442.644531 C 959.382812 442.425781 967.109375 441.710938 975.015625 440.734375 C 978.976562 440.292969 982.996094 439.644531 987.058594 439.214844 C 991.144531 438.75 995.238281 438.316406 999.390625 437.839844 C 1007.691406 436.882812 1016.097656 435.972656 1024.476562 435.261719 C 1028.683594 434.90625 1032.871094 434.617188 1037.042969 434.429688 C 1041.226562 434.273438 1045.382812 434.347656 1049.519531 434.460938 C 1059.667969 434.785156 1070.347656 431.796875 1078.6875 433.910156 C 1091.949219 432.449219 1109.28125 431.773438 1125.777344 431.515625 C 1129.914062 431.46875 1133.992188 431.460938 1137.925781 431.550781 C 1139.890625 431.59375 1141.828125 431.644531 1143.730469 431.699219 C 1145.636719 431.753906 1147.480469 431.855469 1149.308594 432.023438 C 1156.546875 432.648438 1162.988281 433.558594 1168.003906 434.84375 C 1170.523438 434.878906 1173.011719 434.921875 1175.53125 434.957031 C 1177.46875 435.855469 1178.292969 437.234375 1181.125 437.699219 C 1186.078125 435.988281 1192.988281 437.953125 1200.808594 438.890625 C 1202.066406 438.644531 1202.566406 438.027344 1202.730469 437.207031 C 1199.203125 438.710938 1200.457031 437.09375 1194.273438 437.015625 C 1193.449219 436.457031 1201.484375 436.335938 1204.632812 436.414062 C 1202.308594 437.386719 1206.585938 439.078125 1202.683594 438.984375 C 1207.558594 440.722656 1214.304688 441.671875 1223.226562 441.742188 C 1222.332031 443.191406 1221.128906 441.691406 1219.445312 442.441406 C 1224.359375 443.878906 1227.652344 446.546875 1234.320312 444.925781 C 1232.714844 448.246094 1246.570312 448.339844 1244.125 453.398438 C 1243.917969 454.355469 1247.429688 453.773438 1248.726562 454.074219 C 1247.347656 456.210938 1255.699219 457.699219 1252.910156 461.839844 Z M 514.019531 572.363281 C 511.804688 574.234375 509.558594 573.589844 509.214844 575.359375 C 511.886719 574.152344 514.75 574.285156 514.019531 572.363281 Z M 472.992188 594.234375 C 470.699219 595.367188 468.519531 596.902344 468.8125 596.910156 C 471.625 595.582031 474.464844 594.40625 477.328125 593.199219 C 477.5625 592.203125 475.289062 593.101562 472.992188 594.234375 Z M 618.855469 565.476562 C 617.113281 565.257812 613.347656 566.875 612.945312 568 C 614.636719 567.113281 618.800781 566.535156 618.855469 565.476562 Z M 629.359375 562.261719 C 629.050781 560.488281 622.421875 563.835938 622.453125 564.679688 C 626.308594 563.34375 626.070312 562.636719 629.359375 562.261719 Z M 1202.660156 439.871094 C 1198.308594 439.472656 1188.886719 437.503906 1188.582031 440.476562 C 1193.851562 440.566406 1199.714844 440.835938 1202.660156 439.871094 Z M 521.519531 590.84375 C 522.300781 592.164062 526.398438 589.734375 527.441406 590.742188 C 527.21875 589.933594 530.175781 589.359375 529.519531 588.503906 C 527.796875 588.542969 524.578125 590.445312 521.519531 590.84375 Z M 457.308594 611.972656 C 451.121094 615.074219 444.25 615.652344 439.316406 619.328125 C 443.710938 616.902344 452.042969 615.777344 457.308594 611.972656 Z M 618.457031 517.339844 C 622.238281 516.640625 626.097656 515.335938 629.082031 513.546875 C 626.9375 513.273438 618.195312 515.132812 618.457031 517.339844 Z M 426.144531 623.945312 C 428.179688 622.992188 430.070312 622.136719 432.015625 621.234375 C 442.917969 616.011719 430.582031 620.726562 426.144531 623.945312 Z M 1240.804688 445.695312 C 1236.828125 444.894531 1234.964844 443.195312 1231.628906 442.140625 C 1230.414062 443.128906 1238.789062 446.085938 1240.804688 445.695312 Z M 486.539062 583.980469 C 487.816406 583.996094 493.652344 581.945312 494.261719 580.714844 C 490.570312 582.050781 488.117188 582.527344 486.539062 583.980469 Z M 478.644531 586.855469 C 478.097656 588.074219 473.246094 588.292969 472.996094 590.207031 C 475.375 589.355469 481.535156 586.621094 478.644531 586.855469 Z M 1096.523438 489.007812 C 1100.566406 489.140625 1102.882812 488.460938 1104.664062 487.558594 C 1102.273438 488.183594 1097.695312 487.796875 1096.523438 489.007812 Z M 467.625 589.613281 C 465.152344 590.652344 462.972656 591.695312 463.933594 592.785156 C 465.855469 591.757812 467.414062 590.703125 467.625 589.613281 Z M 1204.460938 485.640625 C 1202.398438 485.289062 1200.296875 484.714844 1198.105469 484.191406 C 1195.917969 483.667969 1193.65625 483.125 1191.246094 482.640625 C 1183.070312 481.050781 1173.5625 480.3125 1163.324219 479.875 C 1158.191406 479.660156 1152.910156 479.507812 1147.503906 479.410156 C 1142.097656 479.476562 1136.5625 479.535156 1130.988281 479.570312 C 1133.574219 479.789062 1136.832031 479.910156 1140.527344 479.945312 C 1142.355469 479.949219 1144.316406 479.964844 1146.339844 479.964844 C 1148.335938 480 1150.4375 480.050781 1152.539062 480.136719 C 1160.941406 480.371094 1169.789062 480.550781 1176.710938 481.074219 C 1177.269531 481.097656 1177.804688 481.15625 1177.613281 481.523438 C 1175.179688 481.765625 1171.890625 481.617188 1170.289062 482.289062 C 1175.402344 483.066406 1177.15625 481.347656 1182.164062 481.589844 C 1186.839844 481.792969 1191.367188 483.4375 1195.898438 484.914062 C 1197.015625 485.285156 1198.160156 485.652344 1199.265625 485.960938 C 1200.382812 486.335938 1201.519531 486.636719 1202.617188 486.917969 C 1204.84375 487.464844 1207.09375 487.78125 1209.351562 487.640625 C 1212.253906 487.46875 1215.628906 486.027344 1216.757812 484.433594 C 1212.523438 486.335938 1208.578125 486.347656 1204.460938 485.640625 Z M 510.246094 570.578125 C 511.210938 571.011719 518.175781 567.203125 515.082031 567.574219 C 515.683594 568.667969 509.640625 569.480469 510.246094 570.578125 Z M 1244.796875 473.855469 C 1244.585938 474.945312 1246.121094 475.300781 1247.453125 475.761719 C 1247.167969 473.625 1253.125 474.890625 1252.257812 472.441406 C 1248.714844 472.34375 1246.882812 473.15625 1244.796875 473.855469 Z M 1244.796875 473.855469 " clip-rule="nonzero"/></clipPath></defs><g clip-path="url(#id1)"><path fill="#ffffff" d="M 0.886719 0 L 959.113281 0 L 959.113281 539.003906 L 0.886719 539.003906 Z M 0.886719 0 " fill-opacity="1" fill-rule="nonzero"/><path fill="#ffffff" d="M 0.886719 0 L 959.113281 0 L 959.113281 539.003906 L 0.886719 539.003906 Z M 0.886719 0 " fill-opacity="1" fill-rule="nonzero"/><path fill="#ffffff" d="M 0.886719 0 L 959.113281 0 L 959.113281 539.003906 L 0.886719 539.003906 Z M 0.886719 0 " fill-opacity="1" fill-rule="nonzero"/></g><g clip-path="url(#id2)"><g clip-path="url(#id3)"><g clip-path="url(#id4)"><g clip-path="url(#id5)"><path fill="#292728" d="M 363.433594 362.179688 L 484.054688 705.773438 L 1021.1875 517.210938 L 900.566406 173.613281 Z M 363.433594 362.179688 " fill-opacity="1" fill-rule="nonzero"/></g></g></g></g><g clip-path="url(#id6)"><g clip-path="url(#id7)"><g clip-path="url(#id8)"><g clip-path="url(#id9)"><path fill="#292728" d="M 381.550781 -125.621094 L 319.613281 159.152344 L 931.789062 292.304688 L 993.730469 7.53125 Z M 381.550781 -125.621094 " fill-opacity="1" fill-rule="nonzero"/></g></g></g></g><g clip-path="url(#id10)"><g clip-path="url(#id11)"><g clip-path="url(#id12)"><g clip-path="url(#id13)"><path fill="#292728" d="M 406.039062 435.363281 L 445.480469 638.652344 L 979.21875 535.101562 L 939.777344 331.808594 Z M 406.039062 435.363281 " fill-opacity="1" fill-rule="nonzero"/></g></g></g></g><g fill="#000000" fill-opacity="1"><g transform="translate(373.5047, 263.527698)"><g><path d="M 14.015625 -9.296875 L 14.015625 -36.449219 L 17.046875 -36.449219 C 24.863281 -36.449219 30.117188 -30.519531 30.117188 -22.90625 C 30.117188 -15.292969 24.792969 -9.296875 17.046875 -9.296875 Z M 4.042969 -45.816406 L 4.042969 0 L 17.652344 0 C 30.65625 0 40.425781 -9.972656 40.425781 -22.90625 C 40.425781 -35.84375 30.589844 -45.816406 17.652344 -45.816406 Z M 4.042969 -45.816406 "/></g></g></g><g fill="#000000" fill-opacity="1"><g transform="translate(429.762977, 263.527698)"><g><path d="M 28.972656 -17.515625 L 17.382812 -17.515625 L 23.175781 -33.824219 Z M 46.085938 0 L 27.488281 -45.816406 L 18.933594 -45.816406 L 0.335938 0 L 11.183594 0 L 14.484375 -9.230469 L 31.9375 -9.230469 L 35.238281 0 Z M 46.085938 0 "/></g></g></g><g fill="#000000" fill-opacity="1"><g transform="translate(489.659505, 263.527698)"><g><path d="M 23.515625 -36.652344 L 36.585938 -36.652344 L 36.585938 -45.816406 L 0.335938 -45.816406 L 0.335938 -36.652344 L 13.40625 -36.652344 L 13.40625 0 L 23.515625 0 Z M 23.515625 -36.652344 "/></g></g></g><g fill="#000000" fill-opacity="1"><g transform="translate(540.056135, 263.527698)"><g><path d="M 28.972656 -17.515625 L 17.382812 -17.515625 L 23.175781 -33.824219 Z M 46.085938 0 L 27.488281 -45.816406 L 18.933594 -45.816406 L 0.335938 0 L 11.183594 0 L 14.484375 -9.230469 L 31.9375 -9.230469 L 35.238281 0 Z M 46.085938 0 "/></g></g></g><g fill="#000000" fill-opacity="1"><g transform="translate(599.948628, 263.527698)"><g/></g></g><g fill="#000000" fill-opacity="1"><g transform="translate(109.805539, 344.377972)"><g><path d="M 37.125 -15.5625 C 35.238281 -11.519531 30.65625 -8.757812 25.941406 -8.757812 C 18.527344 -8.757812 12.597656 -15.09375 12.597656 -22.90625 C 12.597656 -30.65625 18.527344 -37.054688 25.941406 -37.054688 C 30.589844 -37.054688 35.167969 -34.496094 37.054688 -30.386719 L 48.308594 -30.386719 C 45.207031 -39.75 36.382812 -46.488281 25.941406 -46.488281 C 12.9375 -46.488281 2.359375 -35.910156 2.359375 -22.90625 C 2.359375 -9.902344 12.9375 0.671875 25.941406 0.671875 C 36.382812 0.671875 45.277344 -6.132812 48.375 -15.5625 Z M 37.125 -15.5625 "/></g></g></g><g fill="#000000" fill-opacity="1"><g transform="translate(173.34033, 344.377972)"><g><path d="M 39.414062 -22.976562 C 39.414062 -15.902344 33.015625 -9.433594 25.941406 -9.433594 C 18.863281 -9.433594 12.464844 -15.902344 12.464844 -22.976562 C 12.464844 -30.050781 18.863281 -36.449219 25.941406 -36.449219 C 33.015625 -36.449219 39.414062 -30.050781 39.414062 -22.976562 Z M 49.519531 -22.90625 C 49.519531 -35.574219 38.605469 -46.488281 25.941406 -46.488281 C 13.273438 -46.488281 2.359375 -35.574219 2.359375 -22.90625 C 2.359375 -10.242188 13.273438 0.671875 25.941406 0.671875 C 38.605469 0.671875 49.519531 -10.242188 49.519531 -22.90625 Z M 49.519531 -22.90625 "/></g></g></g><g fill="#000000" fill-opacity="1"><g transform="translate(238.694246, 344.377972)"><g><path d="M 61.175781 0 L 52.28125 -45.816406 L 40.289062 -45.816406 L 30.789062 -13.675781 L 21.222656 -45.816406 L 9.230469 -45.816406 L 0.335938 0 L 11.453125 0 L 16.84375 -31.597656 L 25.804688 0 L 35.707031 0 L 44.667969 -31.597656 L 50.058594 0 Z M 61.175781 0 "/></g></g></g><g fill="#000000" fill-opacity="1"><g transform="translate(313.682817, 344.377972)"><g><path d="M 61.175781 0 L 52.28125 -45.816406 L 40.289062 -45.816406 L 30.789062 -13.675781 L 21.222656 -45.816406 L 9.230469 -45.816406 L 0.335938 0 L 11.453125 0 L 16.84375 -31.597656 L 25.804688 0 L 35.707031 0 L 44.667969 -31.597656 L 50.058594 0 Z M 61.175781 0 "/></g></g></g><g fill="#000000" fill-opacity="1"><g transform="translate(388.671388, 344.377972)"><g><path d="M 30.789062 -45.816406 L 30.789062 -19.335938 C 30.789062 -13.003906 28.902344 -9.433594 21.964844 -9.433594 C 15.09375 -9.433594 13.136719 -13.003906 13.136719 -19.335938 L 13.136719 -45.816406 L 3.03125 -45.816406 L 3.03125 -17.855469 C 3.03125 -5.660156 10.039062 0.671875 21.964844 0.671875 C 33.890625 0.671875 40.898438 -5.660156 40.898438 -17.855469 L 40.898438 -45.816406 Z M 30.789062 -45.816406 "/></g></g></g><g fill="#000000" fill-opacity="1"><g transform="translate(446.075032, 344.377972)"><g><path d="M 40.019531 0 L 40.019531 -45.816406 L 29.914062 -45.816406 L 29.914062 -17.25 L 14.148438 -45.816406 L 4.042969 -45.816406 L 4.042969 0 L 14.148438 0 L 14.148438 -28.566406 L 29.914062 0 Z M 40.019531 0 "/></g></g></g><g fill="#000000" fill-opacity="1"><g transform="translate(503.61342, 344.377972)"><g><path d="M 14.148438 0 L 14.148438 -45.816406 L 4.042969 -45.816406 L 4.042969 0 Z M 14.148438 0 "/></g></g></g><g fill="#000000" fill-opacity="1"><g transform="translate(535.279768, 344.377972)"><g><path d="M 37.125 -15.5625 C 35.238281 -11.519531 30.65625 -8.757812 25.941406 -8.757812 C 18.527344 -8.757812 12.597656 -15.09375 12.597656 -22.90625 C 12.597656 -30.65625 18.527344 -37.054688 25.941406 -37.054688 C 30.589844 -37.054688 35.167969 -34.496094 37.054688 -30.386719 L 48.308594 -30.386719 C 45.207031 -39.75 36.382812 -46.488281 25.941406 -46.488281 C 12.9375 -46.488281 2.359375 -35.910156 2.359375 -22.90625 C 2.359375 -9.902344 12.9375 0.671875 25.941406 0.671875 C 36.382812 0.671875 45.277344 -6.132812 48.375 -15.5625 Z M 37.125 -15.5625 "/></g></g></g><g fill="#000000" fill-opacity="1"><g transform="translate(598.814559, 344.377972)"><g><path d="M 28.972656 -17.515625 L 17.382812 -17.515625 L 23.175781 -33.824219 Z M 46.085938 0 L 27.488281 -45.816406 L 18.933594 -45.816406 L 0.335938 0 L 11.183594 0 L 14.484375 -9.230469 L 31.9375 -9.230469 L 35.238281 0 Z M 46.085938 0 "/></g></g></g><g fill="#000000" fill-opacity="1"><g transform="translate(658.711099, 344.377972)"><g><path d="M 23.515625 -36.652344 L 36.585938 -36.652344 L 36.585938 -45.816406 L 0.335938 -45.816406 L 0.335938 -36.652344 L 13.40625 -36.652344 L 13.40625 0 L 23.515625 0 Z M 23.515625 -36.652344 "/></g></g></g><g fill="#000000" fill-opacity="1"><g transform="translate(709.107729, 344.377972)"><g><path d="M 14.148438 0 L 14.148438 -45.816406 L 4.042969 -45.816406 L 4.042969 0 Z M 14.148438 0 "/></g></g></g><g fill="#000000" fill-opacity="1"><g transform="translate(740.774078, 344.377972)"><g><path d="M 39.414062 -22.976562 C 39.414062 -15.902344 33.015625 -9.433594 25.941406 -9.433594 C 18.863281 -9.433594 12.464844 -15.902344 12.464844 -22.976562 C 12.464844 -30.050781 18.863281 -36.449219 25.941406 -36.449219 C 33.015625 -36.449219 39.414062 -30.050781 39.414062 -22.976562 Z M 49.519531 -22.90625 C 49.519531 -35.574219 38.605469 -46.488281 25.941406 -46.488281 C 13.273438 -46.488281 2.359375 -35.574219 2.359375 -22.90625 C 2.359375 -10.242188 13.273438 0.671875 25.941406 0.671875 C 38.605469 0.671875 49.519531 -10.242188 49.519531 -22.90625 Z M 49.519531 -22.90625 "/></g></g></g><g fill="#000000" fill-opacity="1"><g transform="translate(806.127995, 344.377972)"><g><path d="M 40.019531 0 L 40.019531 -45.816406 L 29.914062 -45.816406 L 29.914062 -17.25 L 14.148438 -45.816406 L 4.042969 -45.816406 L 4.042969 0 L 14.148438 0 L 14.148438 -28.566406 L 29.914062 0 Z M 40.019531 0 "/></g></g></g></svg>