<svg xmlns="http://www.w3.org/2000/svg" xmlns:xlink="http://www.w3.org/1999/xlink" width="1920" zoomAndPan="magnify" viewBox="0 0 1440 809.999993" height="1080" preserveAspectRatio="xMidYMid meet" version="1.0"><defs><g/></defs><rect x="-144" width="1728" fill="#ffffff" y="-80.999999" height="971.999992" fill-opacity="1"/><rect x="-144" width="1728" fill="#ebebeb" y="-80.999999" height="971.999992" fill-opacity="1"/><rect x="-144" width="1728" fill="#ffffff" y="-80.999999" height="971.999992" fill-opacity="1"/><rect x="-144" width="1728" fill="#ebebeb" y="-80.999999" height="971.999992" fill-opacity="1"/><g fill="#ff8d55" fill-opacity="0.4"><g transform="translate(523.752037, 316.479306)"><g><path d="M 39.839844 -96 L 8.398438 -96 L 8.398438 0 L 39.839844 0 C 65.160156 0 83.160156 -21.480469 83.160156 -48 C 83.160156 -74.519531 64.441406 -96 39.839844 -96 Z M 39.839844 -78.121094 C 54.121094 -78.121094 65.28125 -64.921875 65.28125 -48 C 65.28125 -39.359375 62.640625 -31.558594 57.601562 -25.921875 C 54.359375 -22.199219 48.71875 -17.878906 39.839844 -17.878906 L 26.28125 -17.878906 L 26.28125 -78.121094 Z M 39.839844 -78.121094 "/></g></g></g><g fill="#ff8d55" fill-opacity="0.4"><g transform="translate(615.31208, 316.479306)"><g><path d="M 65.039062 0 L 83.761719 0 L 55.558594 -95.761719 L 55.558594 -96 L 36.71875 -96 L 8.398438 0 L 27.238281 0 L 34.320312 -23.878906 L 57.960938 -23.878906 Z M 39.601562 -41.761719 L 46.199219 -64.078125 L 52.679688 -41.761719 Z M 39.601562 -41.761719 "/></g></g></g><g fill="#ff8d55" fill-opacity="0.4"><g transform="translate(707.472125, 316.479306)"><g><path d="M 80.519531 -96 L 8.398438 -96 L 8.398438 -78.121094 L 35.519531 -78.121094 L 35.519531 0 L 53.398438 0 L 53.398438 -78.121094 L 80.519531 -78.121094 Z M 80.519531 -96 "/></g></g></g><g fill="#ff8d55" fill-opacity="0.4"><g transform="translate(796.392176, 316.479306)"><g><path d="M 65.039062 0 L 83.761719 0 L 55.558594 -95.761719 L 55.558594 -96 L 36.71875 -96 L 8.398438 0 L 27.238281 0 L 34.320312 -23.878906 L 57.960938 -23.878906 Z M 39.601562 -41.761719 L 46.199219 -64.078125 L 52.679688 -41.761719 Z M 39.601562 -41.761719 "/></g></g></g><g fill="#cb6ce6" fill-opacity="1"><g transform="translate(530.75389, 313.791551)"><g><path d="M 39.839844 -96 L 8.398438 -96 L 8.398438 0 L 39.839844 0 C 65.160156 0 83.160156 -21.480469 83.160156 -48 C 83.160156 -74.519531 64.441406 -96 39.839844 -96 Z M 39.839844 -78.121094 C 54.121094 -78.121094 65.28125 -64.921875 65.28125 -48 C 65.28125 -39.359375 62.640625 -31.558594 57.601562 -25.921875 C 54.359375 -22.199219 48.71875 -17.878906 39.839844 -17.878906 L 26.28125 -17.878906 L 26.28125 -78.121094 Z M 39.839844 -78.121094 "/></g></g></g><g fill="#cb6ce6" fill-opacity="1"><g transform="translate(622.313932, 313.791551)"><g><path d="M 65.039062 0 L 83.761719 0 L 55.558594 -95.761719 L 55.558594 -96 L 36.71875 -96 L 8.398438 0 L 27.238281 0 L 34.320312 -23.878906 L 57.960938 -23.878906 Z M 39.601562 -41.761719 L 46.199219 -64.078125 L 52.679688 -41.761719 Z M 39.601562 -41.761719 "/></g></g></g><g fill="#cb6ce6" fill-opacity="1"><g transform="translate(714.473977, 313.791551)"><g><path d="M 80.519531 -96 L 8.398438 -96 L 8.398438 -78.121094 L 35.519531 -78.121094 L 35.519531 0 L 53.398438 0 L 53.398438 -78.121094 L 80.519531 -78.121094 Z M 80.519531 -96 "/></g></g></g><g fill="#cb6ce6" fill-opacity="1"><g transform="translate(803.394028, 313.791551)"><g><path d="M 65.039062 0 L 83.761719 0 L 55.558594 -95.761719 L 55.558594 -96 L 36.71875 -96 L 8.398438 0 L 27.238281 0 L 34.320312 -23.878906 L 57.960938 -23.878906 Z M 39.601562 -41.761719 L 46.199219 -64.078125 L 52.679688 -41.761719 Z M 39.601562 -41.761719 "/></g></g></g><g fill="#ff8d55" fill-opacity="0.4"><g transform="translate(122.10362, 424.479301)"><g><path d="M 78.71875 -26.761719 C 73.679688 -20.878906 66.238281 -17.28125 57.480469 -17.28125 C 40.558594 -17.28125 28.558594 -31.078125 28.558594 -48 C 28.558594 -64.921875 40.558594 -78.71875 57.480469 -78.71875 C 66.238281 -78.71875 73.679688 -75.121094 78.71875 -69.238281 L 92.28125 -82.679688 C 83.398438 -91.558594 71.039062 -97.078125 57.480469 -97.078125 C 30.359375 -97.078125 8.398438 -75.121094 8.398438 -48 C 8.398438 -20.878906 30.359375 1.078125 57.480469 1.078125 C 71.039062 1.078125 83.398438 -4.441406 92.28125 -13.320312 Z M 78.71875 -26.761719 "/></g></g></g><g fill="#ff8d55" fill-opacity="0.4"><g transform="translate(222.783665, 424.479301)"><g><path d="M 53.28125 -97.199219 C 26.160156 -97.199219 4.199219 -75.238281 4.199219 -48.121094 C 4.199219 -21 26.160156 0.960938 53.28125 0.960938 C 80.398438 0.960938 102.359375 -21 102.359375 -48.121094 C 102.359375 -75.238281 80.398438 -97.199219 53.28125 -97.199219 Z M 53.28125 -78.839844 C 70.320312 -78.839844 82.320312 -65.039062 82.320312 -48.121094 C 82.320312 -31.199219 70.320312 -17.398438 53.28125 -17.398438 C 36.359375 -17.398438 24.359375 -31.199219 24.359375 -48.121094 C 24.359375 -65.039062 36.359375 -78.839844 53.28125 -78.839844 Z M 53.28125 -78.839844 "/></g></g></g><g fill="#ff8d55" fill-opacity="0.4"><g transform="translate(329.343707, 424.479301)"><g><path d="M 88.320312 -96 L 68.640625 -96 L 48.359375 -47.640625 L 28.199219 -96 L 8.398438 -96 L 8.398438 0 L 26.398438 0 L 26.398438 -53.039062 L 38.519531 -24.121094 L 58.199219 -24.121094 L 70.441406 -53.28125 L 70.441406 0 L 88.320312 0 Z M 88.320312 -96 "/></g></g></g><g fill="#ff8d55" fill-opacity="0.4"><g transform="translate(426.063764, 424.479301)"><g><path d="M 88.320312 -96 L 68.640625 -96 L 48.359375 -47.640625 L 28.199219 -96 L 8.398438 -96 L 8.398438 0 L 26.398438 0 L 26.398438 -53.039062 L 38.519531 -24.121094 L 58.199219 -24.121094 L 70.441406 -53.28125 L 70.441406 0 L 88.320312 0 Z M 88.320312 -96 "/></g></g></g><g fill="#ff8d55" fill-opacity="0.4"><g transform="translate(522.783822, 424.479301)"><g><path d="M 63.601562 -96 L 63.601562 -33.238281 C 63.601562 -23.519531 55.800781 -15.71875 46.199219 -15.71875 L 43.800781 -15.71875 C 34.199219 -15.71875 26.398438 -23.519531 26.398438 -33.238281 L 26.398438 -96 L 8.398438 -96 L 8.398438 -33.238281 C 8.398438 -13.800781 24.359375 2.160156 43.800781 2.160156 L 46.199219 2.160156 C 65.640625 2.160156 81.480469 -13.800781 81.480469 -33.238281 L 81.480469 -96 Z M 63.601562 -96 "/></g></g></g><g fill="#ff8d55" fill-opacity="0.4"><g transform="translate(612.663837, 424.479301)"><g><path d="M 65.398438 -96 L 65.398438 -31.199219 L 28.078125 -96 L 8.398438 -96 L 8.398438 0 L 26.398438 0 L 26.398438 -60.121094 L 60.960938 0 L 83.398438 0 L 83.398438 -96 Z M 65.398438 -96 "/></g></g></g><g fill="#ff8d55" fill-opacity="0.4"><g transform="translate(704.463896, 424.479301)"><g><path d="M 8.398438 -96 L 26.398438 -96 L 26.398438 -0.359375 L 8.398438 -0.359375 Z M 8.398438 -96 "/></g></g></g><g fill="#ff8d55" fill-opacity="0.4"><g transform="translate(739.263913, 424.479301)"><g><path d="M 78.71875 -26.761719 C 73.679688 -20.878906 66.238281 -17.28125 57.480469 -17.28125 C 40.558594 -17.28125 28.558594 -31.078125 28.558594 -48 C 28.558594 -64.921875 40.558594 -78.71875 57.480469 -78.71875 C 66.238281 -78.71875 73.679688 -75.121094 78.71875 -69.238281 L 92.28125 -82.679688 C 83.398438 -91.558594 71.039062 -97.078125 57.480469 -97.078125 C 30.359375 -97.078125 8.398438 -75.121094 8.398438 -48 C 8.398438 -20.878906 30.359375 1.078125 57.480469 1.078125 C 71.039062 1.078125 83.398438 -4.441406 92.28125 -13.320312 Z M 78.71875 -26.761719 "/></g></g></g><g fill="#ff8d55" fill-opacity="0.4"><g transform="translate(839.943946, 424.479301)"><g><path d="M 65.039062 0 L 83.761719 0 L 55.558594 -95.761719 L 55.558594 -96 L 36.71875 -96 L 8.398438 0 L 27.238281 0 L 34.320312 -23.878906 L 57.960938 -23.878906 Z M 39.601562 -41.761719 L 46.199219 -64.078125 L 52.679688 -41.761719 Z M 39.601562 -41.761719 "/></g></g></g><g fill="#ff8d55" fill-opacity="0.4"><g transform="translate(932.103945, 424.479301)"><g><path d="M 80.519531 -96 L 8.398438 -96 L 8.398438 -78.121094 L 35.519531 -78.121094 L 35.519531 0 L 53.398438 0 L 53.398438 -78.121094 L 80.519531 -78.121094 Z M 80.519531 -96 "/></g></g></g><g fill="#ff8d55" fill-opacity="0.4"><g transform="translate(1021.023985, 424.479301)"><g><path d="M 8.398438 -96 L 26.398438 -96 L 26.398438 -0.359375 L 8.398438 -0.359375 Z M 8.398438 -96 "/></g></g></g><g fill="#ff8d55" fill-opacity="0.4"><g transform="translate(1055.824001, 424.479301)"><g><path d="M 53.28125 -97.199219 C 26.160156 -97.199219 4.199219 -75.238281 4.199219 -48.121094 C 4.199219 -21 26.160156 0.960938 53.28125 0.960938 C 80.398438 0.960938 102.359375 -21 102.359375 -48.121094 C 102.359375 -75.238281 80.398438 -97.199219 53.28125 -97.199219 Z M 53.28125 -78.839844 C 70.320312 -78.839844 82.320312 -65.039062 82.320312 -48.121094 C 82.320312 -31.199219 70.320312 -17.398438 53.28125 -17.398438 C 36.359375 -17.398438 24.359375 -31.199219 24.359375 -48.121094 C 24.359375 -65.039062 36.359375 -78.839844 53.28125 -78.839844 Z M 53.28125 -78.839844 "/></g></g></g><g fill="#ff8d55" fill-opacity="0.4"><g transform="translate(1162.384054, 424.479301)"><g><path d="M 65.398438 -96 L 65.398438 -31.199219 L 28.078125 -96 L 8.398438 -96 L 8.398438 0 L 26.398438 0 L 26.398438 -60.121094 L 60.960938 0 L 83.398438 0 L 83.398438 -96 Z M 65.398438 -96 "/></g></g></g><g fill="#cb6ce6" fill-opacity="1"><g transform="translate(129.105472, 421.791546)"><g><path d="M 78.71875 -26.761719 C 73.679688 -20.878906 66.238281 -17.28125 57.480469 -17.28125 C 40.558594 -17.28125 28.558594 -31.078125 28.558594 -48 C 28.558594 -64.921875 40.558594 -78.71875 57.480469 -78.71875 C 66.238281 -78.71875 73.679688 -75.121094 78.71875 -69.238281 L 92.28125 -82.679688 C 83.398438 -91.558594 71.039062 -97.078125 57.480469 -97.078125 C 30.359375 -97.078125 8.398438 -75.121094 8.398438 -48 C 8.398438 -20.878906 30.359375 1.078125 57.480469 1.078125 C 71.039062 1.078125 83.398438 -4.441406 92.28125 -13.320312 Z M 78.71875 -26.761719 "/></g></g></g><g fill="#cb6ce6" fill-opacity="1"><g transform="translate(229.785517, 421.791546)"><g><path d="M 53.28125 -97.199219 C 26.160156 -97.199219 4.199219 -75.238281 4.199219 -48.121094 C 4.199219 -21 26.160156 0.960938 53.28125 0.960938 C 80.398438 0.960938 102.359375 -21 102.359375 -48.121094 C 102.359375 -75.238281 80.398438 -97.199219 53.28125 -97.199219 Z M 53.28125 -78.839844 C 70.320312 -78.839844 82.320312 -65.039062 82.320312 -48.121094 C 82.320312 -31.199219 70.320312 -17.398438 53.28125 -17.398438 C 36.359375 -17.398438 24.359375 -31.199219 24.359375 -48.121094 C 24.359375 -65.039062 36.359375 -78.839844 53.28125 -78.839844 Z M 53.28125 -78.839844 "/></g></g></g><g fill="#cb6ce6" fill-opacity="1"><g transform="translate(336.345559, 421.791546)"><g><path d="M 88.320312 -96 L 68.640625 -96 L 48.359375 -47.640625 L 28.199219 -96 L 8.398438 -96 L 8.398438 0 L 26.398438 0 L 26.398438 -53.039062 L 38.519531 -24.121094 L 58.199219 -24.121094 L 70.441406 -53.28125 L 70.441406 0 L 88.320312 0 Z M 88.320312 -96 "/></g></g></g><g fill="#cb6ce6" fill-opacity="1"><g transform="translate(433.065617, 421.791546)"><g><path d="M 88.320312 -96 L 68.640625 -96 L 48.359375 -47.640625 L 28.199219 -96 L 8.398438 -96 L 8.398438 0 L 26.398438 0 L 26.398438 -53.039062 L 38.519531 -24.121094 L 58.199219 -24.121094 L 70.441406 -53.28125 L 70.441406 0 L 88.320312 0 Z M 88.320312 -96 "/></g></g></g><g fill="#cb6ce6" fill-opacity="1"><g transform="translate(529.785674, 421.791546)"><g><path d="M 63.601562 -96 L 63.601562 -33.238281 C 63.601562 -23.519531 55.800781 -15.71875 46.199219 -15.71875 L 43.800781 -15.71875 C 34.199219 -15.71875 26.398438 -23.519531 26.398438 -33.238281 L 26.398438 -96 L 8.398438 -96 L 8.398438 -33.238281 C 8.398438 -13.800781 24.359375 2.160156 43.800781 2.160156 L 46.199219 2.160156 C 65.640625 2.160156 81.480469 -13.800781 81.480469 -33.238281 L 81.480469 -96 Z M 63.601562 -96 "/></g></g></g><g fill="#cb6ce6" fill-opacity="1"><g transform="translate(619.66569, 421.791546)"><g><path d="M 65.398438 -96 L 65.398438 -31.199219 L 28.078125 -96 L 8.398438 -96 L 8.398438 0 L 26.398438 0 L 26.398438 -60.121094 L 60.960938 0 L 83.398438 0 L 83.398438 -96 Z M 65.398438 -96 "/></g></g></g><g fill="#cb6ce6" fill-opacity="1"><g transform="translate(711.465749, 421.791546)"><g><path d="M 8.398438 -96 L 26.398438 -96 L 26.398438 -0.359375 L 8.398438 -0.359375 Z M 8.398438 -96 "/></g></g></g><g fill="#cb6ce6" fill-opacity="1"><g transform="translate(746.265765, 421.791546)"><g><path d="M 78.71875 -26.761719 C 73.679688 -20.878906 66.238281 -17.28125 57.480469 -17.28125 C 40.558594 -17.28125 28.558594 -31.078125 28.558594 -48 C 28.558594 -64.921875 40.558594 -78.71875 57.480469 -78.71875 C 66.238281 -78.71875 73.679688 -75.121094 78.71875 -69.238281 L 92.28125 -82.679688 C 83.398438 -91.558594 71.039062 -97.078125 57.480469 -97.078125 C 30.359375 -97.078125 8.398438 -75.121094 8.398438 -48 C 8.398438 -20.878906 30.359375 1.078125 57.480469 1.078125 C 71.039062 1.078125 83.398438 -4.441406 92.28125 -13.320312 Z M 78.71875 -26.761719 "/></g></g></g><g fill="#cb6ce6" fill-opacity="1"><g transform="translate(846.945798, 421.791546)"><g><path d="M 65.039062 0 L 83.761719 0 L 55.558594 -95.761719 L 55.558594 -96 L 36.71875 -96 L 8.398438 0 L 27.238281 0 L 34.320312 -23.878906 L 57.960938 -23.878906 Z M 39.601562 -41.761719 L 46.199219 -64.078125 L 52.679688 -41.761719 Z M 39.601562 -41.761719 "/></g></g></g><g fill="#cb6ce6" fill-opacity="1"><g transform="translate(939.105797, 421.791546)"><g><path d="M 80.519531 -96 L 8.398438 -96 L 8.398438 -78.121094 L 35.519531 -78.121094 L 35.519531 0 L 53.398438 0 L 53.398438 -78.121094 L 80.519531 -78.121094 Z M 80.519531 -96 "/></g></g></g><g fill="#cb6ce6" fill-opacity="1"><g transform="translate(1028.025837, 421.791546)"><g><path d="M 8.398438 -96 L 26.398438 -96 L 26.398438 -0.359375 L 8.398438 -0.359375 Z M 8.398438 -96 "/></g></g></g><g fill="#cb6ce6" fill-opacity="1"><g transform="translate(1062.825854, 421.791546)"><g><path d="M 53.28125 -97.199219 C 26.160156 -97.199219 4.199219 -75.238281 4.199219 -48.121094 C 4.199219 -21 26.160156 0.960938 53.28125 0.960938 C 80.398438 0.960938 102.359375 -21 102.359375 -48.121094 C 102.359375 -75.238281 80.398438 -97.199219 53.28125 -97.199219 Z M 53.28125 -78.839844 C 70.320312 -78.839844 82.320312 -65.039062 82.320312 -48.121094 C 82.320312 -31.199219 70.320312 -17.398438 53.28125 -17.398438 C 36.359375 -17.398438 24.359375 -31.199219 24.359375 -48.121094 C 24.359375 -65.039062 36.359375 -78.839844 53.28125 -78.839844 Z M 53.28125 -78.839844 "/></g></g></g><g fill="#cb6ce6" fill-opacity="1"><g transform="translate(1169.385907, 421.791546)"><g><path d="M 65.398438 -96 L 65.398438 -31.199219 L 28.078125 -96 L 8.398438 -96 L 8.398438 0 L 26.398438 0 L 26.398438 -60.121094 L 60.960938 0 L 83.398438 0 L 83.398438 -96 Z M 65.398438 -96 "/></g></g></g><g fill="#ff8d55" fill-opacity="0.4"><g transform="translate(1254.181665, 424.479301)"><g/></g></g><g fill="#cb6ce6" fill-opacity="1"><g transform="translate(1261.183518, 421.791546)"><g/></g></g></svg>