<svg xmlns="http://www.w3.org/2000/svg" xmlns:xlink="http://www.w3.org/1999/xlink" width="1920" zoomAndPan="magnify" viewBox="0 0 1440 809.999993" height="1080" preserveAspectRatio="xMidYMid meet" version="1.0"><defs><g/></defs><rect x="-144" width="1728" fill="#ffffff" y="-80.999999" height="971.999992" fill-opacity="1"/><rect x="-144" width="1728" fill="#ebebeb" y="-80.999999" height="971.999992" fill-opacity="1"/><rect x="-144" width="1728" fill="#ffffff" y="-80.999999" height="971.999992" fill-opacity="1"/><rect x="-144" width="1728" fill="#ebebeb" y="-80.999999" height="971.999992" fill-opacity="1"/><g fill="#ff8d55" fill-opacity="0.4"><g transform="translate(389.173919, 316.479306)"><g><path d="M 65.039062 0 L 83.761719 0 L 55.558594 -95.761719 L 55.558594 -96 L 36.71875 -96 L 8.398438 0 L 27.238281 0 L 34.320312 -23.878906 L 57.960938 -23.878906 Z M 39.601562 -41.761719 L 46.199219 -64.078125 L 52.679688 -41.761719 Z M 39.601562 -41.761719 "/></g></g></g><g fill="#ff8d55" fill-opacity="0.4"><g transform="translate(481.333964, 316.479306)"><g><path d="M 39.839844 -96 L 8.398438 -96 L 8.398438 0 L 39.839844 0 C 65.160156 0 83.160156 -21.480469 83.160156 -48 C 83.160156 -74.519531 64.441406 -96 39.839844 -96 Z M 39.839844 -78.121094 C 54.121094 -78.121094 65.28125 -64.921875 65.28125 -48 C 65.28125 -39.359375 62.640625 -31.558594 57.601562 -25.921875 C 54.359375 -22.199219 48.71875 -17.878906 39.839844 -17.878906 L 26.28125 -17.878906 L 26.28125 -78.121094 Z M 39.839844 -78.121094 "/></g></g></g><g fill="#ff8d55" fill-opacity="0.4"><g transform="translate(572.894006, 316.479306)"><g><path d="M 65.039062 -96 L 46.558594 -33.359375 L 28.078125 -96 L 8.398438 -96 L 36.71875 0 L 56.398438 0 L 84.71875 -96 Z M 65.039062 -96 "/></g></g></g><g fill="#ff8d55" fill-opacity="0.4"><g transform="translate(666.014038, 316.479306)"><g><path d="M 65.039062 0 L 83.761719 0 L 55.558594 -95.761719 L 55.558594 -96 L 36.71875 -96 L 8.398438 0 L 27.238281 0 L 34.320312 -23.878906 L 57.960938 -23.878906 Z M 39.601562 -41.761719 L 46.199219 -64.078125 L 52.679688 -41.761719 Z M 39.601562 -41.761719 "/></g></g></g><g fill="#ff8d55" fill-opacity="0.4"><g transform="translate(758.174083, 316.479306)"><g><path d="M 65.398438 -96 L 65.398438 -31.199219 L 28.078125 -96 L 8.398438 -96 L 8.398438 0 L 26.398438 0 L 26.398438 -60.121094 L 60.960938 0 L 83.398438 0 L 83.398438 -96 Z M 65.398438 -96 "/></g></g></g><g fill="#ff8d55" fill-opacity="0.4"><g transform="translate(849.974142, 316.479306)"><g><path d="M 78.71875 -26.761719 C 73.679688 -20.878906 66.238281 -17.28125 57.480469 -17.28125 C 40.558594 -17.28125 28.558594 -31.078125 28.558594 -48 C 28.558594 -64.921875 40.558594 -78.71875 57.480469 -78.71875 C 66.238281 -78.71875 73.679688 -75.121094 78.71875 -69.238281 L 92.28125 -82.679688 C 83.398438 -91.558594 71.039062 -97.078125 57.480469 -97.078125 C 30.359375 -97.078125 8.398438 -75.121094 8.398438 -48 C 8.398438 -20.878906 30.359375 1.078125 57.480469 1.078125 C 71.039062 1.078125 83.398438 -4.441406 92.28125 -13.320312 Z M 78.71875 -26.761719 "/></g></g></g><g fill="#ff8d55" fill-opacity="0.4"><g transform="translate(950.654176, 316.479306)"><g><path d="M 64.078125 -78.238281 L 64.078125 -96.121094 L 8.398438 -96.121094 L 8.398438 0 L 64.078125 0 L 64.078125 -17.878906 L 26.398438 -17.878906 L 26.398438 -39.238281 L 48.839844 -39.238281 L 48.839844 -57.121094 L 26.398438 -57.121094 L 26.398438 -78.238281 Z M 64.078125 -78.238281 "/></g></g></g><g fill="#cb6ce6" fill-opacity="1"><g transform="translate(396.175771, 313.791551)"><g><path d="M 65.039062 0 L 83.761719 0 L 55.558594 -95.761719 L 55.558594 -96 L 36.71875 -96 L 8.398438 0 L 27.238281 0 L 34.320312 -23.878906 L 57.960938 -23.878906 Z M 39.601562 -41.761719 L 46.199219 -64.078125 L 52.679688 -41.761719 Z M 39.601562 -41.761719 "/></g></g></g><g fill="#cb6ce6" fill-opacity="1"><g transform="translate(488.335816, 313.791551)"><g><path d="M 39.839844 -96 L 8.398438 -96 L 8.398438 0 L 39.839844 0 C 65.160156 0 83.160156 -21.480469 83.160156 -48 C 83.160156 -74.519531 64.441406 -96 39.839844 -96 Z M 39.839844 -78.121094 C 54.121094 -78.121094 65.28125 -64.921875 65.28125 -48 C 65.28125 -39.359375 62.640625 -31.558594 57.601562 -25.921875 C 54.359375 -22.199219 48.71875 -17.878906 39.839844 -17.878906 L 26.28125 -17.878906 L 26.28125 -78.121094 Z M 39.839844 -78.121094 "/></g></g></g><g fill="#cb6ce6" fill-opacity="1"><g transform="translate(579.895859, 313.791551)"><g><path d="M 65.039062 -96 L 46.558594 -33.359375 L 28.078125 -96 L 8.398438 -96 L 36.71875 0 L 56.398438 0 L 84.71875 -96 Z M 65.039062 -96 "/></g></g></g><g fill="#cb6ce6" fill-opacity="1"><g transform="translate(673.015891, 313.791551)"><g><path d="M 65.039062 0 L 83.761719 0 L 55.558594 -95.761719 L 55.558594 -96 L 36.71875 -96 L 8.398438 0 L 27.238281 0 L 34.320312 -23.878906 L 57.960938 -23.878906 Z M 39.601562 -41.761719 L 46.199219 -64.078125 L 52.679688 -41.761719 Z M 39.601562 -41.761719 "/></g></g></g><g fill="#cb6ce6" fill-opacity="1"><g transform="translate(765.175936, 313.791551)"><g><path d="M 65.398438 -96 L 65.398438 -31.199219 L 28.078125 -96 L 8.398438 -96 L 8.398438 0 L 26.398438 0 L 26.398438 -60.121094 L 60.960938 0 L 83.398438 0 L 83.398438 -96 Z M 65.398438 -96 "/></g></g></g><g fill="#cb6ce6" fill-opacity="1"><g transform="translate(856.975995, 313.791551)"><g><path d="M 78.71875 -26.761719 C 73.679688 -20.878906 66.238281 -17.28125 57.480469 -17.28125 C 40.558594 -17.28125 28.558594 -31.078125 28.558594 -48 C 28.558594 -64.921875 40.558594 -78.71875 57.480469 -78.71875 C 66.238281 -78.71875 73.679688 -75.121094 78.71875 -69.238281 L 92.28125 -82.679688 C 83.398438 -91.558594 71.039062 -97.078125 57.480469 -97.078125 C 30.359375 -97.078125 8.398438 -75.121094 8.398438 -48 C 8.398438 -20.878906 30.359375 1.078125 57.480469 1.078125 C 71.039062 1.078125 83.398438 -4.441406 92.28125 -13.320312 Z M 78.71875 -26.761719 "/></g></g></g><g fill="#cb6ce6" fill-opacity="1"><g transform="translate(957.656028, 313.791551)"><g><path d="M 64.078125 -78.238281 L 64.078125 -96.121094 L 8.398438 -96.121094 L 8.398438 0 L 64.078125 0 L 64.078125 -17.878906 L 26.398438 -17.878906 L 26.398438 -39.238281 L 48.839844 -39.238281 L 48.839844 -57.121094 L 26.398438 -57.121094 L 26.398438 -78.238281 Z M 64.078125 -78.238281 "/></g></g></g><g fill="#ff8d55" fill-opacity="0.4"><g transform="translate(196.505956, 424.479301)"><g><path d="M 88.320312 -96 L 68.640625 -96 L 48.359375 -47.640625 L 28.199219 -96 L 8.398438 -96 L 8.398438 0 L 26.398438 0 L 26.398438 -53.039062 L 38.519531 -24.121094 L 58.199219 -24.121094 L 70.441406 -53.28125 L 70.441406 0 L 88.320312 0 Z M 88.320312 -96 "/></g></g></g><g fill="#ff8d55" fill-opacity="0.4"><g transform="translate(293.226002, 424.479301)"><g><path d="M 65.039062 0 L 83.761719 0 L 55.558594 -95.761719 L 55.558594 -96 L 36.71875 -96 L 8.398438 0 L 27.238281 0 L 34.320312 -23.878906 L 57.960938 -23.878906 Z M 39.601562 -41.761719 L 46.199219 -64.078125 L 52.679688 -41.761719 Z M 39.601562 -41.761719 "/></g></g></g><g fill="#ff8d55" fill-opacity="0.4"><g transform="translate(385.386047, 424.479301)"><g><path d="M 80.519531 -96 L 8.398438 -96 L 8.398438 -78.121094 L 35.519531 -78.121094 L 35.519531 0 L 53.398438 0 L 53.398438 -78.121094 L 80.519531 -78.121094 Z M 80.519531 -96 "/></g></g></g><g fill="#ff8d55" fill-opacity="0.4"><g transform="translate(474.306098, 424.479301)"><g><path d="M 65.398438 -95.28125 L 65.398438 -51.480469 L 26.398438 -51.480469 L 26.398438 -95.28125 L 8.398438 -95.28125 L 8.398438 0.839844 L 26.398438 0.839844 L 26.398438 -33.601562 L 65.398438 -33.601562 L 65.398438 0.839844 L 83.28125 0.839844 L 83.28125 -95.28125 Z M 65.398438 -95.28125 "/></g></g></g><g fill="#ff8d55" fill-opacity="0.4"><g transform="translate(565.986132, 424.479301)"><g><path d="M 64.078125 -78.238281 L 64.078125 -96.121094 L 8.398438 -96.121094 L 8.398438 0 L 64.078125 0 L 64.078125 -17.878906 L 26.398438 -17.878906 L 26.398438 -39.238281 L 48.839844 -39.238281 L 48.839844 -57.121094 L 26.398438 -57.121094 L 26.398438 -78.238281 Z M 64.078125 -78.238281 "/></g></g></g><g fill="#ff8d55" fill-opacity="0.4"><g transform="translate(638.466139, 424.479301)"><g><path d="M 88.320312 -96 L 68.640625 -96 L 48.359375 -47.640625 L 28.199219 -96 L 8.398438 -96 L 8.398438 0 L 26.398438 0 L 26.398438 -53.039062 L 38.519531 -24.121094 L 58.199219 -24.121094 L 70.441406 -53.28125 L 70.441406 0 L 88.320312 0 Z M 88.320312 -96 "/></g></g></g><g fill="#ff8d55" fill-opacity="0.4"><g transform="translate(735.186197, 424.479301)"><g><path d="M 65.039062 0 L 83.761719 0 L 55.558594 -95.761719 L 55.558594 -96 L 36.71875 -96 L 8.398438 0 L 27.238281 0 L 34.320312 -23.878906 L 57.960938 -23.878906 Z M 39.601562 -41.761719 L 46.199219 -64.078125 L 52.679688 -41.761719 Z M 39.601562 -41.761719 "/></g></g></g><g fill="#ff8d55" fill-opacity="0.4"><g transform="translate(827.346241, 424.479301)"><g><path d="M 80.519531 -96 L 8.398438 -96 L 8.398438 -78.121094 L 35.519531 -78.121094 L 35.519531 0 L 53.398438 0 L 53.398438 -78.121094 L 80.519531 -78.121094 Z M 80.519531 -96 "/></g></g></g><g fill="#ff8d55" fill-opacity="0.4"><g transform="translate(916.266281, 424.479301)"><g><path d="M 8.398438 -96 L 26.398438 -96 L 26.398438 -0.359375 L 8.398438 -0.359375 Z M 8.398438 -96 "/></g></g></g><g fill="#ff8d55" fill-opacity="0.4"><g transform="translate(951.066297, 424.479301)"><g><path d="M 78.71875 -26.761719 C 73.679688 -20.878906 66.238281 -17.28125 57.480469 -17.28125 C 40.558594 -17.28125 28.558594 -31.078125 28.558594 -48 C 28.558594 -64.921875 40.558594 -78.71875 57.480469 -78.71875 C 66.238281 -78.71875 73.679688 -75.121094 78.71875 -69.238281 L 92.28125 -82.679688 C 83.398438 -91.558594 71.039062 -97.078125 57.480469 -97.078125 C 30.359375 -97.078125 8.398438 -75.121094 8.398438 -48 C 8.398438 -20.878906 30.359375 1.078125 57.480469 1.078125 C 71.039062 1.078125 83.398438 -4.441406 92.28125 -13.320312 Z M 78.71875 -26.761719 "/></g></g></g><g fill="#ff8d55" fill-opacity="0.4"><g transform="translate(1051.746331, 424.479301)"><g><path d="M 48.238281 1.199219 L 50.398438 1.199219 C 71.039062 1.078125 82.800781 -12.359375 83.640625 -25.679688 C 84.601562 -39.601562 74.039062 -55.199219 48.601562 -58.441406 L 48.359375 -58.441406 C 39.121094 -59.519531 29.519531 -64.078125 30 -70.800781 C 30.359375 -75.601562 37.558594 -80.039062 50.640625 -79.441406 L 51 -79.441406 C 58.199219 -79.441406 66.839844 -75.960938 71.28125 -72.71875 L 81.601562 -87.121094 C 74.761719 -92.039062 62.761719 -97.078125 51.238281 -97.078125 C 25.800781 -98.398438 13.441406 -85.441406 12.359375 -72.238281 C 11.761719 -64.558594 15 -57 21.238281 -51.238281 C 27.359375 -45.601562 36.121094 -42 46.441406 -40.921875 C 60.480469 -39 66.359375 -32.519531 66 -26.878906 C 65.640625 -21.71875 60.121094 -16.558594 50.160156 -16.558594 L 49.558594 -16.558594 C 49.441406 -16.558594 36.359375 -15.839844 28.320312 -22.441406 C 26.28125 -24 24.601562 -25.921875 23.039062 -28.199219 L 8.398438 -18.238281 C 10.800781 -14.640625 13.800781 -11.398438 17.160156 -8.640625 C 28.078125 0.238281 42.480469 1.199219 48.238281 1.199219 Z M 48.238281 1.199219 "/></g></g></g><g fill="#cb6ce6" fill-opacity="1"><g transform="translate(203.507808, 421.791546)"><g><path d="M 88.320312 -96 L 68.640625 -96 L 48.359375 -47.640625 L 28.199219 -96 L 8.398438 -96 L 8.398438 0 L 26.398438 0 L 26.398438 -53.039062 L 38.519531 -24.121094 L 58.199219 -24.121094 L 70.441406 -53.28125 L 70.441406 0 L 88.320312 0 Z M 88.320312 -96 "/></g></g></g><g fill="#cb6ce6" fill-opacity="1"><g transform="translate(300.227855, 421.791546)"><g><path d="M 65.039062 0 L 83.761719 0 L 55.558594 -95.761719 L 55.558594 -96 L 36.71875 -96 L 8.398438 0 L 27.238281 0 L 34.320312 -23.878906 L 57.960938 -23.878906 Z M 39.601562 -41.761719 L 46.199219 -64.078125 L 52.679688 -41.761719 Z M 39.601562 -41.761719 "/></g></g></g><g fill="#cb6ce6" fill-opacity="1"><g transform="translate(392.387899, 421.791546)"><g><path d="M 80.519531 -96 L 8.398438 -96 L 8.398438 -78.121094 L 35.519531 -78.121094 L 35.519531 0 L 53.398438 0 L 53.398438 -78.121094 L 80.519531 -78.121094 Z M 80.519531 -96 "/></g></g></g><g fill="#cb6ce6" fill-opacity="1"><g transform="translate(481.307951, 421.791546)"><g><path d="M 65.398438 -95.28125 L 65.398438 -51.480469 L 26.398438 -51.480469 L 26.398438 -95.28125 L 8.398438 -95.28125 L 8.398438 0.839844 L 26.398438 0.839844 L 26.398438 -33.601562 L 65.398438 -33.601562 L 65.398438 0.839844 L 83.28125 0.839844 L 83.28125 -95.28125 Z M 65.398438 -95.28125 "/></g></g></g><g fill="#cb6ce6" fill-opacity="1"><g transform="translate(572.987984, 421.791546)"><g><path d="M 64.078125 -78.238281 L 64.078125 -96.121094 L 8.398438 -96.121094 L 8.398438 0 L 64.078125 0 L 64.078125 -17.878906 L 26.398438 -17.878906 L 26.398438 -39.238281 L 48.839844 -39.238281 L 48.839844 -57.121094 L 26.398438 -57.121094 L 26.398438 -78.238281 Z M 64.078125 -78.238281 "/></g></g></g><g fill="#cb6ce6" fill-opacity="1"><g transform="translate(645.467992, 421.791546)"><g><path d="M 88.320312 -96 L 68.640625 -96 L 48.359375 -47.640625 L 28.199219 -96 L 8.398438 -96 L 8.398438 0 L 26.398438 0 L 26.398438 -53.039062 L 38.519531 -24.121094 L 58.199219 -24.121094 L 70.441406 -53.28125 L 70.441406 0 L 88.320312 0 Z M 88.320312 -96 "/></g></g></g><g fill="#cb6ce6" fill-opacity="1"><g transform="translate(742.188049, 421.791546)"><g><path d="M 65.039062 0 L 83.761719 0 L 55.558594 -95.761719 L 55.558594 -96 L 36.71875 -96 L 8.398438 0 L 27.238281 0 L 34.320312 -23.878906 L 57.960938 -23.878906 Z M 39.601562 -41.761719 L 46.199219 -64.078125 L 52.679688 -41.761719 Z M 39.601562 -41.761719 "/></g></g></g><g fill="#cb6ce6" fill-opacity="1"><g transform="translate(834.348094, 421.791546)"><g><path d="M 80.519531 -96 L 8.398438 -96 L 8.398438 -78.121094 L 35.519531 -78.121094 L 35.519531 0 L 53.398438 0 L 53.398438 -78.121094 L 80.519531 -78.121094 Z M 80.519531 -96 "/></g></g></g><g fill="#cb6ce6" fill-opacity="1"><g transform="translate(923.268134, 421.791546)"><g><path d="M 8.398438 -96 L 26.398438 -96 L 26.398438 -0.359375 L 8.398438 -0.359375 Z M 8.398438 -96 "/></g></g></g><g fill="#cb6ce6" fill-opacity="1"><g transform="translate(958.06815, 421.791546)"><g><path d="M 78.71875 -26.761719 C 73.679688 -20.878906 66.238281 -17.28125 57.480469 -17.28125 C 40.558594 -17.28125 28.558594 -31.078125 28.558594 -48 C 28.558594 -64.921875 40.558594 -78.71875 57.480469 -78.71875 C 66.238281 -78.71875 73.679688 -75.121094 78.71875 -69.238281 L 92.28125 -82.679688 C 83.398438 -91.558594 71.039062 -97.078125 57.480469 -97.078125 C 30.359375 -97.078125 8.398438 -75.121094 8.398438 -48 C 8.398438 -20.878906 30.359375 1.078125 57.480469 1.078125 C 71.039062 1.078125 83.398438 -4.441406 92.28125 -13.320312 Z M 78.71875 -26.761719 "/></g></g></g><g fill="#cb6ce6" fill-opacity="1"><g transform="translate(1058.748183, 421.791546)"><g><path d="M 48.238281 1.199219 L 50.398438 1.199219 C 71.039062 1.078125 82.800781 -12.359375 83.640625 -25.679688 C 84.601562 -39.601562 74.039062 -55.199219 48.601562 -58.441406 L 48.359375 -58.441406 C 39.121094 -59.519531 29.519531 -64.078125 30 -70.800781 C 30.359375 -75.601562 37.558594 -80.039062 50.640625 -79.441406 L 51 -79.441406 C 58.199219 -79.441406 66.839844 -75.960938 71.28125 -72.71875 L 81.601562 -87.121094 C 74.761719 -92.039062 62.761719 -97.078125 51.238281 -97.078125 C 25.800781 -98.398438 13.441406 -85.441406 12.359375 -72.238281 C 11.761719 -64.558594 15 -57 21.238281 -51.238281 C 27.359375 -45.601562 36.121094 -42 46.441406 -40.921875 C 60.480469 -39 66.359375 -32.519531 66 -26.878906 C 65.640625 -21.71875 60.121094 -16.558594 50.160156 -16.558594 L 49.558594 -16.558594 C 49.441406 -16.558594 36.359375 -15.839844 28.320312 -22.441406 C 26.28125 -24 24.601562 -25.921875 23.039062 -28.199219 L 8.398438 -18.238281 C 10.800781 -14.640625 13.800781 -11.398438 17.160156 -8.640625 C 28.078125 0.238281 42.480469 1.199219 48.238281 1.199219 Z M 48.238281 1.199219 "/></g></g></g><g fill="#ff8d55" fill-opacity="0.4"><g transform="translate(1143.779346, 424.479301)"><g/></g></g><g fill="#ff8d55" fill-opacity="0.4"><g transform="translate(1179.779367, 424.479301)"><g/></g></g><g fill="#cb6ce6" fill-opacity="1"><g transform="translate(1150.781198, 421.791546)"><g/></g></g><g fill="#cb6ce6" fill-opacity="1"><g transform="translate(1186.78122, 421.791546)"><g/></g></g></svg>