<svg xmlns="http://www.w3.org/2000/svg" xmlns:xlink="http://www.w3.org/1999/xlink" width="1920" zoomAndPan="magnify" viewBox="0 0 1440 809.999993" height="1080" preserveAspectRatio="xMidYMid meet" version="1.0"><defs><g/></defs><rect x="-144" width="1728" fill="#ffffff" y="-80.999999" height="971.999992" fill-opacity="1"/><rect x="-144" width="1728" fill="#ebebeb" y="-80.999999" height="971.999992" fill-opacity="1"/><rect x="-144" width="1728" fill="#ffffff" y="-80.999999" height="971.999992" fill-opacity="1"/><rect x="-144" width="1728" fill="#ebebeb" y="-80.999999" height="971.999992" fill-opacity="1"/><g fill="#ff8d55" fill-opacity="0.4"><g transform="translate(237.648875, 316.966365)"><g/></g></g><g fill="#ff8d55" fill-opacity="0.4"><g transform="translate(273.994554, 316.966365)"><g/></g></g><g fill="#ff8d55" fill-opacity="0.4"><g transform="translate(310.340234, 316.966365)"><g/></g></g><g fill="#cb6ce6" fill-opacity="1"><g transform="translate(244.717957, 314.2528)"><g/></g></g><g fill="#cb6ce6" fill-opacity="1"><g transform="translate(281.063636, 314.2528)"><g/></g></g><g fill="#cb6ce6" fill-opacity="1"><g transform="translate(317.409315, 314.2528)"><g/></g></g><g fill="#ff8d55" fill-opacity="0.4"><g transform="translate(346.685842, 316.966365)"><g><path d="M 65.664062 0 L 84.5625 0 L 56.09375 -96.679688 L 56.09375 -96.921875 L 37.074219 -96.921875 L 8.480469 0 L 27.5 0 L 34.648438 -24.109375 L 58.515625 -24.109375 Z M 39.980469 -42.160156 L 46.644531 -64.695312 L 53.1875 -42.160156 Z M 39.980469 -42.160156 "/></g></g></g><g fill="#ff8d55" fill-opacity="0.4"><g transform="translate(439.730771, 316.966365)"><g><path d="M 40.222656 -96.921875 L 8.480469 -96.921875 L 8.480469 0 L 40.222656 0 C 65.785156 0 83.957031 -21.6875 83.957031 -48.460938 C 83.957031 -75.234375 65.058594 -96.921875 40.222656 -96.921875 Z M 40.222656 -78.871094 C 54.640625 -78.871094 65.90625 -65.542969 65.90625 -48.460938 C 65.90625 -39.738281 63.242188 -31.863281 58.152344 -26.167969 C 54.882812 -22.414062 49.1875 -18.050781 40.222656 -18.050781 L 26.53125 -18.050781 L 26.53125 -78.871094 Z M 40.222656 -78.871094 "/></g></g></g><g fill="#ff8d55" fill-opacity="0.4"><g transform="translate(532.169937, 316.966365)"><g><path d="M 65.664062 -96.921875 L 47.007812 -33.679688 L 28.351562 -96.921875 L 8.480469 -96.921875 L 37.074219 0 L 56.941406 0 L 85.535156 -96.921875 Z M 65.664062 -96.921875 "/></g></g></g><g fill="#ff8d55" fill-opacity="0.4"><g transform="translate(626.18407, 316.966365)"><g><path d="M 65.664062 0 L 84.5625 0 L 56.09375 -96.679688 L 56.09375 -96.921875 L 37.074219 -96.921875 L 8.480469 0 L 27.5 0 L 34.648438 -24.109375 L 58.515625 -24.109375 Z M 39.980469 -42.160156 L 46.644531 -64.695312 L 53.1875 -42.160156 Z M 39.980469 -42.160156 "/></g></g></g><g fill="#ff8d55" fill-opacity="0.4"><g transform="translate(719.228999, 316.966365)"><g><path d="M 66.027344 -96.921875 L 66.027344 -31.5 L 28.351562 -96.921875 L 8.480469 -96.921875 L 8.480469 0 L 26.652344 0 L 26.652344 -60.695312 L 61.546875 0 L 84.199219 0 L 84.199219 -96.921875 Z M 66.027344 -96.921875 "/></g></g></g><g fill="#ff8d55" fill-opacity="0.4"><g transform="translate(811.910485, 316.966365)"><g><path d="M 79.476562 -27.015625 C 74.386719 -21.082031 66.875 -17.445312 58.03125 -17.445312 C 40.949219 -17.445312 28.835938 -31.378906 28.835938 -48.460938 C 28.835938 -65.542969 40.949219 -79.476562 58.03125 -79.476562 C 66.875 -79.476562 74.386719 -75.839844 79.476562 -69.90625 L 93.167969 -83.472656 C 84.199219 -92.4375 71.722656 -98.011719 58.03125 -98.011719 C 30.652344 -98.011719 8.480469 -75.839844 8.480469 -48.460938 C 8.480469 -21.082031 30.652344 1.089844 58.03125 1.089844 C 71.722656 1.089844 84.199219 -4.484375 93.167969 -13.449219 Z M 79.476562 -27.015625 "/></g></g></g><g fill="#ff8d55" fill-opacity="0.4"><g transform="translate(913.557208, 316.966365)"><g><path d="M 64.695312 -78.992188 L 64.695312 -97.042969 L 8.480469 -97.042969 L 8.480469 0 L 64.695312 0 L 64.695312 -18.050781 L 26.652344 -18.050781 L 26.652344 -39.617188 L 49.308594 -39.617188 L 49.308594 -57.667969 L 26.652344 -57.667969 L 26.652344 -78.992188 Z M 64.695312 -78.992188 "/></g></g></g><g fill="#ff8d55" fill-opacity="0.4"><g transform="translate(986.73314, 316.966365)"><g><path d="M 40.222656 -96.921875 L 8.480469 -96.921875 L 8.480469 0 L 40.222656 0 C 65.785156 0 83.957031 -21.6875 83.957031 -48.460938 C 83.957031 -75.234375 65.058594 -96.921875 40.222656 -96.921875 Z M 40.222656 -78.871094 C 54.640625 -78.871094 65.90625 -65.542969 65.90625 -48.460938 C 65.90625 -39.738281 63.242188 -31.863281 58.152344 -26.167969 C 54.882812 -22.414062 49.1875 -18.050781 40.222656 -18.050781 L 26.53125 -18.050781 L 26.53125 -78.871094 Z M 40.222656 -78.871094 "/></g></g></g><g fill="#cb6ce6" fill-opacity="1"><g transform="translate(353.754924, 314.2528)"><g><path d="M 65.664062 0 L 84.5625 0 L 56.09375 -96.679688 L 56.09375 -96.921875 L 37.074219 -96.921875 L 8.480469 0 L 27.5 0 L 34.648438 -24.109375 L 58.515625 -24.109375 Z M 39.980469 -42.160156 L 46.644531 -64.695312 L 53.1875 -42.160156 Z M 39.980469 -42.160156 "/></g></g></g><g fill="#cb6ce6" fill-opacity="1"><g transform="translate(446.799853, 314.2528)"><g><path d="M 40.222656 -96.921875 L 8.480469 -96.921875 L 8.480469 0 L 40.222656 0 C 65.785156 0 83.957031 -21.6875 83.957031 -48.460938 C 83.957031 -75.234375 65.058594 -96.921875 40.222656 -96.921875 Z M 40.222656 -78.871094 C 54.640625 -78.871094 65.90625 -65.542969 65.90625 -48.460938 C 65.90625 -39.738281 63.242188 -31.863281 58.152344 -26.167969 C 54.882812 -22.414062 49.1875 -18.050781 40.222656 -18.050781 L 26.53125 -18.050781 L 26.53125 -78.871094 Z M 40.222656 -78.871094 "/></g></g></g><g fill="#cb6ce6" fill-opacity="1"><g transform="translate(539.239018, 314.2528)"><g><path d="M 65.664062 -96.921875 L 47.007812 -33.679688 L 28.351562 -96.921875 L 8.480469 -96.921875 L 37.074219 0 L 56.941406 0 L 85.535156 -96.921875 Z M 65.664062 -96.921875 "/></g></g></g><g fill="#cb6ce6" fill-opacity="1"><g transform="translate(633.253152, 314.2528)"><g><path d="M 65.664062 0 L 84.5625 0 L 56.09375 -96.679688 L 56.09375 -96.921875 L 37.074219 -96.921875 L 8.480469 0 L 27.5 0 L 34.648438 -24.109375 L 58.515625 -24.109375 Z M 39.980469 -42.160156 L 46.644531 -64.695312 L 53.1875 -42.160156 Z M 39.980469 -42.160156 "/></g></g></g><g fill="#cb6ce6" fill-opacity="1"><g transform="translate(726.29808, 314.2528)"><g><path d="M 66.027344 -96.921875 L 66.027344 -31.5 L 28.351562 -96.921875 L 8.480469 -96.921875 L 8.480469 0 L 26.652344 0 L 26.652344 -60.695312 L 61.546875 0 L 84.199219 0 L 84.199219 -96.921875 Z M 66.027344 -96.921875 "/></g></g></g><g fill="#cb6ce6" fill-opacity="1"><g transform="translate(818.979567, 314.2528)"><g><path d="M 79.476562 -27.015625 C 74.386719 -21.082031 66.875 -17.445312 58.03125 -17.445312 C 40.949219 -17.445312 28.835938 -31.378906 28.835938 -48.460938 C 28.835938 -65.542969 40.949219 -79.476562 58.03125 -79.476562 C 66.875 -79.476562 74.386719 -75.839844 79.476562 -69.90625 L 93.167969 -83.472656 C 84.199219 -92.4375 71.722656 -98.011719 58.03125 -98.011719 C 30.652344 -98.011719 8.480469 -75.839844 8.480469 -48.460938 C 8.480469 -21.082031 30.652344 1.089844 58.03125 1.089844 C 71.722656 1.089844 84.199219 -4.484375 93.167969 -13.449219 Z M 79.476562 -27.015625 "/></g></g></g><g fill="#cb6ce6" fill-opacity="1"><g transform="translate(920.62629, 314.2528)"><g><path d="M 64.695312 -78.992188 L 64.695312 -97.042969 L 8.480469 -97.042969 L 8.480469 0 L 64.695312 0 L 64.695312 -18.050781 L 26.652344 -18.050781 L 26.652344 -39.617188 L 49.308594 -39.617188 L 49.308594 -57.667969 L 26.652344 -57.667969 L 26.652344 -78.992188 Z M 64.695312 -78.992188 "/></g></g></g><g fill="#cb6ce6" fill-opacity="1"><g transform="translate(993.802221, 314.2528)"><g><path d="M 40.222656 -96.921875 L 8.480469 -96.921875 L 8.480469 0 L 40.222656 0 C 65.785156 0 83.957031 -21.6875 83.957031 -48.460938 C 83.957031 -75.234375 65.058594 -96.921875 40.222656 -96.921875 Z M 40.222656 -78.871094 C 54.640625 -78.871094 65.90625 -65.542969 65.90625 -48.460938 C 65.90625 -39.738281 63.242188 -31.863281 58.152344 -26.167969 C 54.882812 -22.414062 49.1875 -18.050781 40.222656 -18.050781 L 26.53125 -18.050781 L 26.53125 -78.871094 Z M 40.222656 -78.871094 "/></g></g></g><g fill="#ff8d55" fill-opacity="0.4"><g transform="translate(1079.171489, 316.966365)"><g/></g></g><g fill="#ff8d55" fill-opacity="0.4"><g transform="translate(1115.517168, 316.966365)"><g/></g></g><g fill="#ff8d55" fill-opacity="0.4"><g transform="translate(1151.862847, 316.966365)"><g/></g></g><g fill="#cb6ce6" fill-opacity="1"><g transform="translate(1086.240571, 314.2528)"><g/></g></g><g fill="#cb6ce6" fill-opacity="1"><g transform="translate(1122.58625, 314.2528)"><g/></g></g><g fill="#cb6ce6" fill-opacity="1"><g transform="translate(1158.931929, 314.2528)"><g/></g></g><g fill="#ff8d55" fill-opacity="0.4"><g transform="translate(198.392727, 426.003332)"><g/></g></g><g fill="#cb6ce6" fill-opacity="1"><g transform="translate(205.461809, 423.289768)"><g/></g></g><g fill="#ff8d55" fill-opacity="0.4"><g transform="translate(234.738383, 426.003332)"><g><path d="M 89.167969 -96.921875 L 69.300781 -96.921875 L 48.824219 -48.097656 L 28.472656 -96.921875 L 8.480469 -96.921875 L 8.480469 0 L 26.652344 0 L 26.652344 -53.550781 L 38.890625 -24.351562 L 58.757812 -24.351562 L 71.117188 -53.792969 L 71.117188 0 L 89.167969 0 Z M 89.167969 -96.921875 "/></g></g></g><g fill="#ff8d55" fill-opacity="0.4"><g transform="translate(332.387097, 426.003332)"><g><path d="M 65.664062 0 L 84.5625 0 L 56.09375 -96.679688 L 56.09375 -96.921875 L 37.074219 -96.921875 L 8.480469 0 L 27.5 0 L 34.648438 -24.109375 L 58.515625 -24.109375 Z M 39.980469 -42.160156 L 46.644531 -64.695312 L 53.1875 -42.160156 Z M 39.980469 -42.160156 "/></g></g></g><g fill="#ff8d55" fill-opacity="0.4"><g transform="translate(425.432025, 426.003332)"><g><path d="M 81.292969 -96.921875 L 8.480469 -96.921875 L 8.480469 -78.871094 L 35.859375 -78.871094 L 35.859375 0 L 53.914062 0 L 53.914062 -78.871094 L 81.292969 -78.871094 Z M 81.292969 -96.921875 "/></g></g></g><g fill="#ff8d55" fill-opacity="0.4"><g transform="translate(515.205851, 426.003332)"><g><path d="M 66.027344 -96.195312 L 66.027344 -51.972656 L 26.652344 -51.972656 L 26.652344 -96.195312 L 8.480469 -96.195312 L 8.480469 0.847656 L 26.652344 0.847656 L 26.652344 -33.921875 L 66.027344 -33.921875 L 66.027344 0.847656 L 84.078125 0.847656 L 84.078125 -96.195312 Z M 66.027344 -96.195312 "/></g></g></g><g fill="#ff8d55" fill-opacity="0.4"><g transform="translate(607.76616, 426.003332)"><g><path d="M 64.695312 -78.992188 L 64.695312 -97.042969 L 8.480469 -97.042969 L 8.480469 0 L 64.695312 0 L 64.695312 -18.050781 L 26.652344 -18.050781 L 26.652344 -39.617188 L 49.308594 -39.617188 L 49.308594 -57.667969 L 26.652344 -57.667969 L 26.652344 -78.992188 Z M 64.695312 -78.992188 "/></g></g></g><g fill="#ff8d55" fill-opacity="0.4"><g transform="translate(680.942091, 426.003332)"><g><path d="M 89.167969 -96.921875 L 69.300781 -96.921875 L 48.824219 -48.097656 L 28.472656 -96.921875 L 8.480469 -96.921875 L 8.480469 0 L 26.652344 0 L 26.652344 -53.550781 L 38.890625 -24.351562 L 58.757812 -24.351562 L 71.117188 -53.792969 L 71.117188 0 L 89.167969 0 Z M 89.167969 -96.921875 "/></g></g></g><g fill="#ff8d55" fill-opacity="0.4"><g transform="translate(778.590816, 426.003332)"><g><path d="M 65.664062 0 L 84.5625 0 L 56.09375 -96.679688 L 56.09375 -96.921875 L 37.074219 -96.921875 L 8.480469 0 L 27.5 0 L 34.648438 -24.109375 L 58.515625 -24.109375 Z M 39.980469 -42.160156 L 46.644531 -64.695312 L 53.1875 -42.160156 Z M 39.980469 -42.160156 "/></g></g></g><g fill="#ff8d55" fill-opacity="0.4"><g transform="translate(871.635745, 426.003332)"><g><path d="M 81.292969 -96.921875 L 8.480469 -96.921875 L 8.480469 -78.871094 L 35.859375 -78.871094 L 35.859375 0 L 53.914062 0 L 53.914062 -78.871094 L 81.292969 -78.871094 Z M 81.292969 -96.921875 "/></g></g></g><g fill="#ff8d55" fill-opacity="0.4"><g transform="translate(961.409559, 426.003332)"><g><path d="M 8.480469 -96.921875 L 26.652344 -96.921875 L 26.652344 -0.363281 L 8.480469 -0.363281 Z M 8.480469 -96.921875 "/></g></g></g><g fill="#ff8d55" fill-opacity="0.4"><g transform="translate(996.543711, 426.003332)"><g><path d="M 79.476562 -27.015625 C 74.386719 -21.082031 66.875 -17.445312 58.03125 -17.445312 C 40.949219 -17.445312 28.835938 -31.378906 28.835938 -48.460938 C 28.835938 -65.542969 40.949219 -79.476562 58.03125 -79.476562 C 66.875 -79.476562 74.386719 -75.839844 79.476562 -69.90625 L 93.167969 -83.472656 C 84.199219 -92.4375 71.722656 -98.011719 58.03125 -98.011719 C 30.652344 -98.011719 8.480469 -75.839844 8.480469 -48.460938 C 8.480469 -21.082031 30.652344 1.089844 58.03125 1.089844 C 71.722656 1.089844 84.199219 -4.484375 93.167969 -13.449219 Z M 79.476562 -27.015625 "/></g></g></g><g fill="#ff8d55" fill-opacity="0.4"><g transform="translate(1098.190434, 426.003332)"><g><path d="M 48.703125 1.210938 L 50.882812 1.210938 C 71.722656 1.089844 83.59375 -12.480469 84.441406 -25.925781 C 85.414062 -39.980469 74.75 -55.730469 49.066406 -59 L 48.824219 -59 C 39.496094 -60.089844 29.804688 -64.695312 30.289062 -71.480469 C 30.652344 -76.324219 37.921875 -80.808594 51.125 -80.203125 L 51.488281 -80.203125 C 58.757812 -80.203125 67.480469 -76.6875 71.964844 -73.417969 L 82.382812 -87.957031 C 75.476562 -92.921875 63.363281 -98.011719 51.730469 -98.011719 C 26.046875 -99.34375 13.570312 -86.261719 12.480469 -72.933594 C 11.871094 -65.179688 15.144531 -57.546875 21.445312 -51.730469 C 27.621094 -46.039062 36.46875 -42.402344 46.886719 -41.3125 C 61.0625 -39.375 66.996094 -32.832031 66.632812 -27.136719 C 66.269531 -21.929688 60.695312 -16.71875 50.640625 -16.71875 L 50.035156 -16.71875 C 49.914062 -16.71875 36.710938 -15.992188 28.59375 -22.65625 C 26.53125 -24.230469 24.835938 -26.167969 23.261719 -28.472656 L 8.480469 -18.414062 C 10.902344 -14.78125 13.933594 -11.507812 17.324219 -8.722656 C 28.351562 0.242188 42.886719 1.210938 48.703125 1.210938 Z M 48.703125 1.210938 "/></g></g></g><g fill="#cb6ce6" fill-opacity="1"><g transform="translate(241.807465, 423.289768)"><g><path d="M 89.167969 -96.921875 L 69.300781 -96.921875 L 48.824219 -48.097656 L 28.472656 -96.921875 L 8.480469 -96.921875 L 8.480469 0 L 26.652344 0 L 26.652344 -53.550781 L 38.890625 -24.351562 L 58.757812 -24.351562 L 71.117188 -53.792969 L 71.117188 0 L 89.167969 0 Z M 89.167969 -96.921875 "/></g></g></g><g fill="#cb6ce6" fill-opacity="1"><g transform="translate(339.456178, 423.289768)"><g><path d="M 65.664062 0 L 84.5625 0 L 56.09375 -96.679688 L 56.09375 -96.921875 L 37.074219 -96.921875 L 8.480469 0 L 27.5 0 L 34.648438 -24.109375 L 58.515625 -24.109375 Z M 39.980469 -42.160156 L 46.644531 -64.695312 L 53.1875 -42.160156 Z M 39.980469 -42.160156 "/></g></g></g><g fill="#cb6ce6" fill-opacity="1"><g transform="translate(432.501107, 423.289768)"><g><path d="M 81.292969 -96.921875 L 8.480469 -96.921875 L 8.480469 -78.871094 L 35.859375 -78.871094 L 35.859375 0 L 53.914062 0 L 53.914062 -78.871094 L 81.292969 -78.871094 Z M 81.292969 -96.921875 "/></g></g></g><g fill="#cb6ce6" fill-opacity="1"><g transform="translate(522.274933, 423.289768)"><g><path d="M 66.027344 -96.195312 L 66.027344 -51.972656 L 26.652344 -51.972656 L 26.652344 -96.195312 L 8.480469 -96.195312 L 8.480469 0.847656 L 26.652344 0.847656 L 26.652344 -33.921875 L 66.027344 -33.921875 L 66.027344 0.847656 L 84.078125 0.847656 L 84.078125 -96.195312 Z M 66.027344 -96.195312 "/></g></g></g><g fill="#cb6ce6" fill-opacity="1"><g transform="translate(614.835241, 423.289768)"><g><path d="M 64.695312 -78.992188 L 64.695312 -97.042969 L 8.480469 -97.042969 L 8.480469 0 L 64.695312 0 L 64.695312 -18.050781 L 26.652344 -18.050781 L 26.652344 -39.617188 L 49.308594 -39.617188 L 49.308594 -57.667969 L 26.652344 -57.667969 L 26.652344 -78.992188 Z M 64.695312 -78.992188 "/></g></g></g><g fill="#cb6ce6" fill-opacity="1"><g transform="translate(688.011173, 423.289768)"><g><path d="M 89.167969 -96.921875 L 69.300781 -96.921875 L 48.824219 -48.097656 L 28.472656 -96.921875 L 8.480469 -96.921875 L 8.480469 0 L 26.652344 0 L 26.652344 -53.550781 L 38.890625 -24.351562 L 58.757812 -24.351562 L 71.117188 -53.792969 L 71.117188 0 L 89.167969 0 Z M 89.167969 -96.921875 "/></g></g></g><g fill="#cb6ce6" fill-opacity="1"><g transform="translate(785.659898, 423.289768)"><g><path d="M 65.664062 0 L 84.5625 0 L 56.09375 -96.679688 L 56.09375 -96.921875 L 37.074219 -96.921875 L 8.480469 0 L 27.5 0 L 34.648438 -24.109375 L 58.515625 -24.109375 Z M 39.980469 -42.160156 L 46.644531 -64.695312 L 53.1875 -42.160156 Z M 39.980469 -42.160156 "/></g></g></g><g fill="#cb6ce6" fill-opacity="1"><g transform="translate(878.704826, 423.289768)"><g><path d="M 81.292969 -96.921875 L 8.480469 -96.921875 L 8.480469 -78.871094 L 35.859375 -78.871094 L 35.859375 0 L 53.914062 0 L 53.914062 -78.871094 L 81.292969 -78.871094 Z M 81.292969 -96.921875 "/></g></g></g><g fill="#cb6ce6" fill-opacity="1"><g transform="translate(968.478641, 423.289768)"><g><path d="M 8.480469 -96.921875 L 26.652344 -96.921875 L 26.652344 -0.363281 L 8.480469 -0.363281 Z M 8.480469 -96.921875 "/></g></g></g><g fill="#cb6ce6" fill-opacity="1"><g transform="translate(1003.612793, 423.289768)"><g><path d="M 79.476562 -27.015625 C 74.386719 -21.082031 66.875 -17.445312 58.03125 -17.445312 C 40.949219 -17.445312 28.835938 -31.378906 28.835938 -48.460938 C 28.835938 -65.542969 40.949219 -79.476562 58.03125 -79.476562 C 66.875 -79.476562 74.386719 -75.839844 79.476562 -69.90625 L 93.167969 -83.472656 C 84.199219 -92.4375 71.722656 -98.011719 58.03125 -98.011719 C 30.652344 -98.011719 8.480469 -75.839844 8.480469 -48.460938 C 8.480469 -21.082031 30.652344 1.089844 58.03125 1.089844 C 71.722656 1.089844 84.199219 -4.484375 93.167969 -13.449219 Z M 79.476562 -27.015625 "/></g></g></g><g fill="#cb6ce6" fill-opacity="1"><g transform="translate(1105.259515, 423.289768)"><g><path d="M 48.703125 1.210938 L 50.882812 1.210938 C 71.722656 1.089844 83.59375 -12.480469 84.441406 -25.925781 C 85.414062 -39.980469 74.75 -55.730469 49.066406 -59 L 48.824219 -59 C 39.496094 -60.089844 29.804688 -64.695312 30.289062 -71.480469 C 30.652344 -76.324219 37.921875 -80.808594 51.125 -80.203125 L 51.488281 -80.203125 C 58.757812 -80.203125 67.480469 -76.6875 71.964844 -73.417969 L 82.382812 -87.957031 C 75.476562 -92.921875 63.363281 -98.011719 51.730469 -98.011719 C 26.046875 -99.34375 13.570312 -86.261719 12.480469 -72.933594 C 11.871094 -65.179688 15.144531 -57.546875 21.445312 -51.730469 C 27.621094 -46.039062 36.46875 -42.402344 46.886719 -41.3125 C 61.0625 -39.375 66.996094 -32.832031 66.632812 -27.136719 C 66.269531 -21.929688 60.695312 -16.71875 50.640625 -16.71875 L 50.035156 -16.71875 C 49.914062 -16.71875 36.710938 -15.992188 28.59375 -22.65625 C 26.53125 -24.230469 24.835938 -26.167969 23.261719 -28.472656 L 8.480469 -18.414062 C 10.902344 -14.78125 13.933594 -11.507812 17.324219 -8.722656 C 28.351562 0.242188 42.886719 1.210938 48.703125 1.210938 Z M 48.703125 1.210938 "/></g></g></g><g fill="#ff8d55" fill-opacity="0.4"><g transform="translate(1191.107113, 426.003332)"><g/></g></g><g fill="#cb6ce6" fill-opacity="1"><g transform="translate(1198.176195, 423.289768)"><g/></g></g></svg>