<svg xmlns="http://www.w3.org/2000/svg" xmlns:xlink="http://www.w3.org/1999/xlink" width="1920" zoomAndPan="magnify" viewBox="0 0 1440 809.999993" height="1080" preserveAspectRatio="xMidYMid meet" version="1.0"><defs><g/></defs><rect x="-144" width="1728" fill="#ffffff" y="-80.999999" height="971.999992" fill-opacity="1"/><rect x="-144" width="1728" fill="#ebebeb" y="-80.999999" height="971.999992" fill-opacity="1"/><rect x="-144" width="1728" fill="#ffffff" y="-80.999999" height="971.999992" fill-opacity="1"/><rect x="-144" width="1728" fill="#ebebeb" y="-80.999999" height="971.999992" fill-opacity="1"/><g fill="#ff8d55" fill-opacity="0.4"><g transform="translate(275.323941, 229.799934)"><g/></g></g><g fill="#cb6ce6" fill-opacity="1"><g transform="translate(282.393022, 227.086369)"><g/></g></g><g fill="#ff8d55" fill-opacity="0.4"><g transform="translate(311.669596, 229.799934)"><g><path d="M 48.703125 1.210938 L 50.882812 1.210938 C 71.722656 1.089844 83.59375 -12.480469 84.441406 -25.925781 C 85.414062 -39.980469 74.75 -55.730469 49.066406 -59 L 48.824219 -59 C 39.496094 -60.089844 29.804688 -64.695312 30.289062 -71.480469 C 30.652344 -76.324219 37.921875 -80.808594 51.125 -80.203125 L 51.488281 -80.203125 C 58.757812 -80.203125 67.480469 -76.6875 71.964844 -73.417969 L 82.382812 -87.957031 C 75.476562 -92.921875 63.363281 -98.011719 51.730469 -98.011719 C 26.046875 -99.34375 13.570312 -86.261719 12.480469 -72.933594 C 11.871094 -65.179688 15.144531 -57.546875 21.445312 -51.730469 C 27.621094 -46.039062 36.46875 -42.402344 46.886719 -41.3125 C 61.0625 -39.375 66.996094 -32.832031 66.632812 -27.136719 C 66.269531 -21.929688 60.695312 -16.71875 50.640625 -16.71875 L 50.035156 -16.71875 C 49.914062 -16.71875 36.710938 -15.992188 28.59375 -22.65625 C 26.53125 -24.230469 24.835938 -26.167969 23.261719 -28.472656 L 8.480469 -18.414062 C 10.902344 -14.78125 13.933594 -11.507812 17.324219 -8.722656 C 28.351562 0.242188 42.886719 1.210938 48.703125 1.210938 Z M 48.703125 1.210938 "/></g></g></g><g fill="#ff8d55" fill-opacity="0.4"><g transform="translate(404.59337, 229.799934)"><g><path d="M 53.792969 -98.132812 C 26.410156 -98.132812 4.242188 -75.960938 4.242188 -48.582031 C 4.242188 -21.203125 26.410156 0.96875 53.792969 0.96875 C 81.171875 0.96875 103.34375 -21.203125 103.34375 -48.582031 C 103.34375 -75.960938 81.171875 -98.132812 53.792969 -98.132812 Z M 53.792969 -79.597656 C 70.996094 -79.597656 83.109375 -65.664062 83.109375 -48.582031 C 83.109375 -31.5 70.996094 -17.566406 53.792969 -17.566406 C 36.710938 -17.566406 24.59375 -31.5 24.59375 -48.582031 C 24.59375 -65.664062 36.710938 -79.597656 53.792969 -79.597656 Z M 53.792969 -79.597656 "/></g></g></g><g fill="#ff8d55" fill-opacity="0.4"><g transform="translate(512.17657, 229.799934)"><g><path d="M 68.691406 -78.75 L 68.691406 -96.921875 L 8.480469 -96.921875 L 8.480469 0 L 26.652344 0 L 26.652344 -34.285156 L 53.308594 -34.285156 L 53.308594 -52.457031 L 26.652344 -52.457031 L 26.652344 -78.75 Z M 68.691406 -78.75 "/></g></g></g><g fill="#ff8d55" fill-opacity="0.4"><g transform="translate(585.594834, 229.799934)"><g><path d="M 81.292969 -96.921875 L 8.480469 -96.921875 L 8.480469 -78.871094 L 35.859375 -78.871094 L 35.859375 0 L 53.914062 0 L 53.914062 -78.871094 L 81.292969 -78.871094 Z M 81.292969 -96.921875 "/></g></g></g><g fill="#ff8d55" fill-opacity="0.4"><g transform="translate(675.368648, 229.799934)"><g><path d="M 104.796875 -97.042969 L 93.410156 -40.101562 L 76.566406 -97.164062 L 56.578125 -97.164062 L 56.578125 -97.042969 L 39.859375 -40.101562 L 28.351562 -97.042969 L 8.480469 -97.042969 L 28.105469 0 L 47.976562 0 L 66.632812 -63.242188 L 85.292969 0 L 105.160156 0 L 124.664062 -97.042969 Z M 104.796875 -97.042969 "/></g></g></g><g fill="#ff8d55" fill-opacity="0.4"><g transform="translate(808.514969, 229.799934)"><g><path d="M 65.664062 0 L 84.5625 0 L 56.09375 -96.679688 L 56.09375 -96.921875 L 37.074219 -96.921875 L 8.480469 0 L 27.5 0 L 34.648438 -24.109375 L 58.515625 -24.109375 Z M 39.980469 -42.160156 L 46.644531 -64.695312 L 53.1875 -42.160156 Z M 39.980469 -42.160156 "/></g></g></g><g fill="#ff8d55" fill-opacity="0.4"><g transform="translate(901.559898, 229.799934)"><g><path d="M 84.199219 -60.574219 C 84.199219 -80.6875 74.992188 -96.921875 50.277344 -96.921875 L 8.480469 -96.921875 L 8.480469 0 L 26.652344 0 L 26.652344 -24.109375 L 50.277344 -24.109375 C 52.457031 -24.109375 54.519531 -24.230469 56.457031 -24.472656 L 65.179688 0 L 84.199219 0 L 73.175781 -31.015625 C 81.171875 -37.679688 84.199219 -48.460938 84.199219 -60.574219 Z M 26.652344 -42.28125 L 26.652344 -78.871094 L 50.277344 -78.871094 C 59.242188 -78.871094 61.667969 -75.839844 62.515625 -74.871094 C 64.816406 -71.964844 66.027344 -66.875 66.027344 -60.574219 C 66.027344 -53.914062 64.816406 -48.824219 62.636719 -46.160156 C 60.574219 -43.492188 56.457031 -42.28125 50.277344 -42.28125 Z M 26.652344 -42.28125 "/></g></g></g><g fill="#ff8d55" fill-opacity="0.4"><g transform="translate(994.241384, 229.799934)"><g><path d="M 64.695312 -78.992188 L 64.695312 -97.042969 L 8.480469 -97.042969 L 8.480469 0 L 64.695312 0 L 64.695312 -18.050781 L 26.652344 -18.050781 L 26.652344 -39.617188 L 49.308594 -39.617188 L 49.308594 -57.667969 L 26.652344 -57.667969 L 26.652344 -78.992188 Z M 64.695312 -78.992188 "/></g></g></g><g fill="#cb6ce6" fill-opacity="1"><g transform="translate(318.738677, 227.086369)"><g><path d="M 48.703125 1.210938 L 50.882812 1.210938 C 71.722656 1.089844 83.59375 -12.480469 84.441406 -25.925781 C 85.414062 -39.980469 74.75 -55.730469 49.066406 -59 L 48.824219 -59 C 39.496094 -60.089844 29.804688 -64.695312 30.289062 -71.480469 C 30.652344 -76.324219 37.921875 -80.808594 51.125 -80.203125 L 51.488281 -80.203125 C 58.757812 -80.203125 67.480469 -76.6875 71.964844 -73.417969 L 82.382812 -87.957031 C 75.476562 -92.921875 63.363281 -98.011719 51.730469 -98.011719 C 26.046875 -99.34375 13.570312 -86.261719 12.480469 -72.933594 C 11.871094 -65.179688 15.144531 -57.546875 21.445312 -51.730469 C 27.621094 -46.039062 36.46875 -42.402344 46.886719 -41.3125 C 61.0625 -39.375 66.996094 -32.832031 66.632812 -27.136719 C 66.269531 -21.929688 60.695312 -16.71875 50.640625 -16.71875 L 50.035156 -16.71875 C 49.914062 -16.71875 36.710938 -15.992188 28.59375 -22.65625 C 26.53125 -24.230469 24.835938 -26.167969 23.261719 -28.472656 L 8.480469 -18.414062 C 10.902344 -14.78125 13.933594 -11.507812 17.324219 -8.722656 C 28.351562 0.242188 42.886719 1.210938 48.703125 1.210938 Z M 48.703125 1.210938 "/></g></g></g><g fill="#cb6ce6" fill-opacity="1"><g transform="translate(411.662451, 227.086369)"><g><path d="M 53.792969 -98.132812 C 26.410156 -98.132812 4.242188 -75.960938 4.242188 -48.582031 C 4.242188 -21.203125 26.410156 0.96875 53.792969 0.96875 C 81.171875 0.96875 103.34375 -21.203125 103.34375 -48.582031 C 103.34375 -75.960938 81.171875 -98.132812 53.792969 -98.132812 Z M 53.792969 -79.597656 C 70.996094 -79.597656 83.109375 -65.664062 83.109375 -48.582031 C 83.109375 -31.5 70.996094 -17.566406 53.792969 -17.566406 C 36.710938 -17.566406 24.59375 -31.5 24.59375 -48.582031 C 24.59375 -65.664062 36.710938 -79.597656 53.792969 -79.597656 Z M 53.792969 -79.597656 "/></g></g></g><g fill="#cb6ce6" fill-opacity="1"><g transform="translate(519.245651, 227.086369)"><g><path d="M 68.691406 -78.75 L 68.691406 -96.921875 L 8.480469 -96.921875 L 8.480469 0 L 26.652344 0 L 26.652344 -34.285156 L 53.308594 -34.285156 L 53.308594 -52.457031 L 26.652344 -52.457031 L 26.652344 -78.75 Z M 68.691406 -78.75 "/></g></g></g><g fill="#cb6ce6" fill-opacity="1"><g transform="translate(592.663915, 227.086369)"><g><path d="M 81.292969 -96.921875 L 8.480469 -96.921875 L 8.480469 -78.871094 L 35.859375 -78.871094 L 35.859375 0 L 53.914062 0 L 53.914062 -78.871094 L 81.292969 -78.871094 Z M 81.292969 -96.921875 "/></g></g></g><g fill="#cb6ce6" fill-opacity="1"><g transform="translate(682.43773, 227.086369)"><g><path d="M 104.796875 -97.042969 L 93.410156 -40.101562 L 76.566406 -97.164062 L 56.578125 -97.164062 L 56.578125 -97.042969 L 39.859375 -40.101562 L 28.351562 -97.042969 L 8.480469 -97.042969 L 28.105469 0 L 47.976562 0 L 66.632812 -63.242188 L 85.292969 0 L 105.160156 0 L 124.664062 -97.042969 Z M 104.796875 -97.042969 "/></g></g></g><g fill="#cb6ce6" fill-opacity="1"><g transform="translate(815.58405, 227.086369)"><g><path d="M 65.664062 0 L 84.5625 0 L 56.09375 -96.679688 L 56.09375 -96.921875 L 37.074219 -96.921875 L 8.480469 0 L 27.5 0 L 34.648438 -24.109375 L 58.515625 -24.109375 Z M 39.980469 -42.160156 L 46.644531 -64.695312 L 53.1875 -42.160156 Z M 39.980469 -42.160156 "/></g></g></g><g fill="#cb6ce6" fill-opacity="1"><g transform="translate(908.628979, 227.086369)"><g><path d="M 84.199219 -60.574219 C 84.199219 -80.6875 74.992188 -96.921875 50.277344 -96.921875 L 8.480469 -96.921875 L 8.480469 0 L 26.652344 0 L 26.652344 -24.109375 L 50.277344 -24.109375 C 52.457031 -24.109375 54.519531 -24.230469 56.457031 -24.472656 L 65.179688 0 L 84.199219 0 L 73.175781 -31.015625 C 81.171875 -37.679688 84.199219 -48.460938 84.199219 -60.574219 Z M 26.652344 -42.28125 L 26.652344 -78.871094 L 50.277344 -78.871094 C 59.242188 -78.871094 61.667969 -75.839844 62.515625 -74.871094 C 64.816406 -71.964844 66.027344 -66.875 66.027344 -60.574219 C 66.027344 -53.914062 64.816406 -48.824219 62.636719 -46.160156 C 60.574219 -43.492188 56.457031 -42.28125 50.277344 -42.28125 Z M 26.652344 -42.28125 "/></g></g></g><g fill="#cb6ce6" fill-opacity="1"><g transform="translate(1001.310465, 227.086369)"><g><path d="M 64.695312 -78.992188 L 64.695312 -97.042969 L 8.480469 -97.042969 L 8.480469 0 L 64.695312 0 L 64.695312 -18.050781 L 26.652344 -18.050781 L 26.652344 -39.617188 L 49.308594 -39.617188 L 49.308594 -57.667969 L 26.652344 -57.667969 L 26.652344 -78.992188 Z M 64.695312 -78.992188 "/></g></g></g><g fill="#ff8d55" fill-opacity="0.4"><g transform="translate(1067.415508, 229.799934)"><g/></g></g><g fill="#cb6ce6" fill-opacity="1"><g transform="translate(1074.48459, 227.086369)"><g/></g></g><g fill="#ff8d55" fill-opacity="0.4"><g transform="translate(188.695395, 338.836901)"><g/></g></g><g fill="#ff8d55" fill-opacity="0.4"><g transform="translate(225.041074, 338.836901)"><g/></g></g><g fill="#cb6ce6" fill-opacity="1"><g transform="translate(195.764476, 336.123337)"><g/></g></g><g fill="#cb6ce6" fill-opacity="1"><g transform="translate(232.110155, 336.123337)"><g/></g></g><g fill="#ff8d55" fill-opacity="0.4"><g transform="translate(261.386707, 338.836901)"><g><path d="M 64.695312 -78.992188 L 64.695312 -97.042969 L 8.480469 -97.042969 L 8.480469 0 L 64.695312 0 L 64.695312 -18.050781 L 26.652344 -18.050781 L 26.652344 -39.617188 L 49.308594 -39.617188 L 49.308594 -57.667969 L 26.652344 -57.667969 L 26.652344 -78.992188 Z M 64.695312 -78.992188 "/></g></g></g><g fill="#ff8d55" fill-opacity="0.4"><g transform="translate(334.562661, 338.836901)"><g><path d="M 66.027344 -96.921875 L 66.027344 -31.5 L 28.351562 -96.921875 L 8.480469 -96.921875 L 8.480469 0 L 26.652344 0 L 26.652344 -60.695312 L 61.546875 0 L 84.199219 0 L 84.199219 -96.921875 Z M 66.027344 -96.921875 "/></g></g></g><g fill="#ff8d55" fill-opacity="0.4"><g transform="translate(427.244136, 338.836901)"><g><path d="M 106.976562 -56.578125 L 61.789062 -56.578125 L 61.789062 -38.042969 L 85.777344 -38.042969 C 82.019531 -26.046875 71.601562 -17.324219 58.03125 -17.324219 C 40.949219 -17.324219 28.835938 -31.257812 28.835938 -48.339844 C 28.835938 -65.421875 40.949219 -79.355469 58.03125 -79.355469 C 64.089844 -79.355469 69.542969 -77.660156 73.902344 -74.628906 L 87.472656 -88.199219 C 79.234375 -94.257812 69.058594 -97.890625 58.03125 -97.890625 C 30.652344 -97.890625 8.480469 -75.71875 8.480469 -48.339844 C 8.480469 -20.960938 30.652344 1.210938 58.03125 1.210938 C 85.414062 1.210938 107.582031 -20.960938 107.582031 -48.339844 C 107.582031 -51.125 107.339844 -53.914062 106.976562 -56.578125 Z M 106.976562 -56.578125 "/></g></g></g><g fill="#ff8d55" fill-opacity="0.4"><g transform="translate(543.307987, 338.836901)"><g><path d="M 8.480469 -96.921875 L 26.652344 -96.921875 L 26.652344 -0.363281 L 8.480469 -0.363281 Z M 8.480469 -96.921875 "/></g></g></g><g fill="#ff8d55" fill-opacity="0.4"><g transform="translate(578.442139, 338.836901)"><g><path d="M 66.027344 -96.921875 L 66.027344 -31.5 L 28.351562 -96.921875 L 8.480469 -96.921875 L 8.480469 0 L 26.652344 0 L 26.652344 -60.695312 L 61.546875 0 L 84.199219 0 L 84.199219 -96.921875 Z M 66.027344 -96.921875 "/></g></g></g><g fill="#ff8d55" fill-opacity="0.4"><g transform="translate(671.123626, 338.836901)"><g><path d="M 64.695312 -78.992188 L 64.695312 -97.042969 L 8.480469 -97.042969 L 8.480469 0 L 64.695312 0 L 64.695312 -18.050781 L 26.652344 -18.050781 L 26.652344 -39.617188 L 49.308594 -39.617188 L 49.308594 -57.667969 L 26.652344 -57.667969 L 26.652344 -78.992188 Z M 64.695312 -78.992188 "/></g></g></g><g fill="#ff8d55" fill-opacity="0.4"><g transform="translate(744.299604, 338.836901)"><g><path d="M 64.695312 -78.992188 L 64.695312 -97.042969 L 8.480469 -97.042969 L 8.480469 0 L 64.695312 0 L 64.695312 -18.050781 L 26.652344 -18.050781 L 26.652344 -39.617188 L 49.308594 -39.617188 L 49.308594 -57.667969 L 26.652344 -57.667969 L 26.652344 -78.992188 Z M 64.695312 -78.992188 "/></g></g></g><g fill="#ff8d55" fill-opacity="0.4"><g transform="translate(817.475535, 338.836901)"><g><path d="M 84.199219 -60.574219 C 84.199219 -80.6875 74.992188 -96.921875 50.277344 -96.921875 L 8.480469 -96.921875 L 8.480469 0 L 26.652344 0 L 26.652344 -24.109375 L 50.277344 -24.109375 C 52.457031 -24.109375 54.519531 -24.230469 56.457031 -24.472656 L 65.179688 0 L 84.199219 0 L 73.175781 -31.015625 C 81.171875 -37.679688 84.199219 -48.460938 84.199219 -60.574219 Z M 26.652344 -42.28125 L 26.652344 -78.871094 L 50.277344 -78.871094 C 59.242188 -78.871094 61.667969 -75.839844 62.515625 -74.871094 C 64.816406 -71.964844 66.027344 -66.875 66.027344 -60.574219 C 66.027344 -53.914062 64.816406 -48.824219 62.636719 -46.160156 C 60.574219 -43.492188 56.457031 -42.28125 50.277344 -42.28125 Z M 26.652344 -42.28125 "/></g></g></g><g fill="#ff8d55" fill-opacity="0.4"><g transform="translate(910.157022, 338.836901)"><g><path d="M 8.480469 -96.921875 L 26.652344 -96.921875 L 26.652344 -0.363281 L 8.480469 -0.363281 Z M 8.480469 -96.921875 "/></g></g></g><g fill="#ff8d55" fill-opacity="0.4"><g transform="translate(945.291174, 338.836901)"><g><path d="M 66.027344 -96.921875 L 66.027344 -31.5 L 28.351562 -96.921875 L 8.480469 -96.921875 L 8.480469 0 L 26.652344 0 L 26.652344 -60.695312 L 61.546875 0 L 84.199219 0 L 84.199219 -96.921875 Z M 66.027344 -96.921875 "/></g></g></g><g fill="#ff8d55" fill-opacity="0.4"><g transform="translate(1037.97266, 338.836901)"><g><path d="M 106.976562 -56.578125 L 61.789062 -56.578125 L 61.789062 -38.042969 L 85.777344 -38.042969 C 82.019531 -26.046875 71.601562 -17.324219 58.03125 -17.324219 C 40.949219 -17.324219 28.835938 -31.257812 28.835938 -48.339844 C 28.835938 -65.421875 40.949219 -79.355469 58.03125 -79.355469 C 64.089844 -79.355469 69.542969 -77.660156 73.902344 -74.628906 L 87.472656 -88.199219 C 79.234375 -94.257812 69.058594 -97.890625 58.03125 -97.890625 C 30.652344 -97.890625 8.480469 -75.71875 8.480469 -48.339844 C 8.480469 -20.960938 30.652344 1.210938 58.03125 1.210938 C 85.414062 1.210938 107.582031 -20.960938 107.582031 -48.339844 C 107.582031 -51.125 107.339844 -53.914062 106.976562 -56.578125 Z M 106.976562 -56.578125 "/></g></g></g><g fill="#cb6ce6" fill-opacity="1"><g transform="translate(268.455788, 336.123337)"><g><path d="M 64.695312 -78.992188 L 64.695312 -97.042969 L 8.480469 -97.042969 L 8.480469 0 L 64.695312 0 L 64.695312 -18.050781 L 26.652344 -18.050781 L 26.652344 -39.617188 L 49.308594 -39.617188 L 49.308594 -57.667969 L 26.652344 -57.667969 L 26.652344 -78.992188 Z M 64.695312 -78.992188 "/></g></g></g><g fill="#cb6ce6" fill-opacity="1"><g transform="translate(341.631742, 336.123337)"><g><path d="M 66.027344 -96.921875 L 66.027344 -31.5 L 28.351562 -96.921875 L 8.480469 -96.921875 L 8.480469 0 L 26.652344 0 L 26.652344 -60.695312 L 61.546875 0 L 84.199219 0 L 84.199219 -96.921875 Z M 66.027344 -96.921875 "/></g></g></g><g fill="#cb6ce6" fill-opacity="1"><g transform="translate(434.313217, 336.123337)"><g><path d="M 106.976562 -56.578125 L 61.789062 -56.578125 L 61.789062 -38.042969 L 85.777344 -38.042969 C 82.019531 -26.046875 71.601562 -17.324219 58.03125 -17.324219 C 40.949219 -17.324219 28.835938 -31.257812 28.835938 -48.339844 C 28.835938 -65.421875 40.949219 -79.355469 58.03125 -79.355469 C 64.089844 -79.355469 69.542969 -77.660156 73.902344 -74.628906 L 87.472656 -88.199219 C 79.234375 -94.257812 69.058594 -97.890625 58.03125 -97.890625 C 30.652344 -97.890625 8.480469 -75.71875 8.480469 -48.339844 C 8.480469 -20.960938 30.652344 1.210938 58.03125 1.210938 C 85.414062 1.210938 107.582031 -20.960938 107.582031 -48.339844 C 107.582031 -51.125 107.339844 -53.914062 106.976562 -56.578125 Z M 106.976562 -56.578125 "/></g></g></g><g fill="#cb6ce6" fill-opacity="1"><g transform="translate(550.377068, 336.123337)"><g><path d="M 8.480469 -96.921875 L 26.652344 -96.921875 L 26.652344 -0.363281 L 8.480469 -0.363281 Z M 8.480469 -96.921875 "/></g></g></g><g fill="#cb6ce6" fill-opacity="1"><g transform="translate(585.51122, 336.123337)"><g><path d="M 66.027344 -96.921875 L 66.027344 -31.5 L 28.351562 -96.921875 L 8.480469 -96.921875 L 8.480469 0 L 26.652344 0 L 26.652344 -60.695312 L 61.546875 0 L 84.199219 0 L 84.199219 -96.921875 Z M 66.027344 -96.921875 "/></g></g></g><g fill="#cb6ce6" fill-opacity="1"><g transform="translate(678.192707, 336.123337)"><g><path d="M 64.695312 -78.992188 L 64.695312 -97.042969 L 8.480469 -97.042969 L 8.480469 0 L 64.695312 0 L 64.695312 -18.050781 L 26.652344 -18.050781 L 26.652344 -39.617188 L 49.308594 -39.617188 L 49.308594 -57.667969 L 26.652344 -57.667969 L 26.652344 -78.992188 Z M 64.695312 -78.992188 "/></g></g></g><g fill="#cb6ce6" fill-opacity="1"><g transform="translate(751.368685, 336.123337)"><g><path d="M 64.695312 -78.992188 L 64.695312 -97.042969 L 8.480469 -97.042969 L 8.480469 0 L 64.695312 0 L 64.695312 -18.050781 L 26.652344 -18.050781 L 26.652344 -39.617188 L 49.308594 -39.617188 L 49.308594 -57.667969 L 26.652344 -57.667969 L 26.652344 -78.992188 Z M 64.695312 -78.992188 "/></g></g></g><g fill="#cb6ce6" fill-opacity="1"><g transform="translate(824.544616, 336.123337)"><g><path d="M 84.199219 -60.574219 C 84.199219 -80.6875 74.992188 -96.921875 50.277344 -96.921875 L 8.480469 -96.921875 L 8.480469 0 L 26.652344 0 L 26.652344 -24.109375 L 50.277344 -24.109375 C 52.457031 -24.109375 54.519531 -24.230469 56.457031 -24.472656 L 65.179688 0 L 84.199219 0 L 73.175781 -31.015625 C 81.171875 -37.679688 84.199219 -48.460938 84.199219 -60.574219 Z M 26.652344 -42.28125 L 26.652344 -78.871094 L 50.277344 -78.871094 C 59.242188 -78.871094 61.667969 -75.839844 62.515625 -74.871094 C 64.816406 -71.964844 66.027344 -66.875 66.027344 -60.574219 C 66.027344 -53.914062 64.816406 -48.824219 62.636719 -46.160156 C 60.574219 -43.492188 56.457031 -42.28125 50.277344 -42.28125 Z M 26.652344 -42.28125 "/></g></g></g><g fill="#cb6ce6" fill-opacity="1"><g transform="translate(917.226103, 336.123337)"><g><path d="M 8.480469 -96.921875 L 26.652344 -96.921875 L 26.652344 -0.363281 L 8.480469 -0.363281 Z M 8.480469 -96.921875 "/></g></g></g><g fill="#cb6ce6" fill-opacity="1"><g transform="translate(952.360255, 336.123337)"><g><path d="M 66.027344 -96.921875 L 66.027344 -31.5 L 28.351562 -96.921875 L 8.480469 -96.921875 L 8.480469 0 L 26.652344 0 L 26.652344 -60.695312 L 61.546875 0 L 84.199219 0 L 84.199219 -96.921875 Z M 66.027344 -96.921875 "/></g></g></g><g fill="#cb6ce6" fill-opacity="1"><g transform="translate(1045.041742, 336.123337)"><g><path d="M 106.976562 -56.578125 L 61.789062 -56.578125 L 61.789062 -38.042969 L 85.777344 -38.042969 C 82.019531 -26.046875 71.601562 -17.324219 58.03125 -17.324219 C 40.949219 -17.324219 28.835938 -31.257812 28.835938 -48.339844 C 28.835938 -65.421875 40.949219 -79.355469 58.03125 -79.355469 C 64.089844 -79.355469 69.542969 -77.660156 73.902344 -74.628906 L 87.472656 -88.199219 C 79.234375 -94.257812 69.058594 -97.890625 58.03125 -97.890625 C 30.652344 -97.890625 8.480469 -75.71875 8.480469 -48.339844 C 8.480469 -20.960938 30.652344 1.210938 58.03125 1.210938 C 85.414062 1.210938 107.582031 -20.960938 107.582031 -48.339844 C 107.582031 -51.125 107.339844 -53.914062 106.976562 -56.578125 Z M 106.976562 -56.578125 "/></g></g></g><g fill="#ff8d55" fill-opacity="0.4"><g transform="translate(1154.032226, 338.836901)"><g/></g></g><g fill="#cb6ce6" fill-opacity="1"><g transform="translate(1161.101307, 336.123337)"><g/></g></g><g fill="#ff8d55" fill-opacity="0.4"><g transform="translate(514.114422, 447.873869)"><g/></g></g><g fill="#cb6ce6" fill-opacity="1"><g transform="translate(521.183503, 445.160304)"><g/></g></g><g fill="#ff8d55" fill-opacity="0.4"><g transform="translate(550.460078, 447.873869)"><g><path d="M 65.664062 0 L 84.5625 0 L 56.09375 -96.679688 L 56.09375 -96.921875 L 37.074219 -96.921875 L 8.480469 0 L 27.5 0 L 34.648438 -24.109375 L 58.515625 -24.109375 Z M 39.980469 -42.160156 L 46.644531 -64.695312 L 53.1875 -42.160156 Z M 39.980469 -42.160156 "/></g></g></g><g fill="#ff8d55" fill-opacity="0.4"><g transform="translate(643.505006, 447.873869)"><g><path d="M 66.027344 -96.921875 L 66.027344 -31.5 L 28.351562 -96.921875 L 8.480469 -96.921875 L 8.480469 0 L 26.652344 0 L 26.652344 -60.695312 L 61.546875 0 L 84.199219 0 L 84.199219 -96.921875 Z M 66.027344 -96.921875 "/></g></g></g><g fill="#ff8d55" fill-opacity="0.4"><g transform="translate(736.186482, 447.873869)"><g><path d="M 40.222656 -96.921875 L 8.480469 -96.921875 L 8.480469 0 L 40.222656 0 C 65.785156 0 83.957031 -21.6875 83.957031 -48.460938 C 83.957031 -75.234375 65.058594 -96.921875 40.222656 -96.921875 Z M 40.222656 -78.871094 C 54.640625 -78.871094 65.90625 -65.542969 65.90625 -48.460938 C 65.90625 -39.738281 63.242188 -31.863281 58.152344 -26.167969 C 54.882812 -22.414062 49.1875 -18.050781 40.222656 -18.050781 L 26.53125 -18.050781 L 26.53125 -78.871094 Z M 40.222656 -78.871094 "/></g></g></g><g fill="#cb6ce6" fill-opacity="1"><g transform="translate(557.529159, 445.160304)"><g><path d="M 65.664062 0 L 84.5625 0 L 56.09375 -96.679688 L 56.09375 -96.921875 L 37.074219 -96.921875 L 8.480469 0 L 27.5 0 L 34.648438 -24.109375 L 58.515625 -24.109375 Z M 39.980469 -42.160156 L 46.644531 -64.695312 L 53.1875 -42.160156 Z M 39.980469 -42.160156 "/></g></g></g><g fill="#cb6ce6" fill-opacity="1"><g transform="translate(650.574088, 445.160304)"><g><path d="M 66.027344 -96.921875 L 66.027344 -31.5 L 28.351562 -96.921875 L 8.480469 -96.921875 L 8.480469 0 L 26.652344 0 L 26.652344 -60.695312 L 61.546875 0 L 84.199219 0 L 84.199219 -96.921875 Z M 66.027344 -96.921875 "/></g></g></g><g fill="#cb6ce6" fill-opacity="1"><g transform="translate(743.255563, 445.160304)"><g><path d="M 40.222656 -96.921875 L 8.480469 -96.921875 L 8.480469 0 L 40.222656 0 C 65.785156 0 83.957031 -21.6875 83.957031 -48.460938 C 83.957031 -75.234375 65.058594 -96.921875 40.222656 -96.921875 Z M 40.222656 -78.871094 C 54.640625 -78.871094 65.90625 -65.542969 65.90625 -48.460938 C 65.90625 -39.738281 63.242188 -31.863281 58.152344 -26.167969 C 54.882812 -22.414062 49.1875 -18.050781 40.222656 -18.050781 L 26.53125 -18.050781 L 26.53125 -78.871094 Z M 40.222656 -78.871094 "/></g></g></g><g fill="#ff8d55" fill-opacity="0.4"><g transform="translate(828.625027, 447.873869)"><g/></g></g><g fill="#cb6ce6" fill-opacity="1"><g transform="translate(835.694108, 445.160304)"><g/></g></g><g fill="#ff8d55" fill-opacity="0.4"><g transform="translate(285.747284, 556.910836)"><g/></g></g><g fill="#ff8d55" fill-opacity="0.4"><g transform="translate(322.092963, 556.910836)"><g/></g></g><g fill="#ff8d55" fill-opacity="0.4"><g transform="translate(358.438642, 556.910836)"><g/></g></g><g fill="#cb6ce6" fill-opacity="1"><g transform="translate(292.816365, 554.197271)"><g/></g></g><g fill="#cb6ce6" fill-opacity="1"><g transform="translate(329.162044, 554.197271)"><g/></g></g><g fill="#cb6ce6" fill-opacity="1"><g transform="translate(365.507724, 554.197271)"><g/></g></g><g fill="#ff8d55" fill-opacity="0.4"><g transform="translate(394.784251, 556.910836)"><g><path d="M 81.292969 -96.921875 L 8.480469 -96.921875 L 8.480469 -78.871094 L 35.859375 -78.871094 L 35.859375 0 L 53.914062 0 L 53.914062 -78.871094 L 81.292969 -78.871094 Z M 81.292969 -96.921875 "/></g></g></g><g fill="#ff8d55" fill-opacity="0.4"><g transform="translate(484.558066, 556.910836)"><g><path d="M 64.695312 -78.992188 L 64.695312 -97.042969 L 8.480469 -97.042969 L 8.480469 0 L 64.695312 0 L 64.695312 -18.050781 L 26.652344 -18.050781 L 26.652344 -39.617188 L 49.308594 -39.617188 L 49.308594 -57.667969 L 26.652344 -57.667969 L 26.652344 -78.992188 Z M 64.695312 -78.992188 "/></g></g></g><g fill="#ff8d55" fill-opacity="0.4"><g transform="translate(557.73402, 556.910836)"><g><path d="M 48.703125 1.210938 L 50.882812 1.210938 C 71.722656 1.089844 83.59375 -12.480469 84.441406 -25.925781 C 85.414062 -39.980469 74.75 -55.730469 49.066406 -59 L 48.824219 -59 C 39.496094 -60.089844 29.804688 -64.695312 30.289062 -71.480469 C 30.652344 -76.324219 37.921875 -80.808594 51.125 -80.203125 L 51.488281 -80.203125 C 58.757812 -80.203125 67.480469 -76.6875 71.964844 -73.417969 L 82.382812 -87.957031 C 75.476562 -92.921875 63.363281 -98.011719 51.730469 -98.011719 C 26.046875 -99.34375 13.570312 -86.261719 12.480469 -72.933594 C 11.871094 -65.179688 15.144531 -57.546875 21.445312 -51.730469 C 27.621094 -46.039062 36.46875 -42.402344 46.886719 -41.3125 C 61.0625 -39.375 66.996094 -32.832031 66.632812 -27.136719 C 66.269531 -21.929688 60.695312 -16.71875 50.640625 -16.71875 L 50.035156 -16.71875 C 49.914062 -16.71875 36.710938 -15.992188 28.59375 -22.65625 C 26.53125 -24.230469 24.835938 -26.167969 23.261719 -28.472656 L 8.480469 -18.414062 C 10.902344 -14.78125 13.933594 -11.507812 17.324219 -8.722656 C 28.351562 0.242188 42.886719 1.210938 48.703125 1.210938 Z M 48.703125 1.210938 "/></g></g></g><g fill="#ff8d55" fill-opacity="0.4"><g transform="translate(650.657794, 556.910836)"><g><path d="M 81.292969 -96.921875 L 8.480469 -96.921875 L 8.480469 -78.871094 L 35.859375 -78.871094 L 35.859375 0 L 53.914062 0 L 53.914062 -78.871094 L 81.292969 -78.871094 Z M 81.292969 -96.921875 "/></g></g></g><g fill="#ff8d55" fill-opacity="0.4"><g transform="translate(740.431608, 556.910836)"><g><path d="M 8.480469 -96.921875 L 26.652344 -96.921875 L 26.652344 -0.363281 L 8.480469 -0.363281 Z M 8.480469 -96.921875 "/></g></g></g><g fill="#ff8d55" fill-opacity="0.4"><g transform="translate(775.56576, 556.910836)"><g><path d="M 66.027344 -96.921875 L 66.027344 -31.5 L 28.351562 -96.921875 L 8.480469 -96.921875 L 8.480469 0 L 26.652344 0 L 26.652344 -60.695312 L 61.546875 0 L 84.199219 0 L 84.199219 -96.921875 Z M 66.027344 -96.921875 "/></g></g></g><g fill="#ff8d55" fill-opacity="0.4"><g transform="translate(868.247247, 556.910836)"><g><path d="M 106.976562 -56.578125 L 61.789062 -56.578125 L 61.789062 -38.042969 L 85.777344 -38.042969 C 82.019531 -26.046875 71.601562 -17.324219 58.03125 -17.324219 C 40.949219 -17.324219 28.835938 -31.257812 28.835938 -48.339844 C 28.835938 -65.421875 40.949219 -79.355469 58.03125 -79.355469 C 64.089844 -79.355469 69.542969 -77.660156 73.902344 -74.628906 L 87.472656 -88.199219 C 79.234375 -94.257812 69.058594 -97.890625 58.03125 -97.890625 C 30.652344 -97.890625 8.480469 -75.71875 8.480469 -48.339844 C 8.480469 -20.960938 30.652344 1.210938 58.03125 1.210938 C 85.414062 1.210938 107.582031 -20.960938 107.582031 -48.339844 C 107.582031 -51.125 107.339844 -53.914062 106.976562 -56.578125 Z M 106.976562 -56.578125 "/></g></g></g><g fill="#cb6ce6" fill-opacity="1"><g transform="translate(401.853332, 554.197271)"><g><path d="M 81.292969 -96.921875 L 8.480469 -96.921875 L 8.480469 -78.871094 L 35.859375 -78.871094 L 35.859375 0 L 53.914062 0 L 53.914062 -78.871094 L 81.292969 -78.871094 Z M 81.292969 -96.921875 "/></g></g></g><g fill="#cb6ce6" fill-opacity="1"><g transform="translate(491.627147, 554.197271)"><g><path d="M 64.695312 -78.992188 L 64.695312 -97.042969 L 8.480469 -97.042969 L 8.480469 0 L 64.695312 0 L 64.695312 -18.050781 L 26.652344 -18.050781 L 26.652344 -39.617188 L 49.308594 -39.617188 L 49.308594 -57.667969 L 26.652344 -57.667969 L 26.652344 -78.992188 Z M 64.695312 -78.992188 "/></g></g></g><g fill="#cb6ce6" fill-opacity="1"><g transform="translate(564.803101, 554.197271)"><g><path d="M 48.703125 1.210938 L 50.882812 1.210938 C 71.722656 1.089844 83.59375 -12.480469 84.441406 -25.925781 C 85.414062 -39.980469 74.75 -55.730469 49.066406 -59 L 48.824219 -59 C 39.496094 -60.089844 29.804688 -64.695312 30.289062 -71.480469 C 30.652344 -76.324219 37.921875 -80.808594 51.125 -80.203125 L 51.488281 -80.203125 C 58.757812 -80.203125 67.480469 -76.6875 71.964844 -73.417969 L 82.382812 -87.957031 C 75.476562 -92.921875 63.363281 -98.011719 51.730469 -98.011719 C 26.046875 -99.34375 13.570312 -86.261719 12.480469 -72.933594 C 11.871094 -65.179688 15.144531 -57.546875 21.445312 -51.730469 C 27.621094 -46.039062 36.46875 -42.402344 46.886719 -41.3125 C 61.0625 -39.375 66.996094 -32.832031 66.632812 -27.136719 C 66.269531 -21.929688 60.695312 -16.71875 50.640625 -16.71875 L 50.035156 -16.71875 C 49.914062 -16.71875 36.710938 -15.992188 28.59375 -22.65625 C 26.53125 -24.230469 24.835938 -26.167969 23.261719 -28.472656 L 8.480469 -18.414062 C 10.902344 -14.78125 13.933594 -11.507812 17.324219 -8.722656 C 28.351562 0.242188 42.886719 1.210938 48.703125 1.210938 Z M 48.703125 1.210938 "/></g></g></g><g fill="#cb6ce6" fill-opacity="1"><g transform="translate(657.726875, 554.197271)"><g><path d="M 81.292969 -96.921875 L 8.480469 -96.921875 L 8.480469 -78.871094 L 35.859375 -78.871094 L 35.859375 0 L 53.914062 0 L 53.914062 -78.871094 L 81.292969 -78.871094 Z M 81.292969 -96.921875 "/></g></g></g><g fill="#cb6ce6" fill-opacity="1"><g transform="translate(747.500689, 554.197271)"><g><path d="M 8.480469 -96.921875 L 26.652344 -96.921875 L 26.652344 -0.363281 L 8.480469 -0.363281 Z M 8.480469 -96.921875 "/></g></g></g><g fill="#cb6ce6" fill-opacity="1"><g transform="translate(782.634841, 554.197271)"><g><path d="M 66.027344 -96.921875 L 66.027344 -31.5 L 28.351562 -96.921875 L 8.480469 -96.921875 L 8.480469 0 L 26.652344 0 L 26.652344 -60.695312 L 61.546875 0 L 84.199219 0 L 84.199219 -96.921875 Z M 66.027344 -96.921875 "/></g></g></g><g fill="#cb6ce6" fill-opacity="1"><g transform="translate(875.316328, 554.197271)"><g><path d="M 106.976562 -56.578125 L 61.789062 -56.578125 L 61.789062 -38.042969 L 85.777344 -38.042969 C 82.019531 -26.046875 71.601562 -17.324219 58.03125 -17.324219 C 40.949219 -17.324219 28.835938 -31.257812 28.835938 -48.339844 C 28.835938 -65.421875 40.949219 -79.355469 58.03125 -79.355469 C 64.089844 -79.355469 69.542969 -77.660156 73.902344 -74.628906 L 87.472656 -88.199219 C 79.234375 -94.257812 69.058594 -97.890625 58.03125 -97.890625 C 30.652344 -97.890625 8.480469 -75.71875 8.480469 -48.339844 C 8.480469 -20.960938 30.652344 1.210938 58.03125 1.210938 C 85.414062 1.210938 107.582031 -20.960938 107.582031 -48.339844 C 107.582031 -51.125 107.339844 -53.914062 106.976562 -56.578125 Z M 106.976562 -56.578125 "/></g></g></g><g fill="#ff8d55" fill-opacity="0.4"><g transform="translate(984.300853, 556.910836)"><g/></g></g><g fill="#ff8d55" fill-opacity="0.4"><g transform="translate(1020.646533, 556.910836)"><g/></g></g><g fill="#ff8d55" fill-opacity="0.4"><g transform="translate(1056.992212, 556.910836)"><g/></g></g><g fill="#cb6ce6" fill-opacity="1"><g transform="translate(991.369935, 554.197271)"><g/></g></g><g fill="#cb6ce6" fill-opacity="1"><g transform="translate(1027.715614, 554.197271)"><g/></g></g><g fill="#cb6ce6" fill-opacity="1"><g transform="translate(1064.061293, 554.197271)"><g/></g></g></svg>