<svg xmlns="http://www.w3.org/2000/svg" xmlns:xlink="http://www.w3.org/1999/xlink" width="1920" zoomAndPan="magnify" viewBox="0 0 1440 809.999993" height="1080" preserveAspectRatio="xMidYMid meet" version="1.0"><defs><g/></defs><rect x="-144" width="1728" fill="#ffffff" y="-80.999999" height="971.999992" fill-opacity="1"/><rect x="-144" width="1728" fill="#ebebeb" y="-80.999999" height="971.999992" fill-opacity="1"/><rect x="-144" width="1728" fill="#ffffff" y="-80.999999" height="971.999992" fill-opacity="1"/><rect x="-144" width="1728" fill="#ebebeb" y="-80.999999" height="971.999992" fill-opacity="1"/><g fill="#ff8d55" fill-opacity="0.4"><g transform="translate(503.750231, 229.799934)"><g/></g></g><g fill="#cb6ce6" fill-opacity="1"><g transform="translate(510.819312, 227.086369)"><g/></g></g><g fill="#ff8d55" fill-opacity="0.4"><g transform="translate(540.095887, 229.799934)"><g><path d="M 104.796875 -97.042969 L 93.410156 -40.101562 L 76.566406 -97.164062 L 56.578125 -97.164062 L 56.578125 -97.042969 L 39.859375 -40.101562 L 28.351562 -97.042969 L 8.480469 -97.042969 L 28.105469 0 L 47.976562 0 L 66.632812 -63.242188 L 85.292969 0 L 105.160156 0 L 124.664062 -97.042969 Z M 104.796875 -97.042969 "/></g></g></g><g fill="#ff8d55" fill-opacity="0.4"><g transform="translate(673.242207, 229.799934)"><g><path d="M 64.695312 -78.992188 L 64.695312 -97.042969 L 8.480469 -97.042969 L 8.480469 0 L 64.695312 0 L 64.695312 -18.050781 L 26.652344 -18.050781 L 26.652344 -39.617188 L 49.308594 -39.617188 L 49.308594 -57.667969 L 26.652344 -57.667969 L 26.652344 -78.992188 Z M 64.695312 -78.992188 "/></g></g></g><g fill="#ff8d55" fill-opacity="0.4"><g transform="translate(746.418162, 229.799934)"><g><path d="M 84.078125 -69.179688 C 84.078125 -84.5625 74.992188 -96.921875 50.15625 -96.921875 L 8.480469 -96.921875 L 8.480469 0 L 50.15625 0 C 75.71875 0 84.078125 -16.476562 84.078125 -31.742188 C 84.078125 -38.890625 82.140625 -45.433594 77.539062 -50.398438 C 82.261719 -55.246094 84.078125 -61.910156 84.078125 -69.179688 Z M 26.652344 -78.871094 L 56.457031 -78.871094 C 62.152344 -78.871094 66.027344 -73.902344 66.027344 -69.179688 C 66.027344 -65.058594 62.757812 -59.484375 56.457031 -59.484375 L 26.652344 -59.484375 Z M 54.640625 -18.171875 L 26.652344 -18.171875 L 26.652344 -41.433594 L 54.640625 -41.433594 C 60.210938 -41.433594 66.027344 -37.800781 66.027344 -29.804688 C 66.027344 -21.808594 59.96875 -18.171875 54.640625 -18.171875 Z M 54.640625 -18.171875 "/></g></g></g><g fill="#cb6ce6" fill-opacity="1"><g transform="translate(547.164968, 227.086369)"><g><path d="M 104.796875 -97.042969 L 93.410156 -40.101562 L 76.566406 -97.164062 L 56.578125 -97.164062 L 56.578125 -97.042969 L 39.859375 -40.101562 L 28.351562 -97.042969 L 8.480469 -97.042969 L 28.105469 0 L 47.976562 0 L 66.632812 -63.242188 L 85.292969 0 L 105.160156 0 L 124.664062 -97.042969 Z M 104.796875 -97.042969 "/></g></g></g><g fill="#cb6ce6" fill-opacity="1"><g transform="translate(680.311288, 227.086369)"><g><path d="M 64.695312 -78.992188 L 64.695312 -97.042969 L 8.480469 -97.042969 L 8.480469 0 L 64.695312 0 L 64.695312 -18.050781 L 26.652344 -18.050781 L 26.652344 -39.617188 L 49.308594 -39.617188 L 49.308594 -57.667969 L 26.652344 -57.667969 L 26.652344 -78.992188 Z M 64.695312 -78.992188 "/></g></g></g><g fill="#cb6ce6" fill-opacity="1"><g transform="translate(753.487243, 227.086369)"><g><path d="M 84.078125 -69.179688 C 84.078125 -84.5625 74.992188 -96.921875 50.15625 -96.921875 L 8.480469 -96.921875 L 8.480469 0 L 50.15625 0 C 75.71875 0 84.078125 -16.476562 84.078125 -31.742188 C 84.078125 -38.890625 82.140625 -45.433594 77.539062 -50.398438 C 82.261719 -55.246094 84.078125 -61.910156 84.078125 -69.179688 Z M 26.652344 -78.871094 L 56.457031 -78.871094 C 62.152344 -78.871094 66.027344 -73.902344 66.027344 -69.179688 C 66.027344 -65.058594 62.757812 -59.484375 56.457031 -59.484375 L 26.652344 -59.484375 Z M 54.640625 -18.171875 L 26.652344 -18.171875 L 26.652344 -41.433594 L 54.640625 -41.433594 C 60.210938 -41.433594 66.027344 -37.800781 66.027344 -29.804688 C 66.027344 -21.808594 59.96875 -18.171875 54.640625 -18.171875 Z M 54.640625 -18.171875 "/></g></g></g><g fill="#ff8d55" fill-opacity="0.4"><g transform="translate(838.977383, 229.799934)"><g/></g></g><g fill="#cb6ce6" fill-opacity="1"><g transform="translate(846.046464, 227.086369)"><g/></g></g><g fill="#ff8d55" fill-opacity="0.4"><g transform="translate(54.457823, 338.836901)"><g/></g></g><g fill="#ff8d55" fill-opacity="0.4"><g transform="translate(90.803502, 338.836901)"><g/></g></g><g fill="#ff8d55" fill-opacity="0.4"><g transform="translate(127.149181, 338.836901)"><g/></g></g><g fill="#ff8d55" fill-opacity="0.4"><g transform="translate(163.494861, 338.836901)"><g/></g></g><g fill="#ff8d55" fill-opacity="0.4"><g transform="translate(199.84054, 338.836901)"><g/></g></g><g fill="#cb6ce6" fill-opacity="1"><g transform="translate(61.526904, 336.123337)"><g/></g></g><g fill="#cb6ce6" fill-opacity="1"><g transform="translate(97.872583, 336.123337)"><g/></g></g><g fill="#cb6ce6" fill-opacity="1"><g transform="translate(134.218262, 336.123337)"><g/></g></g><g fill="#cb6ce6" fill-opacity="1"><g transform="translate(170.563942, 336.123337)"><g/></g></g><g fill="#cb6ce6" fill-opacity="1"><g transform="translate(206.909621, 336.123337)"><g/></g></g><g fill="#ff8d55" fill-opacity="0.4"><g transform="translate(236.186105, 338.836901)"><g><path d="M 81.292969 -96.921875 L 8.480469 -96.921875 L 8.480469 -78.871094 L 35.859375 -78.871094 L 35.859375 0 L 53.914062 0 L 53.914062 -78.871094 L 81.292969 -78.871094 Z M 81.292969 -96.921875 "/></g></g></g><g fill="#ff8d55" fill-opacity="0.4"><g transform="translate(325.95992, 338.836901)"><g><path d="M 64.695312 -78.992188 L 64.695312 -97.042969 L 8.480469 -97.042969 L 8.480469 0 L 64.695312 0 L 64.695312 -18.050781 L 26.652344 -18.050781 L 26.652344 -39.617188 L 49.308594 -39.617188 L 49.308594 -57.667969 L 26.652344 -57.667969 L 26.652344 -78.992188 Z M 64.695312 -78.992188 "/></g></g></g><g fill="#ff8d55" fill-opacity="0.4"><g transform="translate(399.135874, 338.836901)"><g><path d="M 79.476562 -27.015625 C 74.386719 -21.082031 66.875 -17.445312 58.03125 -17.445312 C 40.949219 -17.445312 28.835938 -31.378906 28.835938 -48.460938 C 28.835938 -65.542969 40.949219 -79.476562 58.03125 -79.476562 C 66.875 -79.476562 74.386719 -75.839844 79.476562 -69.90625 L 93.167969 -83.472656 C 84.199219 -92.4375 71.722656 -98.011719 58.03125 -98.011719 C 30.652344 -98.011719 8.480469 -75.839844 8.480469 -48.460938 C 8.480469 -21.082031 30.652344 1.089844 58.03125 1.089844 C 71.722656 1.089844 84.199219 -4.484375 93.167969 -13.449219 Z M 79.476562 -27.015625 "/></g></g></g><g fill="#ff8d55" fill-opacity="0.4"><g transform="translate(500.78262, 338.836901)"><g><path d="M 66.027344 -96.195312 L 66.027344 -51.972656 L 26.652344 -51.972656 L 26.652344 -96.195312 L 8.480469 -96.195312 L 8.480469 0.847656 L 26.652344 0.847656 L 26.652344 -33.921875 L 66.027344 -33.921875 L 66.027344 0.847656 L 84.078125 0.847656 L 84.078125 -96.195312 Z M 66.027344 -96.195312 "/></g></g></g><g fill="#ff8d55" fill-opacity="0.4"><g transform="translate(593.342929, 338.836901)"><g><path d="M 66.027344 -96.921875 L 66.027344 -31.5 L 28.351562 -96.921875 L 8.480469 -96.921875 L 8.480469 0 L 26.652344 0 L 26.652344 -60.695312 L 61.546875 0 L 84.199219 0 L 84.199219 -96.921875 Z M 66.027344 -96.921875 "/></g></g></g><g fill="#ff8d55" fill-opacity="0.4"><g transform="translate(686.024416, 338.836901)"><g><path d="M 53.792969 -98.132812 C 26.410156 -98.132812 4.242188 -75.960938 4.242188 -48.582031 C 4.242188 -21.203125 26.410156 0.96875 53.792969 0.96875 C 81.171875 0.96875 103.34375 -21.203125 103.34375 -48.582031 C 103.34375 -75.960938 81.171875 -98.132812 53.792969 -98.132812 Z M 53.792969 -79.597656 C 70.996094 -79.597656 83.109375 -65.664062 83.109375 -48.582031 C 83.109375 -31.5 70.996094 -17.566406 53.792969 -17.566406 C 36.710938 -17.566406 24.59375 -31.5 24.59375 -48.582031 C 24.59375 -65.664062 36.710938 -79.597656 53.792969 -79.597656 Z M 53.792969 -79.597656 "/></g></g></g><g fill="#ff8d55" fill-opacity="0.4"><g transform="translate(793.607616, 338.836901)"><g><path d="M 26.53125 -18.050781 L 26.53125 -96.921875 L 8.480469 -96.921875 L 8.480469 0 L 64.574219 0 L 64.574219 -18.050781 Z M 26.53125 -18.050781 "/></g></g></g><g fill="#ff8d55" fill-opacity="0.4"><g transform="translate(866.662416, 338.836901)"><g><path d="M 53.792969 -98.132812 C 26.410156 -98.132812 4.242188 -75.960938 4.242188 -48.582031 C 4.242188 -21.203125 26.410156 0.96875 53.792969 0.96875 C 81.171875 0.96875 103.34375 -21.203125 103.34375 -48.582031 C 103.34375 -75.960938 81.171875 -98.132812 53.792969 -98.132812 Z M 53.792969 -79.597656 C 70.996094 -79.597656 83.109375 -65.664062 83.109375 -48.582031 C 83.109375 -31.5 70.996094 -17.566406 53.792969 -17.566406 C 36.710938 -17.566406 24.59375 -31.5 24.59375 -48.582031 C 24.59375 -65.664062 36.710938 -79.597656 53.792969 -79.597656 Z M 53.792969 -79.597656 "/></g></g></g><g fill="#ff8d55" fill-opacity="0.4"><g transform="translate(974.245616, 338.836901)"><g><path d="M 106.976562 -56.578125 L 61.789062 -56.578125 L 61.789062 -38.042969 L 85.777344 -38.042969 C 82.019531 -26.046875 71.601562 -17.324219 58.03125 -17.324219 C 40.949219 -17.324219 28.835938 -31.257812 28.835938 -48.339844 C 28.835938 -65.421875 40.949219 -79.355469 58.03125 -79.355469 C 64.089844 -79.355469 69.542969 -77.660156 73.902344 -74.628906 L 87.472656 -88.199219 C 79.234375 -94.257812 69.058594 -97.890625 58.03125 -97.890625 C 30.652344 -97.890625 8.480469 -75.71875 8.480469 -48.339844 C 8.480469 -20.960938 30.652344 1.210938 58.03125 1.210938 C 85.414062 1.210938 107.582031 -20.960938 107.582031 -48.339844 C 107.582031 -51.125 107.339844 -53.914062 106.976562 -56.578125 Z M 106.976562 -56.578125 "/></g></g></g><g fill="#ff8d55" fill-opacity="0.4"><g transform="translate(1090.309478, 338.836901)"><g><path d="M 62.394531 -97.042969 L 44.585938 -54.882812 L 26.652344 -97.042969 L 8.480469 -97.042969 L 35.496094 -33.558594 L 35.496094 0 L 53.550781 0 L 53.550781 -33.558594 L 80.445312 -97.042969 Z M 62.394531 -97.042969 "/></g></g></g><g fill="#cb6ce6" fill-opacity="1"><g transform="translate(243.255187, 336.123337)"><g><path d="M 81.292969 -96.921875 L 8.480469 -96.921875 L 8.480469 -78.871094 L 35.859375 -78.871094 L 35.859375 0 L 53.914062 0 L 53.914062 -78.871094 L 81.292969 -78.871094 Z M 81.292969 -96.921875 "/></g></g></g><g fill="#cb6ce6" fill-opacity="1"><g transform="translate(333.029001, 336.123337)"><g><path d="M 64.695312 -78.992188 L 64.695312 -97.042969 L 8.480469 -97.042969 L 8.480469 0 L 64.695312 0 L 64.695312 -18.050781 L 26.652344 -18.050781 L 26.652344 -39.617188 L 49.308594 -39.617188 L 49.308594 -57.667969 L 26.652344 -57.667969 L 26.652344 -78.992188 Z M 64.695312 -78.992188 "/></g></g></g><g fill="#cb6ce6" fill-opacity="1"><g transform="translate(406.204955, 336.123337)"><g><path d="M 79.476562 -27.015625 C 74.386719 -21.082031 66.875 -17.445312 58.03125 -17.445312 C 40.949219 -17.445312 28.835938 -31.378906 28.835938 -48.460938 C 28.835938 -65.542969 40.949219 -79.476562 58.03125 -79.476562 C 66.875 -79.476562 74.386719 -75.839844 79.476562 -69.90625 L 93.167969 -83.472656 C 84.199219 -92.4375 71.722656 -98.011719 58.03125 -98.011719 C 30.652344 -98.011719 8.480469 -75.839844 8.480469 -48.460938 C 8.480469 -21.082031 30.652344 1.089844 58.03125 1.089844 C 71.722656 1.089844 84.199219 -4.484375 93.167969 -13.449219 Z M 79.476562 -27.015625 "/></g></g></g><g fill="#cb6ce6" fill-opacity="1"><g transform="translate(507.851701, 336.123337)"><g><path d="M 66.027344 -96.195312 L 66.027344 -51.972656 L 26.652344 -51.972656 L 26.652344 -96.195312 L 8.480469 -96.195312 L 8.480469 0.847656 L 26.652344 0.847656 L 26.652344 -33.921875 L 66.027344 -33.921875 L 66.027344 0.847656 L 84.078125 0.847656 L 84.078125 -96.195312 Z M 66.027344 -96.195312 "/></g></g></g><g fill="#cb6ce6" fill-opacity="1"><g transform="translate(600.41201, 336.123337)"><g><path d="M 66.027344 -96.921875 L 66.027344 -31.5 L 28.351562 -96.921875 L 8.480469 -96.921875 L 8.480469 0 L 26.652344 0 L 26.652344 -60.695312 L 61.546875 0 L 84.199219 0 L 84.199219 -96.921875 Z M 66.027344 -96.921875 "/></g></g></g><g fill="#cb6ce6" fill-opacity="1"><g transform="translate(693.093497, 336.123337)"><g><path d="M 53.792969 -98.132812 C 26.410156 -98.132812 4.242188 -75.960938 4.242188 -48.582031 C 4.242188 -21.203125 26.410156 0.96875 53.792969 0.96875 C 81.171875 0.96875 103.34375 -21.203125 103.34375 -48.582031 C 103.34375 -75.960938 81.171875 -98.132812 53.792969 -98.132812 Z M 53.792969 -79.597656 C 70.996094 -79.597656 83.109375 -65.664062 83.109375 -48.582031 C 83.109375 -31.5 70.996094 -17.566406 53.792969 -17.566406 C 36.710938 -17.566406 24.59375 -31.5 24.59375 -48.582031 C 24.59375 -65.664062 36.710938 -79.597656 53.792969 -79.597656 Z M 53.792969 -79.597656 "/></g></g></g><g fill="#cb6ce6" fill-opacity="1"><g transform="translate(800.676697, 336.123337)"><g><path d="M 26.53125 -18.050781 L 26.53125 -96.921875 L 8.480469 -96.921875 L 8.480469 0 L 64.574219 0 L 64.574219 -18.050781 Z M 26.53125 -18.050781 "/></g></g></g><g fill="#cb6ce6" fill-opacity="1"><g transform="translate(873.731497, 336.123337)"><g><path d="M 53.792969 -98.132812 C 26.410156 -98.132812 4.242188 -75.960938 4.242188 -48.582031 C 4.242188 -21.203125 26.410156 0.96875 53.792969 0.96875 C 81.171875 0.96875 103.34375 -21.203125 103.34375 -48.582031 C 103.34375 -75.960938 81.171875 -98.132812 53.792969 -98.132812 Z M 53.792969 -79.597656 C 70.996094 -79.597656 83.109375 -65.664062 83.109375 -48.582031 C 83.109375 -31.5 70.996094 -17.566406 53.792969 -17.566406 C 36.710938 -17.566406 24.59375 -31.5 24.59375 -48.582031 C 24.59375 -65.664062 36.710938 -79.597656 53.792969 -79.597656 Z M 53.792969 -79.597656 "/></g></g></g><g fill="#cb6ce6" fill-opacity="1"><g transform="translate(981.314697, 336.123337)"><g><path d="M 106.976562 -56.578125 L 61.789062 -56.578125 L 61.789062 -38.042969 L 85.777344 -38.042969 C 82.019531 -26.046875 71.601562 -17.324219 58.03125 -17.324219 C 40.949219 -17.324219 28.835938 -31.257812 28.835938 -48.339844 C 28.835938 -65.421875 40.949219 -79.355469 58.03125 -79.355469 C 64.089844 -79.355469 69.542969 -77.660156 73.902344 -74.628906 L 87.472656 -88.199219 C 79.234375 -94.257812 69.058594 -97.890625 58.03125 -97.890625 C 30.652344 -97.890625 8.480469 -75.71875 8.480469 -48.339844 C 8.480469 -20.960938 30.652344 1.210938 58.03125 1.210938 C 85.414062 1.210938 107.582031 -20.960938 107.582031 -48.339844 C 107.582031 -51.125 107.339844 -53.914062 106.976562 -56.578125 Z M 106.976562 -56.578125 "/></g></g></g><g fill="#cb6ce6" fill-opacity="1"><g transform="translate(1097.378559, 336.123337)"><g><path d="M 62.394531 -97.042969 L 44.585938 -54.882812 L 26.652344 -97.042969 L 8.480469 -97.042969 L 35.496094 -33.558594 L 35.496094 0 L 53.550781 0 L 53.550781 -33.558594 L 80.445312 -97.042969 Z M 62.394531 -97.042969 "/></g></g></g><g fill="#ff8d55" fill-opacity="0.4"><g transform="translate(1179.232828, 338.836901)"><g/></g></g><g fill="#ff8d55" fill-opacity="0.4"><g transform="translate(1215.578507, 338.836901)"><g/></g></g><g fill="#ff8d55" fill-opacity="0.4"><g transform="translate(1251.924186, 338.836901)"><g/></g></g><g fill="#ff8d55" fill-opacity="0.4"><g transform="translate(1288.269865, 338.836901)"><g/></g></g><g fill="#cb6ce6" fill-opacity="1"><g transform="translate(1186.301909, 336.123337)"><g/></g></g><g fill="#cb6ce6" fill-opacity="1"><g transform="translate(1222.647588, 336.123337)"><g/></g></g><g fill="#cb6ce6" fill-opacity="1"><g transform="translate(1258.993267, 336.123337)"><g/></g></g><g fill="#cb6ce6" fill-opacity="1"><g transform="translate(1295.338946, 336.123337)"><g/></g></g></svg>